<ttFont>
    <TTGlyph name=".notdef" xMin="41" yMin="240" xMax="160" yMax="370">
      <contour>
        <pt x="41" y="240" on="1"/>
        <pt x="41" y="370" on="1"/>
        <pt x="160" y="370" on="1"/>
        <pt x="160" y="240" on="1"/>
      </contour>
    </TTGlyph>
    <TTGlyph name="A" xMin="-1" yMin="0" xMax="538" yMax="700">
      <contour>
        <pt x="411" y="0" on="1"/>
        <pt x="362" y="169" on="1"/>
        <pt x="175" y="169" on="1"/>
        <pt x="126" y="0" on="1"/>
        <pt x="-1" y="0" on="1"/>
        <pt x="212" y="700" on="1"/>
        <pt x="324" y="700" on="1"/>
        <pt x="538" y="0" on="1"/>
      </contour>
      <contour>
        <pt x="268" y="498" on="1"/>
        <pt x="218" y="293" on="1"/>
        <pt x="319" y="293" on="1"/>
      </contour>
    </TTGlyph>
    <TTGlyph name="A.sc" xMin="23" yMin="0" xMax="508" yMax="581">
      <contour>
        <pt x="388" y="0" on="1"/>
        <pt x="345" y="131" on="1"/>
        <pt x="186" y="131" on="1"/>
        <pt x="144" y="0" on="1"/>
        <pt x="23" y="0" on="1"/>
        <pt x="212" y="581" on="1"/>
        <pt x="318" y="581" on="1"/>
        <pt x="508" y="0" on="1"/>
      </contour>
      <contour>
        <pt x="264" y="382" on="1"/>
        <pt x="227" y="251" on="1"/>
        <pt x="304" y="251" on="1"/>
      </contour>
    </TTGlyph>
    <TTGlyph name="AE" xMin="-13" yMin="0" xMax="716" yMax="700">
      <contour>
        <pt x="341" y="0" on="1"/>
        <pt x="341" y="169" on="1"/>
        <pt x="182" y="169" on="1"/>
        <pt x="116" y="0" on="1"/>
        <pt x="-13" y="0" on="1"/>
        <pt x="280" y="700" on="1"/>
        <pt x="709" y="700" on="1"/>
        <pt x="709" y="576" on="1"/>
        <pt x="460" y="576" on="1"/>
        <pt x="460" y="427" on="1"/>
        <pt x="651" y="427" on="1"/>
        <pt x="651" y="303" on="1"/>
        <pt x="460" y="303" on="1"/>
        <pt x="460" y="124" on="1"/>
        <pt x="716" y="124" on="1"/>
        <pt x="716" y="0" on="1"/>
      </contour>
      <contour>
        <pt x="341" y="573" on="1"/>
        <pt x="238" y="293" on="1"/>
        <pt x="341" y="293" on="1"/>
      </contour>
    </TTGlyph>
    <TTGlyph name="AE.sc" xMin="12" yMin="0" xMax="666" yMax="581">
      <contour>
        <pt x="330" y="0" on="1"/>
        <pt x="330" y="135" on="1"/>
        <pt x="193" y="135" on="1"/>
        <pt x="137" y="0" on="1"/>
        <pt x="12" y="0" on="1"/>
        <pt x="274" y="581" on="1"/>
        <pt x="659" y="581" on="1"/>
        <pt x="659" y="461" on="1"/>
        <pt x="441" y="461" on="1"/>
        <pt x="441" y="362" on="1"/>
        <pt x="608" y="362" on="1"/>
        <pt x="608" y="243" on="1"/>
        <pt x="441" y="243" on="1"/>
        <pt x="441" y="120" on="1"/>
        <pt x="666" y="120" on="1"/>
        <pt x="666" y="0" on="1"/>
      </contour>
      <contour>
        <pt x="330" y="459" on="1"/>
        <pt x="248" y="253" on="1"/>
        <pt x="330" y="253" on="1"/>
      </contour>
    </TTGlyph>
    <TTGlyph name="Aacute" xMin="-1" yMin="0" xMax="538" yMax="950">
      <component glyphName="A" x="0" y="0" flags="0x204"/>
      <component glyphName="acute" x="138" y="200" flags="0x4"/>
    </TTGlyph>
    <TTGlyph name="Acircumflex" xMin="-1" yMin="0" xMax="538" yMax="950">
      <component glyphName="A" x="0" y="0" flags="0x204"/>
      <component glyphName="circumflex" x="76" y="200" flags="0x4"/>
    </TTGlyph>
    <TTGlyph name="Adieresis" xMin="-1" yMin="0" xMax="538" yMax="900">
      <component glyphName="A" x="0" y="0" flags="0x204"/>
      <component glyphName="dieresis" x="86" y="200" flags="0x4"/>
    </TTGlyph>
    <TTGlyph name="Agrave" xMin="-1" yMin="0" xMax="538" yMax="950">
      <component glyphName="A" x="0" y="0" flags="0x204"/>
      <component glyphName="grave" x="138" y="200" flags="0x4"/>
    </TTGlyph>
    <TTGlyph name="Aring" xMin="-1" yMin="0" xMax="538" yMax="955">
      <component glyphName="A" x="0" y="0" flags="0x204"/>
      <component glyphName="ring" x="142" y="200" flags="0x4"/>
    </TTGlyph>
    <TTGlyph name="Atilde" xMin="-1" yMin="0" xMax="538" yMax="921">
      <component glyphName="A" x="0" y="0" flags="0x204"/>
      <component glyphName="tilde" x="41" y="200" flags="0x4"/>
    </TTGlyph>
    <TTGlyph name="B" xMin="42" yMin="0" xMax="503" yMax="700">
      <contour>
        <pt x="42" y="0" on="1"/>
        <pt x="42" y="700" on="1"/>
        <pt x="216" y="700" on="1"/>
        <pt x="267" y="700" on="0"/>
        <pt x="353" y="687" on="0"/>
        <pt x="414" y="649" on="0"/>
        <pt x="448" y="578" on="0"/>
        <pt x="448" y="520" on="1"/>
        <pt x="448" y="472" on="0"/>
        <pt x="420" y="400" on="0"/>
        <pt x="397" y="374" on="1"/>
        <pt x="446" y="351" on="0"/>
        <pt x="503" y="273" on="0"/>
        <pt x="503" y="206" on="1"/>
        <pt x="503" y="145" on="0"/>
        <pt x="464" y="66" on="0"/>
        <pt x="401" y="19" on="0"/>
        <pt x="323" y="0" on="0"/>
        <pt x="285" y="0" on="1"/>
      </contour>
      <contour>
        <pt x="164" y="591" on="1"/>
        <pt x="164" y="419" on="1"/>
        <pt x="274" y="419" on="1"/>
        <pt x="283" y="419" on="0"/>
        <pt x="305" y="426" on="0"/>
        <pt x="325" y="444" on="0"/>
        <pt x="338" y="476" on="0"/>
        <pt x="338" y="501" on="1"/>
        <pt x="338" y="556" on="0"/>
        <pt x="303" y="591" on="0"/>
        <pt x="270" y="591" on="1"/>
      </contour>
      <contour>
        <pt x="164" y="318" on="1"/>
        <pt x="164" y="109" on="1"/>
        <pt x="283" y="109" on="1"/>
        <pt x="326" y="109" on="0"/>
        <pt x="378" y="154" on="0"/>
        <pt x="378" y="213" on="1"/>
        <pt x="378" y="243" on="0"/>
        <pt x="362" y="284" on="0"/>
        <pt x="334" y="308" on="0"/>
        <pt x="296" y="318" on="0"/>
        <pt x="273" y="318" on="1"/>
      </contour>
    </TTGlyph>
    <TTGlyph name="B.sc" xMin="61" yMin="0" xMax="482" yMax="581">
      <contour>
        <pt x="61" y="0" on="1"/>
        <pt x="61" y="581" on="1"/>
        <pt x="224" y="581" on="1"/>
        <pt x="270" y="581" on="0"/>
        <pt x="346" y="570" on="0"/>
        <pt x="401" y="538" on="0"/>
        <pt x="431" y="477" on="0"/>
        <pt x="431" y="428" on="1"/>
        <pt x="431" y="387" on="0"/>
        <pt x="404" y="325" on="0"/>
        <pt x="386" y="311" on="1"/>
        <pt x="428" y="293" on="0"/>
        <pt x="482" y="230" on="0"/>
        <pt x="482" y="170" on="1"/>
        <pt x="482" y="122" on="0"/>
        <pt x="446" y="57" on="0"/>
        <pt x="390" y="17" on="0"/>
        <pt x="319" y="0" on="0"/>
        <pt x="285" y="0" on="1"/>
      </contour>
      <contour>
        <pt x="178" y="480" on="1"/>
        <pt x="178" y="352" on="1"/>
        <pt x="278" y="352" on="1"/>
        <pt x="284" y="352" on="0"/>
        <pt x="302" y="358" on="0"/>
        <pt x="318" y="372" on="0"/>
        <pt x="329" y="393" on="0"/>
        <pt x="329" y="407" on="1"/>
        <pt x="329" y="448" on="0"/>
        <pt x="304" y="480" on="0"/>
        <pt x="278" y="480" on="1"/>
      </contour>
      <contour>
        <pt x="178" y="262" on="1"/>
        <pt x="178" y="101" on="1"/>
        <pt x="290" y="101" on="1"/>
        <pt x="324" y="101" on="0"/>
        <pt x="362" y="141" on="0"/>
        <pt x="362" y="183" on="1"/>
        <pt x="362" y="227" on="0"/>
        <pt x="312" y="262" on="0"/>
        <pt x="271" y="262" on="1"/>
      </contour>
    </TTGlyph>
    <TTGlyph name="C" xMin="30" yMin="-14" xMax="498" yMax="714">
      <contour>
        <pt x="324" y="-14" on="1"/>
        <pt x="260" y="-14" on="0"/>
        <pt x="152" y="38" on="0"/>
        <pt x="74" y="133" on="0"/>
        <pt x="30" y="267" on="0"/>
        <pt x="30" y="350" on="1"/>
        <pt x="30" y="432" on="0"/>
        <pt x="74" y="567" on="0"/>
        <pt x="153" y="662" on="0"/>
        <pt x="261" y="714" on="0"/>
        <pt x="325" y="714" on="1"/>
        <pt x="373" y="714" on="0"/>
        <pt x="464" y="692" on="0"/>
        <pt x="498" y="673" on="1"/>
        <pt x="484" y="551" on="1"/>
        <pt x="446" y="568" on="0"/>
        <pt x="373" y="591" on="0"/>
        <pt x="325" y="591" on="1"/>
        <pt x="284" y="591" on="0"/>
        <pt x="224" y="555" on="0"/>
        <pt x="184" y="491" on="0"/>
        <pt x="164" y="402" on="0"/>
        <pt x="164" y="350" on="1"/>
        <pt x="164" y="297" on="0"/>
        <pt x="184" y="209" on="0"/>
        <pt x="224" y="145" on="0"/>
        <pt x="284" y="109" on="0"/>
        <pt x="324" y="109" on="1"/>
        <pt x="372" y="109" on="0"/>
        <pt x="446" y="132" on="0"/>
        <pt x="484" y="149" on="1"/>
        <pt x="498" y="27" on="1"/>
        <pt x="465" y="8" on="0"/>
        <pt x="372" y="-14" on="0"/>
      </contour>
    </TTGlyph>
    <TTGlyph name="C.sc" xMin="53" yMin="-12" xMax="471" yMax="593">
      <contour>
        <pt x="315" y="-12" on="1"/>
        <pt x="258" y="-12" on="0"/>
        <pt x="162" y="31" on="0"/>
        <pt x="92" y="111" on="0"/>
        <pt x="53" y="223" on="0"/>
        <pt x="53" y="291" on="1"/>
        <pt x="53" y="359" on="0"/>
        <pt x="92" y="470" on="0"/>
        <pt x="162" y="550" on="0"/>
        <pt x="258" y="593" on="0"/>
        <pt x="315" y="593" on="1"/>
        <pt x="358" y="593" on="0"/>
        <pt x="440" y="575" on="0"/>
        <pt x="471" y="559" on="1"/>
        <pt x="458" y="442" on="1"/>
        <pt x="423" y="458" on="0"/>
        <pt x="358" y="474" on="0"/>
        <pt x="315" y="474" on="1"/>
        <pt x="247" y="474" on="0"/>
        <pt x="181" y="373" on="0"/>
        <pt x="181" y="291" on="1"/>
        <pt x="181" y="208" on="0"/>
        <pt x="247" y="107" on="0"/>
        <pt x="313" y="107" on="1"/>
        <pt x="358" y="107" on="0"/>
        <pt x="423" y="123" on="0"/>
        <pt x="458" y="139" on="1"/>
        <pt x="471" y="23" on="1"/>
        <pt x="442" y="6" on="0"/>
        <pt x="358" y="-12" on="0"/>
      </contour>
    </TTGlyph>
    <TTGlyph name="Ccaron" xMin="30" yMin="-14" xMax="498" yMax="950">
      <component glyphName="C" x="0" y="0" flags="0x204"/>
      <component glyphName="caron" x="70" y="200" flags="0x4"/>
    </TTGlyph>
    <TTGlyph name="Ccedilla" xMin="30" yMin="-194" xMax="498" yMax="714">
      <component glyphName="C" x="0" y="0" flags="0x204"/>
      <component glyphName="cedilla" x="74" y="0" flags="0x4"/>
    </TTGlyph>
    <TTGlyph name="D" xMin="66" yMin="0" xMax="588" yMax="700">
      <contour>
        <pt x="66" y="0" on="1"/>
        <pt x="66" y="700" on="1"/>
        <pt x="292" y="700" on="1"/>
        <pt x="356" y="700" on="0"/>
        <pt x="465" y="652" on="0"/>
        <pt x="544" y="562" on="0"/>
        <pt x="588" y="432" on="0"/>
        <pt x="588" y="350" on="1"/>
        <pt x="588" y="267" on="0"/>
        <pt x="544" y="137" on="0"/>
        <pt x="465" y="47" on="0"/>
        <pt x="356" y="0" on="0"/>
        <pt x="292" y="0" on="1"/>
      </contour>
      <contour>
        <pt x="188" y="577" on="1"/>
        <pt x="188" y="123" on="1"/>
        <pt x="292" y="123" on="1"/>
        <pt x="373" y="123" on="0"/>
        <pt x="454" y="244" on="0"/>
        <pt x="454" y="350" on="1"/>
        <pt x="454" y="456" on="0"/>
        <pt x="373" y="577" on="0"/>
        <pt x="292" y="577" on="1"/>
      </contour>
    </TTGlyph>
    <TTGlyph name="D.sc" xMin="85" yMin="0" xMax="551" yMax="581">
      <contour>
        <pt x="85" y="0" on="1"/>
        <pt x="85" y="581" on="1"/>
        <pt x="289" y="581" on="1"/>
        <pt x="346" y="581" on="0"/>
        <pt x="442" y="542" on="0"/>
        <pt x="512" y="467" on="0"/>
        <pt x="551" y="359" on="0"/>
        <pt x="551" y="291" on="1"/>
        <pt x="551" y="222" on="0"/>
        <pt x="512" y="114" on="0"/>
        <pt x="442" y="39" on="0"/>
        <pt x="346" y="0" on="0"/>
        <pt x="289" y="0" on="1"/>
      </contour>
      <contour>
        <pt x="202" y="462" on="1"/>
        <pt x="202" y="119" on="1"/>
        <pt x="289" y="119" on="1"/>
        <pt x="357" y="119" on="0"/>
        <pt x="423" y="209" on="0"/>
        <pt x="423" y="291" on="1"/>
        <pt x="423" y="372" on="0"/>
        <pt x="357" y="462" on="0"/>
        <pt x="289" y="462" on="1"/>
      </contour>
    </TTGlyph>
    <TTGlyph name="E" xMin="66" yMin="0" xMax="468" yMax="700">
      <contour>
        <pt x="66" y="0" on="1"/>
        <pt x="66" y="700" on="1"/>
        <pt x="459" y="700" on="1"/>
        <pt x="459" y="576" on="1"/>
        <pt x="192" y="576" on="1"/>
        <pt x="192" y="427" on="1"/>
        <pt x="397" y="427" on="1"/>
        <pt x="397" y="303" on="1"/>
        <pt x="192" y="303" on="1"/>
        <pt x="192" y="124" on="1"/>
        <pt x="468" y="124" on="1"/>
        <pt x="468" y="0" on="1"/>
      </contour>
    </TTGlyph>
    <TTGlyph name="E.sc" xMin="85" yMin="0" xMax="449" yMax="581">
      <contour>
        <pt x="85" y="0" on="1"/>
        <pt x="85" y="581" on="1"/>
        <pt x="441" y="581" on="1"/>
        <pt x="441" y="461" on="1"/>
        <pt x="206" y="461" on="1"/>
        <pt x="206" y="362" on="1"/>
        <pt x="385" y="362" on="1"/>
        <pt x="385" y="243" on="1"/>
        <pt x="206" y="243" on="1"/>
        <pt x="206" y="120" on="1"/>
        <pt x="449" y="120" on="1"/>
        <pt x="449" y="0" on="1"/>
      </contour>
    </TTGlyph>
    <TTGlyph name="Eacute" xMin="66" yMin="0" xMax="468" yMax="950">
      <component glyphName="E" x="0" y="0" flags="0x4"/>
      <component glyphName="acute" x="105" y="200" flags="0x4"/>
    </TTGlyph>
    <TTGlyph name="Ecircumflex" xMin="66" yMin="0" xMax="468" yMax="950">
      <component glyphName="E" x="0" y="0" flags="0x4"/>
      <component glyphName="circumflex" x="43" y="200" flags="0x4"/>
    </TTGlyph>
    <TTGlyph name="Edieresis" xMin="66" yMin="0" xMax="468" yMax="900">
      <component glyphName="E" x="0" y="0" flags="0x4"/>
      <component glyphName="dieresis" x="53" y="200" flags="0x4"/>
    </TTGlyph>
    <TTGlyph name="Egrave" xMin="66" yMin="0" xMax="468" yMax="950">
      <component glyphName="E" x="0" y="0" flags="0x4"/>
      <component glyphName="grave" x="105" y="200" flags="0x4"/>
    </TTGlyph>
    <TTGlyph name="Eth" xMin="-4" yMin="0" xMax="598" yMax="700">
      <contour>
        <pt x="73" y="0" on="1"/>
        <pt x="73" y="299" on="1"/>
        <pt x="-4" y="299" on="1"/>
        <pt x="-4" y="393" on="1"/>
        <pt x="73" y="393" on="1"/>
        <pt x="73" y="700" on="1"/>
        <pt x="301" y="700" on="1"/>
        <pt x="365" y="700" on="0"/>
        <pt x="474" y="652" on="0"/>
        <pt x="553" y="562" on="0"/>
        <pt x="598" y="432" on="0"/>
        <pt x="598" y="350" on="1"/>
        <pt x="598" y="267" on="0"/>
        <pt x="553" y="137" on="0"/>
        <pt x="474" y="47" on="0"/>
        <pt x="365" y="0" on="0"/>
        <pt x="301" y="0" on="1"/>
      </contour>
      <contour>
        <pt x="197" y="577" on="1"/>
        <pt x="197" y="393" on="1"/>
        <pt x="298" y="393" on="1"/>
        <pt x="298" y="299" on="1"/>
        <pt x="197" y="299" on="1"/>
        <pt x="197" y="123" on="1"/>
        <pt x="301" y="123" on="1"/>
        <pt x="382" y="123" on="0"/>
        <pt x="463" y="244" on="0"/>
        <pt x="463" y="350" on="1"/>
        <pt x="463" y="456" on="0"/>
        <pt x="382" y="577" on="0"/>
        <pt x="301" y="577" on="1"/>
      </contour>
    </TTGlyph>
    <TTGlyph name="Euro" xMin="24" yMin="17" xMax="557" yMax="683">
      <contour>
        <pt x="400" y="17" on="1"/>
        <pt x="312" y="17" on="0"/>
        <pt x="179" y="118" on="0"/>
        <pt x="149" y="209" on="1"/>
        <pt x="24" y="209" on="1"/>
        <pt x="52" y="295" on="1"/>
        <pt x="129" y="295" on="1"/>
        <pt x="127" y="307" on="0"/>
        <pt x="126" y="345" on="0"/>
        <pt x="126" y="358" on="1"/>
        <pt x="46" y="358" on="1"/>
        <pt x="75" y="445" on="1"/>
        <pt x="137" y="445" on="1"/>
        <pt x="148" y="500" on="0"/>
        <pt x="196" y="588" on="0"/>
        <pt x="265" y="650" on="0"/>
        <pt x="351" y="683" on="0"/>
        <pt x="400" y="683" on="1"/>
        <pt x="442" y="683" on="0"/>
        <pt x="524" y="665" on="0"/>
        <pt x="557" y="646" on="1"/>
        <pt x="545" y="533" on="1"/>
        <pt x="509" y="550" on="0"/>
        <pt x="442" y="573" on="0"/>
        <pt x="400" y="573" on="1"/>
        <pt x="341" y="573" on="0"/>
        <pt x="271" y="504" on="0"/>
        <pt x="257" y="445" on="1"/>
        <pt x="470" y="445" on="1"/>
        <pt x="440" y="358" on="1"/>
        <pt x="245" y="358" on="1"/>
        <pt x="245" y="344" on="0"/>
        <pt x="246" y="306" on="0"/>
        <pt x="248" y="295" on="1"/>
        <pt x="454" y="295" on="1"/>
        <pt x="426" y="209" on="1"/>
        <pt x="274" y="209" on="1"/>
        <pt x="291" y="170" on="0"/>
        <pt x="353" y="127" on="0"/>
        <pt x="400" y="127" on="1"/>
        <pt x="442" y="127" on="0"/>
        <pt x="509" y="150" on="0"/>
        <pt x="545" y="167" on="1"/>
        <pt x="557" y="54" on="1"/>
        <pt x="524" y="35" on="0"/>
        <pt x="442" y="17" on="0"/>
      </contour>
    </TTGlyph>
    <TTGlyph name="F" xMin="66" yMin="0" xMax="438" yMax="700">
      <contour>
        <pt x="188" y="576" on="1"/>
        <pt x="188" y="427" on="1"/>
        <pt x="381" y="427" on="1"/>
        <pt x="381" y="303" on="1"/>
        <pt x="188" y="303" on="1"/>
        <pt x="188" y="0" on="1"/>
        <pt x="66" y="0" on="1"/>
        <pt x="66" y="700" on="1"/>
        <pt x="438" y="700" on="1"/>
        <pt x="438" y="576" on="1"/>
      </contour>
    </TTGlyph>
    <TTGlyph name="F.sc" xMin="85" yMin="0" xMax="419" yMax="581">
      <contour>
        <pt x="202" y="461" on="1"/>
        <pt x="202" y="362" on="1"/>
        <pt x="369" y="362" on="1"/>
        <pt x="369" y="243" on="1"/>
        <pt x="202" y="243" on="1"/>
        <pt x="202" y="0" on="1"/>
        <pt x="85" y="0" on="1"/>
        <pt x="85" y="581" on="1"/>
        <pt x="419" y="581" on="1"/>
        <pt x="419" y="461" on="1"/>
      </contour>
    </TTGlyph>
    <TTGlyph name="G" xMin="30" yMin="-14" xMax="531" yMax="714">
      <contour>
        <pt x="324" y="-14" on="1"/>
        <pt x="260" y="-14" on="0"/>
        <pt x="152" y="38" on="0"/>
        <pt x="74" y="133" on="0"/>
        <pt x="30" y="268" on="0"/>
        <pt x="30" y="351" on="1"/>
        <pt x="30" y="433" on="0"/>
        <pt x="74" y="567" on="0"/>
        <pt x="153" y="662" on="0"/>
        <pt x="263" y="714" on="0"/>
        <pt x="329" y="714" on="1"/>
        <pt x="351" y="714" on="0"/>
        <pt x="401" y="708" on="0"/>
        <pt x="450" y="698" on="0"/>
        <pt x="495" y="682" on="0"/>
        <pt x="511" y="673" on="1"/>
        <pt x="497" y="551" on="1"/>
        <pt x="463" y="568" on="0"/>
        <pt x="372" y="591" on="0"/>
        <pt x="332" y="591" on="1"/>
        <pt x="288" y="591" on="0"/>
        <pt x="225" y="555" on="0"/>
        <pt x="184" y="491" on="0"/>
        <pt x="164" y="404" on="0"/>
        <pt x="164" y="353" on="1"/>
        <pt x="164" y="299" on="0"/>
        <pt x="186" y="210" on="0"/>
        <pt x="228" y="145" on="0"/>
        <pt x="291" y="109" on="0"/>
        <pt x="333" y="109" on="1"/>
        <pt x="352" y="109" on="0"/>
        <pt x="387" y="115" on="0"/>
        <pt x="408" y="120" on="1"/>
        <pt x="408" y="245" on="1"/>
        <pt x="354" y="245" on="1"/>
        <pt x="354" y="351" on="1"/>
        <pt x="531" y="351" on="1"/>
        <pt x="531" y="39" on="1"/>
        <pt x="515" y="28" on="0"/>
        <pt x="466" y="9" on="0"/>
        <pt x="409" y="-6" on="0"/>
        <pt x="350" y="-14" on="0"/>
      </contour>
    </TTGlyph>
    <TTGlyph name="G.sc" xMin="53" yMin="-12" xMax="500" yMax="593">
      <contour>
        <pt x="316" y="-12" on="1"/>
        <pt x="259" y="-12" on="0"/>
        <pt x="163" y="31" on="0"/>
        <pt x="92" y="111" on="0"/>
        <pt x="53" y="223" on="0"/>
        <pt x="53" y="291" on="1"/>
        <pt x="53" y="359" on="0"/>
        <pt x="92" y="470" on="0"/>
        <pt x="162" y="550" on="0"/>
        <pt x="260" y="593" on="0"/>
        <pt x="319" y="593" on="1"/>
        <pt x="338" y="593" on="0"/>
        <pt x="384" y="588" on="0"/>
        <pt x="428" y="579" on="0"/>
        <pt x="468" y="566" on="0"/>
        <pt x="482" y="558" on="1"/>
        <pt x="469" y="439" on="1"/>
        <pt x="440" y="454" on="0"/>
        <pt x="357" y="474" on="0"/>
        <pt x="322" y="474" on="1"/>
        <pt x="286" y="474" on="0"/>
        <pt x="232" y="447" on="0"/>
        <pt x="198" y="399" on="0"/>
        <pt x="181" y="333" on="0"/>
        <pt x="181" y="294" on="1"/>
        <pt x="181" y="252" on="0"/>
        <pt x="199" y="184" on="0"/>
        <pt x="235" y="134" on="0"/>
        <pt x="287" y="107" on="0"/>
        <pt x="321" y="107" on="1"/>
        <pt x="337" y="107" on="0"/>
        <pt x="365" y="111" on="0"/>
        <pt x="383" y="113" on="1"/>
        <pt x="383" y="194" on="1"/>
        <pt x="343" y="194" on="1"/>
        <pt x="343" y="291" on="1"/>
        <pt x="500" y="291" on="1"/>
        <pt x="500" y="32" on="1"/>
        <pt x="486" y="23" on="0"/>
        <pt x="443" y="7" on="0"/>
        <pt x="392" y="-5" on="0"/>
        <pt x="339" y="-12" on="0"/>
      </contour>
    </TTGlyph>
    <TTGlyph name="H" xMin="66" yMin="0" xMax="570" yMax="700">
      <contour>
        <pt x="448" y="0" on="1"/>
        <pt x="448" y="303" on="1"/>
        <pt x="188" y="303" on="1"/>
        <pt x="188" y="0" on="1"/>
        <pt x="66" y="0" on="1"/>
        <pt x="66" y="700" on="1"/>
        <pt x="188" y="700" on="1"/>
        <pt x="188" y="427" on="1"/>
        <pt x="448" y="427" on="1"/>
        <pt x="448" y="700" on="1"/>
        <pt x="570" y="700" on="1"/>
        <pt x="570" y="0" on="1"/>
      </contour>
    </TTGlyph>
    <TTGlyph name="H.sc" xMin="85" yMin="0" xMax="535" yMax="581">
      <contour>
        <pt x="417" y="0" on="1"/>
        <pt x="417" y="243" on="1"/>
        <pt x="202" y="243" on="1"/>
        <pt x="202" y="0" on="1"/>
        <pt x="85" y="0" on="1"/>
        <pt x="85" y="581" on="1"/>
        <pt x="202" y="581" on="1"/>
        <pt x="202" y="362" on="1"/>
        <pt x="417" y="362" on="1"/>
        <pt x="417" y="581" on="1"/>
        <pt x="535" y="581" on="1"/>
        <pt x="535" y="0" on="1"/>
      </contour>
    </TTGlyph>
    <TTGlyph name="I" xMin="60" yMin="0" xMax="182" yMax="700">
      <contour>
        <pt x="60" y="0" on="1"/>
        <pt x="60" y="700" on="1"/>
        <pt x="182" y="700" on="1"/>
        <pt x="182" y="0" on="1"/>
      </contour>
    </TTGlyph>
    <TTGlyph name="I.sc" xMin="76" yMin="0" xMax="193" yMax="581">
      <contour>
        <pt x="76" y="0" on="1"/>
        <pt x="76" y="581" on="1"/>
        <pt x="193" y="581" on="1"/>
        <pt x="193" y="0" on="1"/>
      </contour>
    </TTGlyph>
    <TTGlyph name="Iacute" xMin="42" yMin="0" xMax="203" yMax="950">
      <component glyphName="I" x="0" y="0" flags="0x204"/>
      <component glyphName="acute" x="-8" y="200" flags="0x4"/>
    </TTGlyph>
    <TTGlyph name="Icircumflex" xMin="-4" yMin="0" xMax="249" yMax="950">
      <component glyphName="I" x="0" y="0" flags="0x204"/>
      <component glyphName="circumflex" x="-69" y="200" flags="0x4"/>
    </TTGlyph>
    <TTGlyph name="Idieresis" xMin="16" yMin="0" xMax="229" yMax="900">
      <component glyphName="I" x="0" y="0" flags="0x204"/>
      <component glyphName="dieresis" x="-59" y="200" flags="0x4"/>
    </TTGlyph>
    <TTGlyph name="Igrave" xMin="42" yMin="0" xMax="203" yMax="950">
      <component glyphName="I" x="0" y="0" flags="0x204"/>
      <component glyphName="grave" x="-8" y="200" flags="0x4"/>
    </TTGlyph>
    <TTGlyph name="J" xMin="-4" yMin="-172" xMax="181" yMax="700">
      <contour>
        <pt x="5" y="-172" on="1"/>
        <pt x="-4" y="-76" on="1"/>
        <pt x="28" y="-76" on="1"/>
        <pt x="58" y="-76" on="0"/>
        <pt x="58" y="4" on="1"/>
        <pt x="58" y="700" on="1"/>
        <pt x="181" y="700" on="1"/>
        <pt x="181" y="-24" on="1"/>
        <pt x="181" y="-99" on="0"/>
        <pt x="103" y="-172" on="0"/>
        <pt x="43" y="-172" on="1"/>
      </contour>
    </TTGlyph>
    <TTGlyph name="J.sc" xMin="21" yMin="-143" xMax="190" yMax="581">
      <contour>
        <pt x="29" y="-143" on="1"/>
        <pt x="21" y="-45" on="1"/>
        <pt x="55" y="-45" on="1"/>
        <pt x="63" y="-45" on="0"/>
        <pt x="73" y="-20" on="0"/>
        <pt x="73" y="6" on="1"/>
        <pt x="73" y="581" on="1"/>
        <pt x="190" y="581" on="1"/>
        <pt x="190" y="-16" on="1"/>
        <pt x="190" y="-82" on="0"/>
        <pt x="119" y="-143" on="0"/>
        <pt x="68" y="-143" on="1"/>
      </contour>
    </TTGlyph>
    <TTGlyph name="K" xMin="54" yMin="0" xMax="537" yMax="700">
      <contour>
        <pt x="397" y="0" on="1"/>
        <pt x="193" y="370" on="1"/>
        <pt x="397" y="700" on="1"/>
        <pt x="537" y="700" on="1"/>
        <pt x="333" y="370" on="1"/>
        <pt x="537" y="0" on="1"/>
      </contour>
      <contour>
        <pt x="54" y="0" on="1"/>
        <pt x="54" y="700" on="1"/>
        <pt x="176" y="700" on="1"/>
        <pt x="176" y="0" on="1"/>
      </contour>
    </TTGlyph>
    <TTGlyph name="K.sc" xMin="66" yMin="0" xMax="508" yMax="581">
      <contour>
        <pt x="373" y="0" on="1"/>
        <pt x="195" y="307" on="1"/>
        <pt x="373" y="581" on="1"/>
        <pt x="508" y="581" on="1"/>
        <pt x="329" y="307" on="1"/>
        <pt x="508" y="0" on="1"/>
      </contour>
      <contour>
        <pt x="66" y="0" on="1"/>
        <pt x="66" y="581" on="1"/>
        <pt x="183" y="581" on="1"/>
        <pt x="183" y="0" on="1"/>
      </contour>
    </TTGlyph>
    <TTGlyph name="L" xMin="66" yMin="0" xMax="424" yMax="700">
      <contour>
        <pt x="66" y="0" on="1"/>
        <pt x="66" y="700" on="1"/>
        <pt x="188" y="700" on="1"/>
        <pt x="188" y="124" on="1"/>
        <pt x="424" y="124" on="1"/>
        <pt x="424" y="0" on="1"/>
      </contour>
    </TTGlyph>
    <TTGlyph name="L.sc" xMin="85" yMin="0" xMax="404" yMax="581">
      <contour>
        <pt x="85" y="0" on="1"/>
        <pt x="85" y="581" on="1"/>
        <pt x="202" y="581" on="1"/>
        <pt x="202" y="120" on="1"/>
        <pt x="404" y="120" on="1"/>
        <pt x="404" y="0" on="1"/>
      </contour>
    </TTGlyph>
    <TTGlyph name="M" xMin="36" yMin="0" xMax="687" yMax="700">
      <contour>
        <pt x="561" y="0" on="1"/>
        <pt x="508" y="469" on="1"/>
        <pt x="362" y="147" on="1"/>
        <pt x="216" y="468" on="1"/>
        <pt x="163" y="0" on="1"/>
        <pt x="36" y="0" on="1"/>
        <pt x="124" y="700" on="1"/>
        <pt x="223" y="700" on="1"/>
        <pt x="362" y="381" on="1"/>
        <pt x="500" y="700" on="1"/>
        <pt x="599" y="700" on="1"/>
        <pt x="687" y="0" on="1"/>
      </contour>
    </TTGlyph>
    <TTGlyph name="M.sc" xMin="54" yMin="0" xMax="643" yMax="581">
      <contour>
        <pt x="521" y="0" on="1"/>
        <pt x="479" y="362" on="1"/>
        <pt x="347" y="113" on="1"/>
        <pt x="217" y="361" on="1"/>
        <pt x="175" y="0" on="1"/>
        <pt x="54" y="0" on="1"/>
        <pt x="130" y="581" on="1"/>
        <pt x="224" y="581" on="1"/>
        <pt x="349" y="329" on="1"/>
        <pt x="471" y="581" on="1"/>
        <pt x="566" y="581" on="1"/>
        <pt x="643" y="0" on="1"/>
      </contour>
    </TTGlyph>
    <TTGlyph name="N" xMin="66" yMin="0" xMax="545" yMax="700">
      <contour>
        <pt x="446" y="0" on="1"/>
        <pt x="188" y="480" on="1"/>
        <pt x="188" y="0" on="1"/>
        <pt x="66" y="0" on="1"/>
        <pt x="66" y="700" on="1"/>
        <pt x="183" y="700" on="1"/>
        <pt x="423" y="248" on="1"/>
        <pt x="423" y="700" on="1"/>
        <pt x="545" y="700" on="1"/>
        <pt x="545" y="0" on="1"/>
      </contour>
    </TTGlyph>
    <TTGlyph name="N.sc" xMin="85" yMin="0" xMax="515" yMax="581">
      <contour>
        <pt x="420" y="0" on="1"/>
        <pt x="202" y="366" on="1"/>
        <pt x="202" y="0" on="1"/>
        <pt x="85" y="0" on="1"/>
        <pt x="85" y="581" on="1"/>
        <pt x="195" y="581" on="1"/>
        <pt x="399" y="238" on="1"/>
        <pt x="399" y="581" on="1"/>
        <pt x="515" y="581" on="1"/>
        <pt x="515" y="0" on="1"/>
      </contour>
    </TTGlyph>
    <TTGlyph name="Ntilde" xMin="66" yMin="0" xMax="545" yMax="921">
      <component glyphName="N" x="0" y="0" flags="0x204"/>
      <component glyphName="tilde" x="79" y="200" flags="0x4"/>
    </TTGlyph>
    <TTGlyph name="O" xMin="30" yMin="-14" xMax="623" yMax="714">
      <contour>
        <pt x="327" y="-14" on="1"/>
        <pt x="262" y="-14" on="0"/>
        <pt x="154" y="38" on="0"/>
        <pt x="74" y="133" on="0"/>
        <pt x="30" y="267" on="0"/>
        <pt x="30" y="350" on="1"/>
        <pt x="30" y="432" on="0"/>
        <pt x="74" y="567" on="0"/>
        <pt x="154" y="662" on="0"/>
        <pt x="262" y="714" on="0"/>
        <pt x="327" y="714" on="1"/>
        <pt x="391" y="714" on="0"/>
        <pt x="500" y="662" on="0"/>
        <pt x="579" y="567" on="0"/>
        <pt x="623" y="432" on="0"/>
        <pt x="623" y="350" on="1"/>
        <pt x="623" y="267" on="0"/>
        <pt x="579" y="133" on="0"/>
        <pt x="500" y="38" on="0"/>
        <pt x="391" y="-14" on="0"/>
      </contour>
      <contour>
        <pt x="327" y="591" on="1"/>
        <pt x="286" y="591" on="0"/>
        <pt x="225" y="555" on="0"/>
        <pt x="185" y="491" on="0"/>
        <pt x="164" y="402" on="0"/>
        <pt x="164" y="350" on="1"/>
        <pt x="164" y="297" on="0"/>
        <pt x="185" y="209" on="0"/>
        <pt x="225" y="145" on="0"/>
        <pt x="286" y="109" on="0"/>
        <pt x="327" y="109" on="1"/>
        <pt x="367" y="109" on="0"/>
        <pt x="429" y="145" on="0"/>
        <pt x="469" y="209" on="0"/>
        <pt x="490" y="297" on="0"/>
        <pt x="490" y="350" on="1"/>
        <pt x="490" y="402" on="0"/>
        <pt x="469" y="491" on="0"/>
        <pt x="429" y="555" on="0"/>
        <pt x="367" y="591" on="0"/>
      </contour>
    </TTGlyph>
    <TTGlyph name="O.sc" xMin="53" yMin="-12" xMax="582" yMax="593">
      <contour>
        <pt x="319" y="-12" on="1"/>
        <pt x="261" y="-12" on="0"/>
        <pt x="164" y="31" on="0"/>
        <pt x="93" y="111" on="0"/>
        <pt x="53" y="223" on="0"/>
        <pt x="53" y="291" on="1"/>
        <pt x="53" y="359" on="0"/>
        <pt x="93" y="470" on="0"/>
        <pt x="164" y="550" on="0"/>
        <pt x="261" y="593" on="0"/>
        <pt x="319" y="593" on="1"/>
        <pt x="376" y="593" on="0"/>
        <pt x="473" y="550" on="0"/>
        <pt x="543" y="470" on="0"/>
        <pt x="582" y="359" on="0"/>
        <pt x="582" y="291" on="1"/>
        <pt x="582" y="223" on="0"/>
        <pt x="543" y="111" on="0"/>
        <pt x="473" y="31" on="0"/>
        <pt x="376" y="-12" on="0"/>
      </contour>
      <contour>
        <pt x="319" y="474" on="1"/>
        <pt x="250" y="474" on="0"/>
        <pt x="181" y="373" on="0"/>
        <pt x="181" y="291" on="1"/>
        <pt x="181" y="208" on="0"/>
        <pt x="250" y="107" on="0"/>
        <pt x="319" y="107" on="1"/>
        <pt x="387" y="107" on="0"/>
        <pt x="454" y="208" on="0"/>
        <pt x="454" y="291" on="1"/>
        <pt x="454" y="373" on="0"/>
        <pt x="387" y="474" on="0"/>
      </contour>
    </TTGlyph>
    <TTGlyph name="OE" xMin="30" yMin="-14" xMax="885" yMax="714">
      <contour>
        <pt x="500" y="0" on="1"/>
        <pt x="500" y="55" on="1"/>
        <pt x="473" y="22" on="0"/>
        <pt x="383" y="-14" on="0"/>
        <pt x="329" y="-14" on="1"/>
        <pt x="264" y="-14" on="0"/>
        <pt x="154" y="38" on="0"/>
        <pt x="75" y="133" on="0"/>
        <pt x="30" y="267" on="0"/>
        <pt x="30" y="350" on="1"/>
        <pt x="30" y="432" on="0"/>
        <pt x="75" y="567" on="0"/>
        <pt x="154" y="662" on="0"/>
        <pt x="264" y="714" on="0"/>
        <pt x="329" y="714" on="1"/>
        <pt x="383" y="714" on="0"/>
        <pt x="473" y="678" on="0"/>
        <pt x="500" y="645" on="1"/>
        <pt x="500" y="700" on="1"/>
        <pt x="877" y="700" on="1"/>
        <pt x="877" y="576" on="1"/>
        <pt x="628" y="576" on="1"/>
        <pt x="628" y="427" on="1"/>
        <pt x="820" y="427" on="1"/>
        <pt x="820" y="303" on="1"/>
        <pt x="628" y="303" on="1"/>
        <pt x="628" y="124" on="1"/>
        <pt x="885" y="124" on="1"/>
        <pt x="885" y="0" on="1"/>
      </contour>
      <contour>
        <pt x="329" y="591" on="1"/>
        <pt x="288" y="591" on="0"/>
        <pt x="227" y="555" on="0"/>
        <pt x="186" y="491" on="0"/>
        <pt x="165" y="402" on="0"/>
        <pt x="165" y="350" on="1"/>
        <pt x="165" y="297" on="0"/>
        <pt x="186" y="209" on="0"/>
        <pt x="227" y="145" on="0"/>
        <pt x="288" y="109" on="0"/>
        <pt x="329" y="109" on="1"/>
        <pt x="370" y="109" on="0"/>
        <pt x="432" y="145" on="0"/>
        <pt x="473" y="209" on="0"/>
        <pt x="494" y="297" on="0"/>
        <pt x="494" y="350" on="1"/>
        <pt x="494" y="402" on="0"/>
        <pt x="473" y="491" on="0"/>
        <pt x="432" y="555" on="0"/>
        <pt x="370" y="591" on="0"/>
      </contour>
    </TTGlyph>
    <TTGlyph name="OE.sc" xMin="53" yMin="-12" xMax="817" yMax="593">
      <contour>
        <pt x="467" y="0" on="1"/>
        <pt x="467" y="33" on="1"/>
        <pt x="449" y="15" on="0"/>
        <pt x="370" y="-12" on="0"/>
        <pt x="322" y="-12" on="1"/>
        <pt x="264" y="-12" on="0"/>
        <pt x="165" y="31" on="0"/>
        <pt x="93" y="111" on="0"/>
        <pt x="53" y="223" on="0"/>
        <pt x="53" y="291" on="1"/>
        <pt x="53" y="359" on="0"/>
        <pt x="93" y="470" on="0"/>
        <pt x="165" y="550" on="0"/>
        <pt x="264" y="593" on="0"/>
        <pt x="322" y="593" on="1"/>
        <pt x="370" y="593" on="0"/>
        <pt x="449" y="566" on="0"/>
        <pt x="467" y="548" on="1"/>
        <pt x="467" y="581" on="1"/>
        <pt x="810" y="581" on="1"/>
        <pt x="810" y="461" on="1"/>
        <pt x="590" y="461" on="1"/>
        <pt x="590" y="362" on="1"/>
        <pt x="759" y="362" on="1"/>
        <pt x="759" y="243" on="1"/>
        <pt x="590" y="243" on="1"/>
        <pt x="590" y="120" on="1"/>
        <pt x="817" y="120" on="1"/>
        <pt x="817" y="0" on="1"/>
      </contour>
      <contour>
        <pt x="322" y="474" on="1"/>
        <pt x="253" y="474" on="0"/>
        <pt x="183" y="372" on="0"/>
        <pt x="183" y="291" on="1"/>
        <pt x="183" y="209" on="0"/>
        <pt x="253" y="107" on="0"/>
        <pt x="322" y="107" on="1"/>
        <pt x="391" y="107" on="0"/>
        <pt x="461" y="209" on="0"/>
        <pt x="461" y="291" on="1"/>
        <pt x="461" y="372" on="0"/>
        <pt x="391" y="474" on="0"/>
      </contour>
    </TTGlyph>
    <TTGlyph name="Oacute" xMin="30" yMin="-14" xMax="623" yMax="950">
      <component glyphName="O" x="0" y="0" flags="0x204"/>
      <component glyphName="acute" x="196" y="200" flags="0x4"/>
    </TTGlyph>
    <TTGlyph name="Ocircumflex" xMin="30" yMin="-14" xMax="623" yMax="950">
      <component glyphName="O" x="0" y="0" flags="0x204"/>
      <component glyphName="circumflex" x="135" y="200" flags="0x4"/>
    </TTGlyph>
    <TTGlyph name="Odieresis" xMin="30" yMin="-14" xMax="623" yMax="900">
      <component glyphName="O" x="0" y="0" flags="0x204"/>
      <component glyphName="dieresis" x="145" y="200" flags="0x4"/>
    </TTGlyph>
    <TTGlyph name="Ograve" xMin="30" yMin="-14" xMax="623" yMax="950">
      <component glyphName="O" x="0" y="0" flags="0x204"/>
      <component glyphName="grave" x="196" y="200" flags="0x4"/>
    </TTGlyph>
    <TTGlyph name="Oslash" xMin="30" yMin="-31" xMax="623" yMax="716">
      <contour>
        <pt x="327" y="-14" on="1"/>
        <pt x="289" y="-14" on="0"/>
        <pt x="220" y="5" on="0"/>
        <pt x="194" y="22" on="1"/>
        <pt x="165" y="-31" on="1"/>
        <pt x="35" y="-31" on="1"/>
        <pt x="108" y="87" on="1"/>
        <pt x="72" y="135" on="0"/>
        <pt x="30" y="268" on="0"/>
        <pt x="30" y="350" on="1"/>
        <pt x="30" y="432" on="0"/>
        <pt x="74" y="567" on="0"/>
        <pt x="154" y="662" on="0"/>
        <pt x="262" y="714" on="0"/>
        <pt x="327" y="714" on="1"/>
        <pt x="363" y="714" on="0"/>
        <pt x="429" y="697" on="0"/>
        <pt x="455" y="680" on="1"/>
        <pt x="474" y="716" on="1"/>
        <pt x="605" y="716" on="1"/>
        <pt x="543" y="615" on="1"/>
        <pt x="580" y="567" on="0"/>
        <pt x="623" y="433" on="0"/>
        <pt x="623" y="350" on="1"/>
        <pt x="623" y="267" on="0"/>
        <pt x="579" y="133" on="0"/>
        <pt x="500" y="38" on="0"/>
        <pt x="391" y="-14" on="0"/>
      </contour>
      <contour>
        <pt x="263" y="126" on="1"/>
        <pt x="272" y="118" on="0"/>
        <pt x="306" y="109" on="0"/>
        <pt x="327" y="109" on="1"/>
        <pt x="367" y="109" on="0"/>
        <pt x="429" y="145" on="0"/>
        <pt x="470" y="209" on="0"/>
        <pt x="491" y="297" on="0"/>
        <pt x="491" y="350" on="1"/>
        <pt x="491" y="395" on="0"/>
        <pt x="478" y="471" on="0"/>
        <pt x="467" y="502" on="1"/>
      </contour>
      <contour>
        <pt x="327" y="591" on="1"/>
        <pt x="286" y="591" on="0"/>
        <pt x="224" y="555" on="0"/>
        <pt x="183" y="491" on="0"/>
        <pt x="162" y="402" on="0"/>
        <pt x="162" y="350" on="1"/>
        <pt x="162" y="307" on="0"/>
        <pt x="174" y="232" on="0"/>
        <pt x="184" y="202" on="1"/>
        <pt x="386" y="575" on="1"/>
        <pt x="378" y="583" on="0"/>
        <pt x="346" y="591" on="0"/>
      </contour>
    </TTGlyph>
    <TTGlyph name="Otilde" xMin="30" yMin="-14" xMax="623" yMax="921">
      <component glyphName="O" x="0" y="0" flags="0x204"/>
      <component glyphName="tilde" x="101" y="200" flags="0x4"/>
    </TTGlyph>
    <TTGlyph name="P" xMin="60" yMin="0" xMax="499" yMax="700">
      <contour>
        <pt x="180" y="230" on="1"/>
        <pt x="180" y="0" on="1"/>
        <pt x="60" y="0" on="1"/>
        <pt x="60" y="700" on="1"/>
        <pt x="221" y="700" on="1"/>
        <pt x="292" y="700" on="0"/>
        <pt x="397" y="685" on="0"/>
        <pt x="466" y="637" on="0"/>
        <pt x="499" y="550" on="0"/>
        <pt x="499" y="478" on="1"/>
        <pt x="499" y="403" on="0"/>
        <pt x="454" y="306" on="0"/>
        <pt x="388" y="251" on="0"/>
        <pt x="311" y="230" on="0"/>
        <pt x="278" y="230" on="1"/>
      </contour>
      <contour>
        <pt x="180" y="593" on="1"/>
        <pt x="180" y="350" on="1"/>
        <pt x="264" y="350" on="1"/>
        <pt x="322" y="350" on="0"/>
        <pt x="376" y="406" on="0"/>
        <pt x="376" y="477" on="1"/>
        <pt x="376" y="507" on="0"/>
        <pt x="367" y="551" on="0"/>
        <pt x="343" y="579" on="0"/>
        <pt x="302" y="593" on="0"/>
        <pt x="270" y="593" on="1"/>
      </contour>
    </TTGlyph>
    <TTGlyph name="P.sc" xMin="76" yMin="0" xMax="476" yMax="581">
      <contour>
        <pt x="191" y="184" on="1"/>
        <pt x="191" y="0" on="1"/>
        <pt x="76" y="0" on="1"/>
        <pt x="76" y="581" on="1"/>
        <pt x="214" y="581" on="1"/>
        <pt x="283" y="581" on="0"/>
        <pt x="382" y="568" on="0"/>
        <pt x="446" y="529" on="0"/>
        <pt x="476" y="455" on="0"/>
        <pt x="476" y="395" on="1"/>
        <pt x="476" y="329" on="0"/>
        <pt x="434" y="247" on="0"/>
        <pt x="372" y="201" on="0"/>
        <pt x="301" y="184" on="0"/>
        <pt x="271" y="184" on="1"/>
      </contour>
      <contour>
        <pt x="191" y="482" on="1"/>
        <pt x="191" y="299" on="1"/>
        <pt x="258" y="299" on="1"/>
        <pt x="284" y="299" on="0"/>
        <pt x="322" y="307" on="0"/>
        <pt x="347" y="328" on="0"/>
        <pt x="359" y="365" on="0"/>
        <pt x="359" y="395" on="1"/>
        <pt x="359" y="417" on="0"/>
        <pt x="352" y="449" on="0"/>
        <pt x="332" y="471" on="0"/>
        <pt x="298" y="482" on="0"/>
        <pt x="270" y="482" on="1"/>
      </contour>
    </TTGlyph>
    <TTGlyph name="Q" xMin="30" yMin="-14" xMax="629" yMax="714">
      <contour>
        <pt x="556" y="-10" on="1"/>
        <pt x="495" y="47" on="1"/>
        <pt x="463" y="17" on="0"/>
        <pt x="377" y="-14" on="0"/>
        <pt x="327" y="-14" on="1"/>
        <pt x="262" y="-14" on="0"/>
        <pt x="154" y="38" on="0"/>
        <pt x="74" y="133" on="0"/>
        <pt x="30" y="267" on="0"/>
        <pt x="30" y="350" on="1"/>
        <pt x="30" y="432" on="0"/>
        <pt x="74" y="567" on="0"/>
        <pt x="154" y="662" on="0"/>
        <pt x="262" y="714" on="0"/>
        <pt x="327" y="714" on="1"/>
        <pt x="391" y="714" on="0"/>
        <pt x="500" y="662" on="0"/>
        <pt x="579" y="567" on="0"/>
        <pt x="623" y="432" on="0"/>
        <pt x="623" y="350" on="1"/>
        <pt x="623" y="285" on="0"/>
        <pt x="597" y="175" on="0"/>
        <pt x="575" y="130" on="1"/>
        <pt x="629" y="79" on="1"/>
      </contour>
      <contour>
        <pt x="327" y="591" on="1"/>
        <pt x="286" y="591" on="0"/>
        <pt x="225" y="555" on="0"/>
        <pt x="185" y="491" on="0"/>
        <pt x="164" y="402" on="0"/>
        <pt x="164" y="350" on="1"/>
        <pt x="164" y="297" on="0"/>
        <pt x="185" y="209" on="0"/>
        <pt x="225" y="145" on="0"/>
        <pt x="286" y="109" on="0"/>
        <pt x="327" y="109" on="1"/>
        <pt x="350" y="109" on="0"/>
        <pt x="380" y="121" on="0"/>
        <pt x="394" y="132" on="1"/>
        <pt x="329" y="203" on="1"/>
        <pt x="401" y="292" on="1"/>
        <pt x="470" y="218" on="1"/>
        <pt x="475" y="246" on="0"/>
        <pt x="486" y="312" on="0"/>
        <pt x="486" y="350" on="1"/>
        <pt x="486" y="402" on="0"/>
        <pt x="466" y="491" on="0"/>
        <pt x="427" y="555" on="0"/>
        <pt x="367" y="591" on="0"/>
      </contour>
    </TTGlyph>
    <TTGlyph name="Q.sc" xMin="53" yMin="-14" xMax="591" yMax="593">
      <contour>
        <pt x="521" y="-14" on="1"/>
        <pt x="465" y="35" on="1"/>
        <pt x="439" y="12" on="0"/>
        <pt x="363" y="-12" on="0"/>
        <pt x="319" y="-12" on="1"/>
        <pt x="261" y="-12" on="0"/>
        <pt x="164" y="31" on="0"/>
        <pt x="93" y="111" on="0"/>
        <pt x="53" y="223" on="0"/>
        <pt x="53" y="291" on="1"/>
        <pt x="53" y="359" on="0"/>
        <pt x="93" y="470" on="0"/>
        <pt x="164" y="550" on="0"/>
        <pt x="261" y="593" on="0"/>
        <pt x="319" y="593" on="1"/>
        <pt x="376" y="593" on="0"/>
        <pt x="473" y="550" on="0"/>
        <pt x="543" y="470" on="0"/>
        <pt x="582" y="359" on="0"/>
        <pt x="582" y="291" on="1"/>
        <pt x="582" y="237" on="0"/>
        <pt x="559" y="148" on="0"/>
        <pt x="542" y="116" on="1"/>
        <pt x="591" y="73" on="1"/>
      </contour>
      <contour>
        <pt x="319" y="474" on="1"/>
        <pt x="250" y="474" on="0"/>
        <pt x="181" y="373" on="0"/>
        <pt x="181" y="291" on="1"/>
        <pt x="181" y="208" on="0"/>
        <pt x="250" y="107" on="0"/>
        <pt x="319" y="107" on="1"/>
        <pt x="339" y="107" on="0"/>
        <pt x="357" y="115" on="0"/>
        <pt x="365" y="119" on="1"/>
        <pt x="311" y="172" on="1"/>
        <pt x="382" y="258" on="1"/>
        <pt x="440" y="205" on="1"/>
        <pt x="440" y="218" on="0"/>
        <pt x="449" y="262" on="0"/>
        <pt x="449" y="291" on="1"/>
        <pt x="449" y="373" on="0"/>
        <pt x="386" y="474" on="0"/>
      </contour>
    </TTGlyph>
    <TTGlyph name="R" xMin="61" yMin="0" xMax="534" yMax="700">
      <contour>
        <pt x="408" y="0" on="1"/>
        <pt x="287" y="260" on="1"/>
        <pt x="181" y="260" on="1"/>
        <pt x="181" y="0" on="1"/>
        <pt x="61" y="0" on="1"/>
        <pt x="61" y="700" on="1"/>
        <pt x="292" y="700" on="1"/>
        <pt x="334" y="700" on="0"/>
        <pt x="409" y="680" on="0"/>
        <pt x="466" y="632" on="0"/>
        <pt x="499" y="555" on="0"/>
        <pt x="499" y="498" on="1"/>
        <pt x="499" y="457" on="0"/>
        <pt x="482" y="395" on="0"/>
        <pt x="455" y="347" on="0"/>
        <pt x="419" y="309" on="0"/>
        <pt x="400" y="294" on="1"/>
        <pt x="534" y="0" on="1"/>
      </contour>
      <contour>
        <pt x="181" y="593" on="1"/>
        <pt x="181" y="380" on="1"/>
        <pt x="241" y="380" on="1"/>
        <pt x="287" y="380" on="0"/>
        <pt x="340" y="396" on="0"/>
        <pt x="365" y="425" on="0"/>
        <pt x="371" y="465" on="0"/>
        <pt x="371" y="489" on="1"/>
        <pt x="371" y="513" on="0"/>
        <pt x="363" y="552" on="0"/>
        <pt x="339" y="579" on="0"/>
        <pt x="294" y="593" on="0"/>
        <pt x="257" y="593" on="1"/>
      </contour>
    </TTGlyph>
    <TTGlyph name="R.sc" xMin="78" yMin="0" xMax="508" yMax="581">
      <contour>
        <pt x="388" y="0" on="1"/>
        <pt x="283" y="210" on="1"/>
        <pt x="193" y="210" on="1"/>
        <pt x="193" y="0" on="1"/>
        <pt x="78" y="0" on="1"/>
        <pt x="78" y="581" on="1"/>
        <pt x="292" y="581" on="1"/>
        <pt x="328" y="581" on="0"/>
        <pt x="395" y="564" on="0"/>
        <pt x="445" y="525" on="0"/>
        <pt x="475" y="461" on="0"/>
        <pt x="475" y="415" on="1"/>
        <pt x="475" y="377" on="0"/>
        <pt x="460" y="324" on="0"/>
        <pt x="436" y="285" on="0"/>
        <pt x="405" y="255" on="0"/>
        <pt x="389" y="242" on="1"/>
        <pt x="508" y="0" on="1"/>
      </contour>
      <contour>
        <pt x="193" y="479" on="1"/>
        <pt x="193" y="322" on="1"/>
        <pt x="232" y="322" on="1"/>
        <pt x="277" y="322" on="0"/>
        <pt x="325" y="337" on="0"/>
        <pt x="348" y="361" on="0"/>
        <pt x="352" y="389" on="0"/>
        <pt x="352" y="403" on="1"/>
        <pt x="352" y="421" on="0"/>
        <pt x="347" y="449" on="0"/>
        <pt x="328" y="468" on="0"/>
        <pt x="288" y="479" on="0"/>
        <pt x="253" y="479" on="1"/>
      </contour>
    </TTGlyph>
    <TTGlyph name="S" xMin="41" yMin="-14" xMax="474" yMax="714">
      <contour>
        <pt x="243" y="-14" on="1"/>
        <pt x="168" y="-14" on="0"/>
        <pt x="64" y="17" on="0"/>
        <pt x="41" y="37" on="1"/>
        <pt x="55" y="181" on="1"/>
        <pt x="64" y="168" on="0"/>
        <pt x="99" y="142" on="0"/>
        <pt x="147" y="122" on="0"/>
        <pt x="206" y="109" on="0"/>
        <pt x="239" y="109" on="1"/>
        <pt x="285" y="109" on="0"/>
        <pt x="337" y="141" on="0"/>
        <pt x="337" y="185" on="1"/>
        <pt x="337" y="212" on="0"/>
        <pt x="317" y="251" on="0"/>
        <pt x="284" y="279" on="0"/>
        <pt x="241" y="300" on="0"/>
        <pt x="218" y="310" on="1"/>
        <pt x="185" y="325" on="0"/>
        <pt x="123" y="356" on="0"/>
        <pt x="76" y="399" on="0"/>
        <pt x="48" y="462" on="0"/>
        <pt x="48" y="508" on="1"/>
        <pt x="48" y="541" on="0"/>
        <pt x="66" y="614" on="0"/>
        <pt x="115" y="674" on="0"/>
        <pt x="200" y="714" on="0"/>
        <pt x="267" y="714" on="1"/>
        <pt x="301" y="714" on="0"/>
        <pt x="362" y="704" on="0"/>
        <pt x="413" y="688" on="0"/>
        <pt x="450" y="669" on="0"/>
        <pt x="459" y="660" on="1"/>
        <pt x="448" y="529" on="1"/>
        <pt x="402" y="560" on="0"/>
        <pt x="314" y="592" on="0"/>
        <pt x="275" y="592" on="1"/>
        <pt x="260" y="592" on="0"/>
        <pt x="223" y="586" on="0"/>
        <pt x="191" y="569" on="0"/>
        <pt x="169" y="540" on="0"/>
        <pt x="169" y="517" on="1"/>
        <pt x="169" y="496" on="0"/>
        <pt x="187" y="467" on="0"/>
        <pt x="219" y="444" on="0"/>
        <pt x="262" y="426" on="0"/>
        <pt x="287" y="416" on="1"/>
        <pt x="334" y="398" on="0"/>
        <pt x="404" y="362" on="0"/>
        <pt x="451" y="310" on="0"/>
        <pt x="474" y="234" on="0"/>
        <pt x="474" y="174" on="1"/>
        <pt x="474" y="150" on="0"/>
        <pt x="464" y="85" on="0"/>
        <pt x="419" y="27" on="0"/>
        <pt x="326" y="-14" on="0"/>
      </contour>
    </TTGlyph>
    <TTGlyph name="S.sc" xMin="55" yMin="-12" xMax="448" yMax="593">
      <contour>
        <pt x="242" y="-12" on="1"/>
        <pt x="179" y="-12" on="0"/>
        <pt x="85" y="16" on="0"/>
        <pt x="62" y="33" on="1"/>
        <pt x="74" y="170" on="1"/>
        <pt x="93" y="146" on="0"/>
        <pt x="180" y="107" on="0"/>
        <pt x="245" y="107" on="1"/>
        <pt x="283" y="107" on="0"/>
        <pt x="317" y="127" on="0"/>
        <pt x="317" y="156" on="1"/>
        <pt x="317" y="177" on="0"/>
        <pt x="297" y="206" on="0"/>
        <pt x="264" y="228" on="0"/>
        <pt x="222" y="244" on="0"/>
        <pt x="201" y="252" on="1"/>
        <pt x="176" y="261" on="0"/>
        <pt x="124" y="285" on="0"/>
        <pt x="82" y="321" on="0"/>
        <pt x="55" y="375" on="0"/>
        <pt x="55" y="415" on="1"/>
        <pt x="55" y="445" on="0"/>
        <pt x="76" y="508" on="0"/>
        <pt x="122" y="560" on="0"/>
        <pt x="196" y="593" on="0"/>
        <pt x="250" y="593" on="1"/>
        <pt x="278" y="593" on="0"/>
        <pt x="333" y="584" on="0"/>
        <pt x="379" y="570" on="0"/>
        <pt x="414" y="553" on="0"/>
        <pt x="423" y="545" on="1"/>
        <pt x="411" y="423" on="1"/>
        <pt x="365" y="451" on="0"/>
        <pt x="289" y="475" on="0"/>
        <pt x="251" y="475" on="1"/>
        <pt x="239" y="475" on="0"/>
        <pt x="211" y="472" on="0"/>
        <pt x="187" y="463" on="0"/>
        <pt x="170" y="443" on="0"/>
        <pt x="170" y="427" on="1"/>
        <pt x="170" y="411" on="0"/>
        <pt x="187" y="388" on="0"/>
        <pt x="215" y="370" on="0"/>
        <pt x="253" y="357" on="0"/>
        <pt x="273" y="350" on="1"/>
        <pt x="301" y="341" on="0"/>
        <pt x="363" y="316" on="0"/>
        <pt x="414" y="274" on="0"/>
        <pt x="448" y="210" on="0"/>
        <pt x="448" y="162" on="1"/>
        <pt x="448" y="136" on="0"/>
        <pt x="433" y="75" on="0"/>
        <pt x="389" y="23" on="0"/>
        <pt x="308" y="-12" on="0"/>
      </contour>
    </TTGlyph>
    <TTGlyph name="Scaron" xMin="41" yMin="-14" xMax="474" yMax="950">
      <component glyphName="S" x="0" y="0" flags="0x204"/>
      <component glyphName="caron" x="58" y="200" flags="0x4"/>
    </TTGlyph>
    <TTGlyph name="T" xMin="9" yMin="0" xMax="467" yMax="700">
      <contour>
        <pt x="299" y="576" on="1"/>
        <pt x="299" y="0" on="1"/>
        <pt x="177" y="0" on="1"/>
        <pt x="177" y="576" on="1"/>
        <pt x="9" y="576" on="1"/>
        <pt x="9" y="700" on="1"/>
        <pt x="467" y="700" on="1"/>
        <pt x="467" y="576" on="1"/>
      </contour>
    </TTGlyph>
    <TTGlyph name="T.sc" xMin="32" yMin="0" xMax="446" yMax="581">
      <contour>
        <pt x="298" y="461" on="1"/>
        <pt x="298" y="0" on="1"/>
        <pt x="180" y="0" on="1"/>
        <pt x="180" y="461" on="1"/>
        <pt x="32" y="461" on="1"/>
        <pt x="32" y="581" on="1"/>
        <pt x="446" y="581" on="1"/>
        <pt x="446" y="461" on="1"/>
      </contour>
    </TTGlyph>
    <TTGlyph name="Thorn" xMin="60" yMin="0" xMax="499" yMax="700">
      <contour>
        <pt x="180" y="114" on="1"/>
        <pt x="180" y="0" on="1"/>
        <pt x="60" y="0" on="1"/>
        <pt x="60" y="700" on="1"/>
        <pt x="180" y="700" on="1"/>
        <pt x="180" y="584" on="1"/>
        <pt x="221" y="584" on="1"/>
        <pt x="292" y="584" on="0"/>
        <pt x="397" y="569" on="0"/>
        <pt x="466" y="521" on="0"/>
        <pt x="499" y="434" on="0"/>
        <pt x="499" y="362" on="1"/>
        <pt x="499" y="287" on="0"/>
        <pt x="454" y="190" on="0"/>
        <pt x="388" y="135" on="0"/>
        <pt x="311" y="114" on="0"/>
        <pt x="278" y="114" on="1"/>
      </contour>
      <contour>
        <pt x="180" y="477" on="1"/>
        <pt x="180" y="234" on="1"/>
        <pt x="264" y="234" on="1"/>
        <pt x="322" y="234" on="0"/>
        <pt x="376" y="290" on="0"/>
        <pt x="376" y="361" on="1"/>
        <pt x="376" y="391" on="0"/>
        <pt x="367" y="435" on="0"/>
        <pt x="343" y="463" on="0"/>
        <pt x="302" y="477" on="0"/>
        <pt x="270" y="477" on="1"/>
      </contour>
    </TTGlyph>
    <TTGlyph name="U" xMin="59" yMin="-14" xMax="558" yMax="700">
      <contour>
        <pt x="308" y="-14" on="1"/>
        <pt x="245" y="-14" on="0"/>
        <pt x="151" y="31" on="0"/>
        <pt x="89" y="113" on="0"/>
        <pt x="59" y="229" on="0"/>
        <pt x="59" y="300" on="1"/>
        <pt x="59" y="700" on="1"/>
        <pt x="181" y="700" on="1"/>
        <pt x="181" y="343" on="1"/>
        <pt x="181" y="294" on="0"/>
        <pt x="191" y="209" on="0"/>
        <pt x="220" y="146" on="0"/>
        <pt x="269" y="109" on="0"/>
        <pt x="308" y="109" on="1"/>
        <pt x="347" y="109" on="0"/>
        <pt x="397" y="146" on="0"/>
        <pt x="425" y="209" on="0"/>
        <pt x="435" y="294" on="0"/>
        <pt x="435" y="343" on="1"/>
        <pt x="435" y="700" on="1"/>
        <pt x="558" y="700" on="1"/>
        <pt x="558" y="300" on="1"/>
        <pt x="558" y="229" on="0"/>
        <pt x="528" y="113" on="0"/>
        <pt x="466" y="31" on="0"/>
        <pt x="372" y="-14" on="0"/>
      </contour>
    </TTGlyph>
    <TTGlyph name="U.sc" xMin="79" yMin="-12" xMax="524" yMax="581">
      <contour>
        <pt x="301" y="-12" on="1"/>
        <pt x="245" y="-12" on="0"/>
        <pt x="161" y="26" on="0"/>
        <pt x="106" y="95" on="0"/>
        <pt x="79" y="191" on="0"/>
        <pt x="79" y="250" on="1"/>
        <pt x="79" y="581" on="1"/>
        <pt x="196" y="581" on="1"/>
        <pt x="196" y="285" on="1"/>
        <pt x="196" y="246" on="0"/>
        <pt x="205" y="180" on="0"/>
        <pt x="228" y="133" on="0"/>
        <pt x="269" y="107" on="0"/>
        <pt x="301" y="107" on="1"/>
        <pt x="334" y="107" on="0"/>
        <pt x="375" y="133" on="0"/>
        <pt x="398" y="180" on="0"/>
        <pt x="407" y="246" on="0"/>
        <pt x="407" y="285" on="1"/>
        <pt x="407" y="581" on="1"/>
        <pt x="524" y="581" on="1"/>
        <pt x="524" y="250" on="1"/>
        <pt x="524" y="191" on="0"/>
        <pt x="497" y="95" on="0"/>
        <pt x="442" y="26" on="0"/>
        <pt x="358" y="-12" on="0"/>
      </contour>
    </TTGlyph>
    <TTGlyph name="Uacute" xMin="59" yMin="-14" xMax="558" yMax="950">
      <component glyphName="U" x="0" y="0" flags="0x204"/>
      <component glyphName="acute" x="178" y="200" flags="0x4"/>
    </TTGlyph>
    <TTGlyph name="Ucircumflex" xMin="59" yMin="-14" xMax="558" yMax="950">
      <component glyphName="U" x="0" y="0" flags="0x204"/>
      <component glyphName="circumflex" x="117" y="200" flags="0x4"/>
    </TTGlyph>
    <TTGlyph name="Udieresis" xMin="59" yMin="-14" xMax="558" yMax="900">
      <component glyphName="U" x="0" y="0" flags="0x204"/>
      <component glyphName="dieresis" x="127" y="200" flags="0x4"/>
    </TTGlyph>
    <TTGlyph name="Ugrave" xMin="59" yMin="-14" xMax="558" yMax="950">
      <component glyphName="U" x="0" y="0" flags="0x204"/>
      <component glyphName="grave" x="178" y="200" flags="0x4"/>
    </TTGlyph>
    <TTGlyph name="V" xMin="-3" yMin="0" xMax="566" yMax="700">
      <contour>
        <pt x="363" y="0" on="1"/>
        <pt x="208" y="0" on="1"/>
        <pt x="-3" y="700" on="1"/>
        <pt x="124" y="700" on="1"/>
        <pt x="284" y="169" on="1"/>
        <pt x="441" y="700" on="1"/>
        <pt x="566" y="700" on="1"/>
      </contour>
    </TTGlyph>
    <TTGlyph name="V.sc" xMin="21" yMin="0" xMax="533" yMax="581">
      <contour>
        <pt x="357" y="0" on="1"/>
        <pt x="206" y="0" on="1"/>
        <pt x="21" y="581" on="1"/>
        <pt x="142" y="581" on="1"/>
        <pt x="280" y="167" on="1"/>
        <pt x="414" y="581" on="1"/>
        <pt x="533" y="581" on="1"/>
      </contour>
    </TTGlyph>
    <TTGlyph name="W" xMin="9" yMin="0" xMax="823" yMax="700">
      <contour>
        <pt x="647" y="0" on="1"/>
        <pt x="547" y="0" on="1"/>
        <pt x="416" y="467" on="1"/>
        <pt x="289" y="0" on="1"/>
        <pt x="179" y="0" on="1"/>
        <pt x="9" y="700" on="1"/>
        <pt x="136" y="700" on="1"/>
        <pt x="250" y="203" on="1"/>
        <pt x="378" y="700" on="1"/>
        <pt x="455" y="700" on="1"/>
        <pt x="589" y="216" on="1"/>
        <pt x="697" y="700" on="1"/>
        <pt x="823" y="700" on="1"/>
      </contour>
    </TTGlyph>
    <TTGlyph name="W.sc" xMin="35" yMin="0" xMax="762" yMax="587">
      <contour>
        <pt x="605" y="0" on="1"/>
        <pt x="514" y="0" on="1"/>
        <pt x="399" y="340" on="1"/>
        <pt x="289" y="0" on="1"/>
        <pt x="187" y="0" on="1"/>
        <pt x="35" y="581" on="1"/>
        <pt x="156" y="581" on="1"/>
        <pt x="255" y="211" on="1"/>
        <pt x="364" y="587" on="1"/>
        <pt x="433" y="587" on="1"/>
        <pt x="550" y="227" on="1"/>
        <pt x="642" y="581" on="1"/>
        <pt x="762" y="581" on="1"/>
      </contour>
    </TTGlyph>
    <TTGlyph name="X" xMin="-16" yMin="0" xMax="543" yMax="700">
      <contour>
        <pt x="397" y="0" on="1"/>
        <pt x="263" y="257" on="1"/>
        <pt x="128" y="0" on="1"/>
        <pt x="-16" y="0" on="1"/>
        <pt x="201" y="349" on="1"/>
        <pt x="-2" y="700" on="1"/>
        <pt x="139" y="700" on="1"/>
        <pt x="272" y="454" on="1"/>
        <pt x="382" y="700" on="1"/>
        <pt x="526" y="700" on="1"/>
        <pt x="335" y="363" on="1"/>
        <pt x="543" y="0" on="1"/>
      </contour>
    </TTGlyph>
    <TTGlyph name="X.sc" xMin="6" yMin="0" xMax="515" yMax="581">
      <contour>
        <pt x="374" y="0" on="1"/>
        <pt x="262" y="200" on="1"/>
        <pt x="145" y="0" on="1"/>
        <pt x="6" y="0" on="1"/>
        <pt x="202" y="290" on="1"/>
        <pt x="21" y="581" on="1"/>
        <pt x="157" y="581" on="1"/>
        <pt x="270" y="389" on="1"/>
        <pt x="358" y="581" on="1"/>
        <pt x="497" y="581" on="1"/>
        <pt x="331" y="302" on="1"/>
        <pt x="515" y="0" on="1"/>
      </contour>
    </TTGlyph>
    <TTGlyph name="Y" xMin="-19" yMin="0" xMax="522" yMax="700">
      <contour>
        <pt x="312" y="310" on="1"/>
        <pt x="312" y="0" on="1"/>
        <pt x="191" y="0" on="1"/>
        <pt x="191" y="310" on="1"/>
        <pt x="-19" y="700" on="1"/>
        <pt x="111" y="700" on="1"/>
        <pt x="252" y="424" on="1"/>
        <pt x="392" y="700" on="1"/>
        <pt x="522" y="700" on="1"/>
      </contour>
    </TTGlyph>
    <TTGlyph name="Y.sc" xMin="4" yMin="0" xMax="496" yMax="581">
      <contour>
        <pt x="307" y="251" on="1"/>
        <pt x="307" y="0" on="1"/>
        <pt x="193" y="0" on="1"/>
        <pt x="193" y="251" on="1"/>
        <pt x="4" y="581" on="1"/>
        <pt x="129" y="581" on="1"/>
        <pt x="251" y="359" on="1"/>
        <pt x="372" y="581" on="1"/>
        <pt x="496" y="581" on="1"/>
      </contour>
    </TTGlyph>
    <TTGlyph name="Yacute" xMin="-19" yMin="0" xMax="522" yMax="950">
      <component glyphName="Y" x="0" y="0" flags="0x204"/>
      <component glyphName="acute" x="116" y="200" flags="0x4"/>
    </TTGlyph>
    <TTGlyph name="Ydieresis" xMin="-19" yMin="0" xMax="522" yMax="900">
      <component glyphName="Y" x="0" y="0" flags="0x204"/>
      <component glyphName="dieresis" x="66" y="200" flags="0x4"/>
    </TTGlyph>
    <TTGlyph name="Z" xMin="7" yMin="0" xMax="465" yMax="700">
      <contour>
        <pt x="209" y="124" on="1"/>
        <pt x="427" y="124" on="1"/>
        <pt x="427" y="0" on="1"/>
        <pt x="7" y="0" on="1"/>
        <pt x="264" y="576" on="1"/>
        <pt x="46" y="576" on="1"/>
        <pt x="46" y="700" on="1"/>
        <pt x="465" y="700" on="1"/>
      </contour>
    </TTGlyph>
    <TTGlyph name="Z.sc" xMin="32" yMin="0" xMax="441" yMax="581">
      <contour>
        <pt x="225" y="120" on="1"/>
        <pt x="406" y="120" on="1"/>
        <pt x="406" y="0" on="1"/>
        <pt x="32" y="0" on="1"/>
        <pt x="249" y="461" on="1"/>
        <pt x="67" y="461" on="1"/>
        <pt x="67" y="581" on="1"/>
        <pt x="441" y="581" on="1"/>
      </contour>
    </TTGlyph>
    <TTGlyph name="Zcaron" xMin="7" yMin="0" xMax="465" yMax="950">
      <component glyphName="Z" x="0" y="0" flags="0x204"/>
      <component glyphName="caron" x="40" y="200" flags="0x4"/>
    </TTGlyph>
    <TTGlyph name="a" xMin="12" yMin="-10" xMax="419" yMax="508">
      <contour>
        <pt x="411" y="-10" on="1"/>
        <pt x="358" y="-10" on="1"/>
        <pt x="331" y="-10" on="0"/>
        <pt x="279" y="22" on="0"/>
        <pt x="267" y="48" on="1"/>
        <pt x="247" y="20" on="0"/>
        <pt x="172" y="-10" on="0"/>
        <pt x="134" y="-10" on="1"/>
        <pt x="110" y="-10" on="0"/>
        <pt x="66" y="10" on="0"/>
        <pt x="32" y="49" on="0"/>
        <pt x="12" y="104" on="0"/>
        <pt x="12" y="140" on="1"/>
        <pt x="12" y="193" on="0"/>
        <pt x="67" y="261" on="0"/>
        <pt x="143" y="301" on="0"/>
        <pt x="223" y="318" on="0"/>
        <pt x="249" y="319" on="1"/>
        <pt x="247" y="362" on="0"/>
        <pt x="218" y="401" on="0"/>
        <pt x="178" y="401" on="1"/>
        <pt x="146" y="401" on="0"/>
        <pt x="92" y="383" on="0"/>
        <pt x="57" y="363" on="1"/>
        <pt x="49" y="464" on="1"/>
        <pt x="94" y="486" on="0"/>
        <pt x="172" y="508" on="0"/>
        <pt x="211" y="508" on="1"/>
        <pt x="245" y="508" on="0"/>
        <pt x="304" y="486" on="0"/>
        <pt x="346" y="438" on="0"/>
        <pt x="370" y="361" on="0"/>
        <pt x="370" y="307" on="1"/>
        <pt x="370" y="172" on="1"/>
        <pt x="370" y="144" on="0"/>
        <pt x="373" y="112" on="0"/>
        <pt x="381" y="96" on="0"/>
        <pt x="394" y="92" on="0"/>
        <pt x="403" y="92" on="1"/>
        <pt x="419" y="92" on="1"/>
      </contour>
      <contour>
        <pt x="250" y="235" on="1"/>
        <pt x="238" y="234" on="0"/>
        <pt x="200" y="222" on="0"/>
        <pt x="164" y="200" on="0"/>
        <pt x="138" y="167" on="0"/>
        <pt x="138" y="145" on="1"/>
        <pt x="138" y="114" on="0"/>
        <pt x="161" y="85" on="0"/>
        <pt x="192" y="85" on="1"/>
        <pt x="199" y="85" on="0"/>
        <pt x="234" y="102" on="0"/>
        <pt x="250" y="121" on="1"/>
      </contour>
    </TTGlyph>
    <TTGlyph name="aacute" xMin="12" yMin="-10" xMax="419" yMax="750">
      <component glyphName="a" x="0" y="0" flags="0x4"/>
      <component glyphName="acute" x="83" y="0" flags="0x4"/>
    </TTGlyph>
    <TTGlyph name="acircumflex" xMin="12" yMin="-10" xMax="419" yMax="750">
      <component glyphName="a" x="0" y="0" flags="0x4"/>
      <component glyphName="circumflex" x="23" y="0" flags="0x4"/>
    </TTGlyph>
    <TTGlyph name="acute" xMin="50" yMin="585" xMax="211" yMax="750">
      <contour>
        <pt x="50" y="585" on="1"/>
        <pt x="50" y="659" on="1"/>
        <pt x="211" y="750" on="1"/>
        <pt x="211" y="646" on="1"/>
      </contour>
    </TTGlyph>
    <TTGlyph name="adieresis" xMin="12" yMin="-10" xMax="419" yMax="700">
      <component glyphName="a" x="0" y="0" flags="0x4"/>
      <component glyphName="dieresis" x="33" y="0" flags="0x4"/>
    </TTGlyph>
    <TTGlyph name="ae" xMin="17" yMin="-15" xMax="659" yMax="508">
      <contour>
        <pt x="385" y="223" on="1"/>
        <pt x="398" y="153" on="0"/>
        <pt x="465" y="92" on="0"/>
        <pt x="499" y="92" on="1"/>
        <pt x="514" y="92" on="0"/>
        <pt x="553" y="99" on="0"/>
        <pt x="593" y="110" on="0"/>
        <pt x="629" y="125" on="0"/>
        <pt x="640" y="133" on="1"/>
        <pt x="640" y="28" on="1"/>
        <pt x="619" y="13" on="0"/>
        <pt x="543" y="-10" on="0"/>
        <pt x="497" y="-10" on="1"/>
        <pt x="429" y="-10" on="0"/>
        <pt x="343" y="42" on="0"/>
        <pt x="325" y="84" on="1"/>
        <pt x="310" y="63" on="0"/>
        <pt x="278" y="27" on="0"/>
        <pt x="240" y="0" on="0"/>
        <pt x="193" y="-15" on="0"/>
        <pt x="163" y="-15" on="1"/>
        <pt x="94" y="-15" on="0"/>
        <pt x="17" y="61" on="0"/>
        <pt x="17" y="127" on="1"/>
        <pt x="17" y="165" on="0"/>
        <pt x="41" y="222" on="0"/>
        <pt x="81" y="263" on="0"/>
        <pt x="131" y="290" on="0"/>
        <pt x="183" y="305" on="0"/>
        <pt x="233" y="313" on="0"/>
        <pt x="252" y="314" on="1"/>
        <pt x="252" y="360" on="0"/>
        <pt x="225" y="401" on="0"/>
        <pt x="184" y="401" on="1"/>
        <pt x="154" y="401" on="0"/>
        <pt x="98" y="383" on="0"/>
        <pt x="61" y="363" on="1"/>
        <pt x="50" y="464" on="1"/>
        <pt x="130" y="508" on="0"/>
        <pt x="215" y="508" on="1"/>
        <pt x="244" y="508" on="0"/>
        <pt x="284" y="500" on="0"/>
        <pt x="313" y="479" on="0"/>
        <pt x="333" y="445" on="0"/>
        <pt x="342" y="419" on="1"/>
        <pt x="345" y="435" on="0"/>
        <pt x="369" y="467" on="0"/>
        <pt x="407" y="492" on="0"/>
        <pt x="457" y="508" on="0"/>
        <pt x="486" y="508" on="1"/>
        <pt x="523" y="508" on="0"/>
        <pt x="587" y="478" on="0"/>
        <pt x="633" y="422" on="0"/>
        <pt x="659" y="342" on="0"/>
        <pt x="659" y="293" on="1"/>
        <pt x="659" y="274" on="0"/>
        <pt x="655" y="241" on="0"/>
        <pt x="650" y="223" on="1"/>
      </contour>
      <contour>
        <pt x="482" y="406" on="1"/>
        <pt x="444" y="406" on="0"/>
        <pt x="390" y="351" on="0"/>
        <pt x="385" y="307" on="1"/>
        <pt x="554" y="307" on="1"/>
        <pt x="554" y="324" on="0"/>
        <pt x="548" y="359" on="0"/>
        <pt x="533" y="388" on="0"/>
        <pt x="504" y="406" on="0"/>
      </contour>
      <contour>
        <pt x="259" y="230" on="1"/>
        <pt x="241" y="230" on="0"/>
        <pt x="200" y="219" on="0"/>
        <pt x="166" y="197" on="0"/>
        <pt x="143" y="163" on="0"/>
        <pt x="143" y="138" on="1"/>
        <pt x="143" y="112" on="0"/>
        <pt x="170" y="81" on="0"/>
        <pt x="188" y="81" on="1"/>
        <pt x="200" y="81" on="0"/>
        <pt x="225" y="96" on="0"/>
        <pt x="246" y="127" on="0"/>
        <pt x="260" y="172" on="0"/>
        <pt x="260" y="202" on="1"/>
        <pt x="260" y="210" on="0"/>
        <pt x="260" y="222" on="0"/>
      </contour>
    </TTGlyph>
    <TTGlyph name="agrave" xMin="12" yMin="-10" xMax="419" yMax="750">
      <component glyphName="a" x="0" y="0" flags="0x4"/>
      <component glyphName="grave" x="83" y="0" flags="0x4"/>
    </TTGlyph>
    <TTGlyph name="ampersand" xMin="28" yMin="-24" xMax="550" yMax="703">
      <contour>
        <pt x="407" y="0" on="1"/>
        <pt x="385" y="34" on="1"/>
        <pt x="361" y="8" on="0"/>
        <pt x="282" y="-24" on="0"/>
        <pt x="230" y="-24" on="1"/>
        <pt x="178" y="-24" on="0"/>
        <pt x="102" y="8" on="0"/>
        <pt x="52" y="61" on="0"/>
        <pt x="28" y="130" on="0"/>
        <pt x="28" y="167" on="1"/>
        <pt x="28" y="202" on="0"/>
        <pt x="47" y="259" on="0"/>
        <pt x="76" y="308" on="0"/>
        <pt x="113" y="349" on="0"/>
        <pt x="131" y="367" on="1"/>
        <pt x="121" y="386" on="0"/>
        <pt x="98" y="426" on="0"/>
        <pt x="79" y="469" on="0"/>
        <pt x="67" y="515" on="0"/>
        <pt x="67" y="540" on="1"/>
        <pt x="67" y="578" on="0"/>
        <pt x="97" y="639" on="0"/>
        <pt x="147" y="681" on="0"/>
        <pt x="211" y="703" on="0"/>
        <pt x="245" y="703" on="1"/>
        <pt x="311" y="703" on="0"/>
        <pt x="387" y="624" on="0"/>
        <pt x="387" y="559" on="1"/>
        <pt x="387" y="526" on="0"/>
        <pt x="368" y="474" on="0"/>
        <pt x="336" y="429" on="0"/>
        <pt x="295" y="390" on="0"/>
        <pt x="273" y="371" on="1"/>
        <pt x="375" y="211" on="1"/>
        <pt x="375" y="246" on="0"/>
        <pt x="374" y="320" on="0"/>
        <pt x="373" y="352" on="1"/>
        <pt x="489" y="352" on="1"/>
        <pt x="489" y="331" on="0"/>
        <pt x="487" y="275" on="0"/>
        <pt x="479" y="214" on="0"/>
        <pt x="465" y="150" on="0"/>
        <pt x="453" y="120" on="1"/>
        <pt x="550" y="0" on="1"/>
      </contour>
      <contour>
        <pt x="241" y="604" on="1"/>
        <pt x="217" y="604" on="0"/>
        <pt x="187" y="568" on="0"/>
        <pt x="187" y="535" on="1"/>
        <pt x="187" y="508" on="0"/>
        <pt x="207" y="461" on="0"/>
        <pt x="223" y="432" on="1"/>
        <pt x="250" y="462" on="0"/>
        <pt x="281" y="513" on="0"/>
        <pt x="281" y="548" on="1"/>
        <pt x="281" y="579" on="0"/>
        <pt x="259" y="604" on="0"/>
      </contour>
      <contour>
        <pt x="188" y="300" on="1"/>
        <pt x="173" y="275" on="0"/>
        <pt x="155" y="216" on="0"/>
        <pt x="155" y="178" on="1"/>
        <pt x="155" y="160" on="0"/>
        <pt x="161" y="122" on="0"/>
        <pt x="181" y="91" on="0"/>
        <pt x="216" y="71" on="0"/>
        <pt x="246" y="71" on="1"/>
        <pt x="272" y="71" on="0"/>
        <pt x="309" y="88" on="0"/>
        <pt x="324" y="105" on="1"/>
      </contour>
    </TTGlyph>
    <TTGlyph name="aring" xMin="12" yMin="-10" xMax="419" yMax="755">
      <component glyphName="a" x="0" y="0" flags="0x4"/>
      <component glyphName="ring" x="89" y="0" flags="0x4"/>
    </TTGlyph>
    <TTGlyph name="asciicircum" xMin="42" yMin="400" xMax="396" yMax="759">
      <contour>
        <pt x="219" y="612" on="1"/>
        <pt x="42" y="400" on="1"/>
        <pt x="42" y="547" on="1"/>
        <pt x="219" y="759" on="1"/>
        <pt x="396" y="547" on="1"/>
        <pt x="396" y="400" on="1"/>
      </contour>
    </TTGlyph>
    <TTGlyph name="asciitilde" xMin="59" yMin="171" xMax="394" yMax="298">
      <contour>
        <pt x="288" y="176" on="1"/>
        <pt x="268" y="176" on="0"/>
        <pt x="239" y="189" on="0"/>
        <pt x="215" y="205" on="0"/>
        <pt x="194" y="218" on="0"/>
        <pt x="181" y="218" on="1"/>
        <pt x="164" y="218" on="0"/>
        <pt x="149" y="186" on="0"/>
        <pt x="148" y="171" on="1"/>
        <pt x="59" y="191" on="1"/>
        <pt x="60" y="216" on="0"/>
        <pt x="81" y="254" on="0"/>
        <pt x="114" y="280" on="0"/>
        <pt x="154" y="293" on="0"/>
        <pt x="175" y="293" on="1"/>
        <pt x="197" y="293" on="0"/>
        <pt x="222" y="280" on="0"/>
        <pt x="239" y="264" on="0"/>
        <pt x="255" y="251" on="0"/>
        <pt x="268" y="251" on="1"/>
        <pt x="288" y="251" on="0"/>
        <pt x="313" y="283" on="0"/>
        <pt x="313" y="298" on="1"/>
        <pt x="394" y="278" on="1"/>
        <pt x="392" y="259" on="0"/>
        <pt x="377" y="223" on="0"/>
        <pt x="350" y="194" on="0"/>
        <pt x="312" y="176" on="0"/>
      </contour>
    </TTGlyph>
    <TTGlyph name="asterisk" xMin="24" yMin="409" xMax="363" yMax="749">
      <contour>
        <pt x="196" y="549" on="1"/>
        <pt x="127" y="409" on="1"/>
        <pt x="57" y="474" on="1"/>
        <pt x="166" y="565" on="1"/>
        <pt x="24" y="617" on="1"/>
        <pt x="73" y="699" on="1"/>
        <pt x="182" y="592" on="1"/>
        <pt x="144" y="749" on="1"/>
        <pt x="243" y="749" on="1"/>
        <pt x="204" y="592" on="1"/>
        <pt x="314" y="699" on="1"/>
        <pt x="363" y="617" on="1"/>
        <pt x="226" y="567" on="1"/>
        <pt x="332" y="477" on="1"/>
        <pt x="262" y="412" on="1"/>
      </contour>
    </TTGlyph>
    <TTGlyph name="at" xMin="35" yMin="-87" xMax="573" yMax="553">
      <contour>
        <pt x="462" y="379" on="1"/>
        <pt x="445" y="399" on="0"/>
        <pt x="393" y="432" on="0"/>
        <pt x="358" y="432" on="1"/>
        <pt x="317" y="432" on="0"/>
        <pt x="239" y="383" on="0"/>
        <pt x="176" y="304" on="0"/>
        <pt x="138" y="204" on="0"/>
        <pt x="138" y="153" on="1"/>
        <pt x="138" y="131" on="0"/>
        <pt x="146" y="90" on="0"/>
        <pt x="165" y="59" on="0"/>
        <pt x="195" y="40" on="0"/>
        <pt x="216" y="40" on="1"/>
        <pt x="235" y="40" on="0"/>
        <pt x="277" y="55" on="0"/>
        <pt x="319" y="85" on="0"/>
        <pt x="357" y="128" on="0"/>
        <pt x="371" y="156" on="1"/>
        <pt x="371" y="151" on="0"/>
        <pt x="369" y="132" on="0"/>
        <pt x="369" y="121" on="1"/>
        <pt x="369" y="109" on="0"/>
        <pt x="374" y="81" on="0"/>
        <pt x="385" y="58" on="0"/>
        <pt x="404" y="42" on="0"/>
        <pt x="419" y="42" on="1"/>
        <pt x="431" y="42" on="0"/>
        <pt x="461" y="53" on="0"/>
        <pt x="491" y="71" on="0"/>
        <pt x="520" y="94" on="0"/>
        <pt x="530" y="106" on="1"/>
        <pt x="510" y="63" on="0"/>
        <pt x="450" y="-8" on="0"/>
        <pt x="377" y="-59" on="0"/>
        <pt x="293" y="-87" on="0"/>
        <pt x="248" y="-87" on="1"/>
        <pt x="150" y="-87" on="0"/>
        <pt x="35" y="48" on="0"/>
        <pt x="35" y="170" on="1"/>
        <pt x="35" y="252" on="0"/>
        <pt x="88" y="392" on="0"/>
        <pt x="177" y="495" on="0"/>
        <pt x="294" y="553" on="0"/>
        <pt x="359" y="553" on="1"/>
        <pt x="410" y="553" on="0"/>
        <pt x="489" y="517" on="0"/>
        <pt x="544" y="451" on="0"/>
        <pt x="573" y="358" on="0"/>
        <pt x="573" y="300" on="1"/>
        <pt x="573" y="262" on="0"/>
        <pt x="560" y="188" on="0"/>
        <pt x="531" y="130" on="0"/>
        <pt x="484" y="94" on="0"/>
        <pt x="451" y="94" on="1"/>
        <pt x="435" y="94" on="0"/>
        <pt x="414" y="111" on="0"/>
        <pt x="414" y="145" on="1"/>
        <pt x="414" y="189" on="0"/>
        <pt x="445" y="299" on="0"/>
      </contour>
      <contour>
        <pt x="365" y="371" on="1"/>
        <pt x="373" y="371" on="0"/>
        <pt x="399" y="365" on="0"/>
        <pt x="404" y="349" on="1"/>
        <pt x="398" y="309" on="0"/>
        <pt x="363" y="223" on="0"/>
        <pt x="317" y="152" on="0"/>
        <pt x="266" y="106" on="0"/>
        <pt x="245" y="106" on="1"/>
        <pt x="225" y="106" on="0"/>
        <pt x="207" y="144" on="0"/>
        <pt x="207" y="173" on="1"/>
        <pt x="207" y="214" on="0"/>
        <pt x="239" y="286" on="0"/>
        <pt x="286" y="340" on="0"/>
        <pt x="341" y="371" on="0"/>
      </contour>
    </TTGlyph>
    <TTGlyph name="atilde" xMin="12" yMin="-10" xMax="419" yMax="721">
      <component glyphName="a" x="0" y="0" flags="0x4"/>
      <component glyphName="tilde" x="-13" y="0" flags="0x4"/>
    </TTGlyph>
    <TTGlyph name="b" xMin="50" yMin="-10" xMax="477" yMax="750">
      <contour>
        <pt x="257" y="-10" on="1"/>
        <pt x="219" y="-10" on="0"/>
        <pt x="181" y="10" on="0"/>
        <pt x="162" y="28" on="1"/>
        <pt x="162" y="0" on="1"/>
        <pt x="50" y="0" on="1"/>
        <pt x="50" y="750" on="1"/>
        <pt x="169" y="750" on="1"/>
        <pt x="169" y="475" on="1"/>
        <pt x="187" y="491" on="0"/>
        <pt x="221" y="508" on="0"/>
        <pt x="256" y="508" on="1"/>
        <pt x="311" y="508" on="0"/>
        <pt x="394" y="467" on="0"/>
        <pt x="449" y="396" on="0"/>
        <pt x="477" y="301" on="0"/>
        <pt x="477" y="248" on="1"/>
        <pt x="477" y="196" on="0"/>
        <pt x="451" y="103" on="0"/>
        <pt x="397" y="32" on="0"/>
        <pt x="314" y="-10" on="0"/>
      </contour>
      <contour>
        <pt x="250" y="406" on="1"/>
        <pt x="223" y="406" on="0"/>
        <pt x="190" y="383" on="0"/>
        <pt x="171" y="341" on="0"/>
        <pt x="164" y="283" on="0"/>
        <pt x="164" y="249" on="1"/>
        <pt x="164" y="215" on="0"/>
        <pt x="171" y="157" on="0"/>
        <pt x="190" y="115" on="0"/>
        <pt x="223" y="92" on="0"/>
        <pt x="250" y="92" on="1"/>
        <pt x="302" y="92" on="0"/>
        <pt x="354" y="179" on="0"/>
        <pt x="354" y="249" on="1"/>
        <pt x="354" y="319" on="0"/>
        <pt x="302" y="406" on="0"/>
      </contour>
    </TTGlyph>
    <TTGlyph name="backslash" xMin="23" yMin="-85" xMax="463" yMax="700">
      <contour>
        <pt x="332" y="-85" on="1"/>
        <pt x="23" y="700" on="1"/>
        <pt x="153" y="700" on="1"/>
        <pt x="463" y="-85" on="1"/>
      </contour>
    </TTGlyph>
    <TTGlyph name="bar" xMin="51" yMin="-210" xMax="141" yMax="750">
      <contour>
        <pt x="51" y="-210" on="1"/>
        <pt x="51" y="750" on="1"/>
        <pt x="141" y="750" on="1"/>
        <pt x="141" y="-210" on="1"/>
      </contour>
    </TTGlyph>
    <TTGlyph name="braceleft" xMin="6" yMin="-136" xMax="264" yMax="750">
      <contour>
        <pt x="75" y="29" on="1"/>
        <pt x="75" y="58" on="0"/>
        <pt x="80" y="132" on="0"/>
        <pt x="80" y="166" on="1"/>
        <pt x="80" y="219" on="0"/>
        <pt x="49" y="282" on="0"/>
        <pt x="6" y="307" on="1"/>
        <pt x="27" y="319" on="0"/>
        <pt x="55" y="345" on="0"/>
        <pt x="72" y="378" on="0"/>
        <pt x="80" y="420" on="0"/>
        <pt x="80" y="449" on="1"/>
        <pt x="80" y="482" on="0"/>
        <pt x="75" y="556" on="0"/>
        <pt x="75" y="585" on="1"/>
        <pt x="75" y="625" on="0"/>
        <pt x="94" y="686" on="0"/>
        <pt x="138" y="728" on="0"/>
        <pt x="210" y="750" on="0"/>
        <pt x="264" y="750" on="1"/>
        <pt x="264" y="641" on="1"/>
        <pt x="228" y="641" on="0"/>
        <pt x="188" y="632" on="0"/>
        <pt x="170" y="602" on="0"/>
        <pt x="167" y="546" on="0"/>
        <pt x="167" y="500" on="1"/>
        <pt x="167" y="480" on="0"/>
        <pt x="171" y="438" on="0"/>
        <pt x="171" y="418" on="1"/>
        <pt x="171" y="386" on="0"/>
        <pt x="158" y="327" on="0"/>
        <pt x="139" y="307" on="1"/>
        <pt x="158" y="287" on="0"/>
        <pt x="171" y="236" on="0"/>
        <pt x="171" y="204" on="1"/>
        <pt x="171" y="184" on="0"/>
        <pt x="167" y="139" on="0"/>
        <pt x="167" y="115" on="1"/>
        <pt x="167" y="68" on="0"/>
        <pt x="170" y="12" on="0"/>
        <pt x="188" y="-18" on="0"/>
        <pt x="228" y="-27" on="0"/>
        <pt x="264" y="-27" on="1"/>
        <pt x="264" y="-136" on="1"/>
        <pt x="212" y="-136" on="0"/>
        <pt x="140" y="-116" on="0"/>
        <pt x="95" y="-75" on="0"/>
        <pt x="75" y="-13" on="0"/>
      </contour>
    </TTGlyph>
    <TTGlyph name="braceright" xMin="6" yMin="-136" xMax="264" yMax="750">
      <contour>
        <pt x="195" y="29" on="1"/>
        <pt x="195" y="-55" on="0"/>
        <pt x="109" y="-136" on="0"/>
        <pt x="6" y="-136" on="1"/>
        <pt x="6" y="-27" on="1"/>
        <pt x="42" y="-27" on="0"/>
        <pt x="81" y="-18" on="0"/>
        <pt x="99" y="12" on="0"/>
        <pt x="102" y="68" on="0"/>
        <pt x="102" y="115" on="1"/>
        <pt x="102" y="139" on="0"/>
        <pt x="99" y="184" on="0"/>
        <pt x="99" y="204" on="1"/>
        <pt x="99" y="236" on="0"/>
        <pt x="112" y="287" on="0"/>
        <pt x="131" y="307" on="1"/>
        <pt x="112" y="327" on="0"/>
        <pt x="99" y="386" on="0"/>
        <pt x="99" y="418" on="1"/>
        <pt x="99" y="438" on="0"/>
        <pt x="102" y="480" on="0"/>
        <pt x="102" y="500" on="1"/>
        <pt x="102" y="546" on="0"/>
        <pt x="99" y="602" on="0"/>
        <pt x="81" y="632" on="0"/>
        <pt x="42" y="641" on="0"/>
        <pt x="6" y="641" on="1"/>
        <pt x="6" y="750" on="1"/>
        <pt x="60" y="750" on="0"/>
        <pt x="132" y="728" on="0"/>
        <pt x="176" y="686" on="0"/>
        <pt x="195" y="625" on="0"/>
        <pt x="195" y="585" on="1"/>
        <pt x="195" y="556" on="0"/>
        <pt x="189" y="482" on="0"/>
        <pt x="189" y="449" on="1"/>
        <pt x="189" y="420" on="0"/>
        <pt x="197" y="378" on="0"/>
        <pt x="215" y="345" on="0"/>
        <pt x="243" y="319" on="0"/>
        <pt x="264" y="307" on="1"/>
        <pt x="220" y="282" on="0"/>
        <pt x="189" y="219" on="0"/>
        <pt x="189" y="166" on="1"/>
        <pt x="189" y="132" on="0"/>
        <pt x="195" y="58" on="0"/>
      </contour>
    </TTGlyph>
    <TTGlyph name="bracketleft" xMin="58" yMin="-136" xMax="279" yMax="750">
      <contour>
        <pt x="58" y="-136" on="1"/>
        <pt x="58" y="750" on="1"/>
        <pt x="279" y="750" on="1"/>
        <pt x="279" y="641" on="1"/>
        <pt x="166" y="641" on="1"/>
        <pt x="166" y="-27" on="1"/>
        <pt x="279" y="-27" on="1"/>
        <pt x="279" y="-136" on="1"/>
      </contour>
    </TTGlyph>
    <TTGlyph name="bracketright" xMin="14" yMin="-136" xMax="235" yMax="750">
      <contour>
        <pt x="14" y="-136" on="1"/>
        <pt x="14" y="-12" on="1"/>
        <pt x="127" y="-12" on="1"/>
        <pt x="127" y="626" on="1"/>
        <pt x="14" y="626" on="1"/>
        <pt x="14" y="750" on="1"/>
        <pt x="235" y="750" on="1"/>
        <pt x="235" y="-136" on="1"/>
      </contour>
    </TTGlyph>
    <TTGlyph name="brokenbar" xMin="58" yMin="-210" xMax="134" yMax="750">
      <contour>
        <pt x="58" y="284" on="1"/>
        <pt x="58" y="750" on="1"/>
        <pt x="134" y="750" on="1"/>
        <pt x="134" y="284" on="1"/>
      </contour>
      <contour>
        <pt x="58" y="-210" on="1"/>
        <pt x="58" y="190" on="1"/>
        <pt x="134" y="190" on="1"/>
        <pt x="134" y="-210" on="1"/>
      </contour>
    </TTGlyph>
    <TTGlyph name="bullet" xMin="34" yMin="169" xMax="221" yMax="387">
      <contour>
        <pt x="128" y="169" on="1"/>
        <pt x="108" y="169" on="0"/>
        <pt x="74" y="186" on="0"/>
        <pt x="49" y="216" on="0"/>
        <pt x="34" y="255" on="0"/>
        <pt x="34" y="278" on="1"/>
        <pt x="34" y="300" on="0"/>
        <pt x="49" y="340" on="0"/>
        <pt x="74" y="370" on="0"/>
        <pt x="108" y="387" on="0"/>
        <pt x="128" y="387" on="1"/>
        <pt x="147" y="387" on="0"/>
        <pt x="181" y="370" on="0"/>
        <pt x="206" y="340" on="0"/>
        <pt x="221" y="300" on="0"/>
        <pt x="221" y="278" on="1"/>
        <pt x="221" y="255" on="0"/>
        <pt x="206" y="216" on="0"/>
        <pt x="181" y="186" on="0"/>
        <pt x="147" y="169" on="0"/>
      </contour>
    </TTGlyph>
    <TTGlyph name="c" xMin="24" yMin="-10" xMax="362" yMax="508">
      <contour>
        <pt x="233" y="-10" on="1"/>
        <pt x="182" y="-10" on="0"/>
        <pt x="103" y="32" on="0"/>
        <pt x="51" y="102" on="0"/>
        <pt x="24" y="196" on="0"/>
        <pt x="24" y="249" on="1"/>
        <pt x="24" y="301" on="0"/>
        <pt x="51" y="396" on="0"/>
        <pt x="103" y="466" on="0"/>
        <pt x="182" y="508" on="0"/>
        <pt x="233" y="508" on="1"/>
        <pt x="260" y="508" on="0"/>
        <pt x="298" y="502" on="0"/>
        <pt x="328" y="492" on="0"/>
        <pt x="351" y="478" on="0"/>
        <pt x="362" y="471" on="1"/>
        <pt x="353" y="365" on="1"/>
        <pt x="326" y="385" on="0"/>
        <pt x="274" y="406" on="0"/>
        <pt x="242" y="406" on="1"/>
        <pt x="198" y="406" on="0"/>
        <pt x="146" y="319" on="0"/>
        <pt x="146" y="249" on="1"/>
        <pt x="146" y="179" on="0"/>
        <pt x="198" y="92" on="0"/>
        <pt x="242" y="92" on="1"/>
        <pt x="274" y="92" on="0"/>
        <pt x="326" y="113" on="0"/>
        <pt x="353" y="133" on="1"/>
        <pt x="362" y="27" on="1"/>
        <pt x="340" y="12" on="0"/>
        <pt x="285" y="-10" on="0"/>
      </contour>
    </TTGlyph>
    <TTGlyph name="caron" xMin="65" yMin="585" xMax="318" yMax="750">
      <contour>
        <pt x="191" y="585" on="1"/>
        <pt x="65" y="676" on="1"/>
        <pt x="65" y="750" on="1"/>
        <pt x="191" y="679" on="1"/>
        <pt x="318" y="750" on="1"/>
        <pt x="318" y="676" on="1"/>
      </contour>
    </TTGlyph>
    <TTGlyph name="ccaron" xMin="24" yMin="-10" xMax="362" yMax="750">
      <component glyphName="c" x="0" y="0" flags="0x204"/>
      <component glyphName="caron" x="0" y="0" flags="0x4"/>
    </TTGlyph>
    <TTGlyph name="ccedilla" xMin="24" yMin="-194" xMax="362" yMax="508">
      <component glyphName="c" x="0" y="0" flags="0x204"/>
      <component glyphName="cedilla" x="30" y="0" flags="0x4"/>
    </TTGlyph>
    <TTGlyph name="cedilla" xMin="105" yMin="-194" xMax="269" yMax="-52">
      <contour>
        <pt x="179" y="-185" on="1"/>
        <pt x="105" y="-194" on="1"/>
        <pt x="166" y="-61" on="1"/>
        <pt x="269" y="-52" on="1"/>
      </contour>
    </TTGlyph>
    <TTGlyph name="cent" xMin="29" yMin="-32" xMax="367" yMax="748">
      <contour>
        <pt x="280" y="-32" on="1"/>
        <pt x="182" y="-32" on="1"/>
        <pt x="195" y="91" on="1"/>
        <pt x="153" y="98" on="0"/>
        <pt x="90" y="143" on="0"/>
        <pt x="49" y="212" on="0"/>
        <pt x="29" y="299" on="0"/>
        <pt x="29" y="347" on="1"/>
        <pt x="29" y="396" on="0"/>
        <pt x="51" y="483" on="0"/>
        <pt x="94" y="552" on="0"/>
        <pt x="156" y="598" on="0"/>
        <pt x="195" y="605" on="1"/>
        <pt x="182" y="748" on="1"/>
        <pt x="280" y="748" on="1"/>
        <pt x="266" y="606" on="1"/>
        <pt x="305" y="604" on="0"/>
        <pt x="349" y="584" on="0"/>
        <pt x="367" y="570" on="1"/>
        <pt x="357" y="464" on="1"/>
        <pt x="302" y="505" on="0"/>
        <pt x="250" y="505" on="1"/>
        <pt x="199" y="505" on="0"/>
        <pt x="150" y="418" on="0"/>
        <pt x="150" y="348" on="1"/>
        <pt x="150" y="278" on="0"/>
        <pt x="198" y="191" on="0"/>
        <pt x="249" y="191" on="1"/>
        <pt x="302" y="191" on="0"/>
        <pt x="357" y="232" on="1"/>
        <pt x="367" y="126" on="1"/>
        <pt x="347" y="112" on="0"/>
        <pt x="300" y="92" on="0"/>
        <pt x="262" y="89" on="1"/>
      </contour>
    </TTGlyph>
    <TTGlyph name="circumflex" xMin="65" yMin="585" xMax="318" yMax="750">
      <contour>
        <pt x="191" y="656" on="1"/>
        <pt x="65" y="585" on="1"/>
        <pt x="65" y="659" on="1"/>
        <pt x="191" y="750" on="1"/>
        <pt x="318" y="659" on="1"/>
        <pt x="318" y="585" on="1"/>
      </contour>
    </TTGlyph>
    <TTGlyph name="colon" xMin="53" yMin="0" xMax="172" yMax="440">
      <contour>
        <pt x="53" y="310" on="1"/>
        <pt x="53" y="440" on="1"/>
        <pt x="172" y="440" on="1"/>
        <pt x="172" y="310" on="1"/>
      </contour>
      <contour>
        <pt x="53" y="0" on="1"/>
        <pt x="53" y="130" on="1"/>
        <pt x="172" y="130" on="1"/>
        <pt x="172" y="0" on="1"/>
      </contour>
    </TTGlyph>
    <TTGlyph name="comma" xMin="43" yMin="-110" xMax="159" yMax="130">
      <contour>
        <pt x="67" y="-110" on="1"/>
        <pt x="43" y="-96" on="1"/>
        <pt x="71" y="-10" on="1"/>
        <pt x="43" y="0" on="1"/>
        <pt x="43" y="130" on="1"/>
        <pt x="159" y="130" on="1"/>
        <pt x="159" y="0" on="1"/>
      </contour>
    </TTGlyph>
    <TTGlyph name="copyright" xMin="34" yMin="37" xMax="568" yMax="693">
      <contour>
        <pt x="301" y="37" on="1"/>
        <pt x="243" y="37" on="0"/>
        <pt x="145" y="84" on="0"/>
        <pt x="74" y="170" on="0"/>
        <pt x="34" y="291" on="0"/>
        <pt x="34" y="365" on="1"/>
        <pt x="34" y="439" on="0"/>
        <pt x="74" y="560" on="0"/>
        <pt x="145" y="646" on="0"/>
        <pt x="243" y="693" on="0"/>
        <pt x="301" y="693" on="1"/>
        <pt x="359" y="693" on="0"/>
        <pt x="457" y="646" on="0"/>
        <pt x="528" y="560" on="0"/>
        <pt x="568" y="439" on="0"/>
        <pt x="568" y="365" on="1"/>
        <pt x="568" y="291" on="0"/>
        <pt x="528" y="170" on="0"/>
        <pt x="457" y="84" on="0"/>
        <pt x="359" y="37" on="0"/>
      </contour>
      <contour>
        <pt x="301" y="623" on="1"/>
        <pt x="253" y="623" on="0"/>
        <pt x="181" y="584" on="0"/>
        <pt x="134" y="515" on="0"/>
        <pt x="110" y="420" on="0"/>
        <pt x="110" y="365" on="1"/>
        <pt x="110" y="309" on="0"/>
        <pt x="134" y="215" on="0"/>
        <pt x="181" y="145" on="0"/>
        <pt x="253" y="106" on="0"/>
        <pt x="301" y="106" on="1"/>
        <pt x="349" y="106" on="0"/>
        <pt x="421" y="145" on="0"/>
        <pt x="469" y="215" on="0"/>
        <pt x="493" y="309" on="0"/>
        <pt x="493" y="365" on="1"/>
        <pt x="493" y="420" on="0"/>
        <pt x="469" y="515" on="0"/>
        <pt x="421" y="584" on="0"/>
        <pt x="349" y="623" on="0"/>
      </contour>
      <contour>
        <pt x="308" y="190" on="1"/>
        <pt x="277" y="190" on="0"/>
        <pt x="224" y="215" on="0"/>
        <pt x="186" y="260" on="0"/>
        <pt x="165" y="324" on="0"/>
        <pt x="165" y="363" on="1"/>
        <pt x="165" y="402" on="0"/>
        <pt x="186" y="467" on="0"/>
        <pt x="224" y="512" on="0"/>
        <pt x="276" y="537" on="0"/>
        <pt x="308" y="537" on="1"/>
        <pt x="333" y="537" on="0"/>
        <pt x="381" y="524" on="0"/>
        <pt x="400" y="514" on="1"/>
        <pt x="390" y="429" on="1"/>
        <pt x="369" y="439" on="0"/>
        <pt x="331" y="452" on="0"/>
        <pt x="308" y="452" on="1"/>
        <pt x="282" y="452" on="0"/>
        <pt x="252" y="405" on="0"/>
        <pt x="252" y="363" on="1"/>
        <pt x="252" y="323" on="0"/>
        <pt x="282" y="274" on="0"/>
        <pt x="308" y="274" on="1"/>
        <pt x="331" y="274" on="0"/>
        <pt x="369" y="288" on="0"/>
        <pt x="390" y="299" on="1"/>
        <pt x="400" y="215" on="1"/>
        <pt x="381" y="203" on="0"/>
        <pt x="332" y="190" on="0"/>
      </contour>
    </TTGlyph>
    <TTGlyph name="currency" xMin="35" yMin="19" xMax="488" yMax="677">
      <contour>
        <pt x="425" y="19" on="1"/>
        <pt x="362" y="118" on="1"/>
        <pt x="325" y="89" on="0"/>
        <pt x="261" y="89" on="1"/>
        <pt x="197" y="89" on="0"/>
        <pt x="160" y="118" on="1"/>
        <pt x="98" y="19" on="1"/>
        <pt x="35" y="69" on="1"/>
        <pt x="95" y="166" on="1"/>
        <pt x="71" y="201" on="0"/>
        <pt x="43" y="295" on="0"/>
        <pt x="43" y="348" on="1"/>
        <pt x="43" y="401" on="0"/>
        <pt x="71" y="495" on="0"/>
        <pt x="96" y="530" on="1"/>
        <pt x="35" y="627" on="1"/>
        <pt x="98" y="677" on="1"/>
        <pt x="161" y="578" on="1"/>
        <pt x="178" y="592" on="0"/>
        <pt x="230" y="607" on="0"/>
        <pt x="261" y="607" on="1"/>
        <pt x="324" y="607" on="0"/>
        <pt x="362" y="577" on="1"/>
        <pt x="425" y="677" on="1"/>
        <pt x="488" y="627" on="1"/>
        <pt x="427" y="529" on="1"/>
        <pt x="451" y="494" on="0"/>
        <pt x="479" y="400" on="0"/>
        <pt x="479" y="348" on="1"/>
        <pt x="479" y="295" on="0"/>
        <pt x="450" y="201" on="0"/>
        <pt x="426" y="166" on="1"/>
        <pt x="488" y="69" on="1"/>
      </contour>
      <contour>
        <pt x="261" y="505" on="1"/>
        <pt x="216" y="505" on="0"/>
        <pt x="166" y="418" on="0"/>
        <pt x="166" y="348" on="1"/>
        <pt x="166" y="278" on="0"/>
        <pt x="216" y="191" on="0"/>
        <pt x="261" y="191" on="1"/>
        <pt x="306" y="191" on="0"/>
        <pt x="356" y="278" on="0"/>
        <pt x="356" y="348" on="1"/>
        <pt x="356" y="418" on="0"/>
        <pt x="306" y="505" on="0"/>
      </contour>
    </TTGlyph>
    <TTGlyph name="d" xMin="19" yMin="-10" xMax="446" yMax="750">
      <contour>
        <pt x="332" y="0" on="1"/>
        <pt x="332" y="28" on="1"/>
        <pt x="321" y="19" on="0"/>
        <pt x="304" y="5" on="0"/>
        <pt x="283" y="-5" on="0"/>
        <pt x="257" y="-10" on="0"/>
        <pt x="238" y="-10" on="1"/>
        <pt x="181" y="-10" on="0"/>
        <pt x="99" y="32" on="0"/>
        <pt x="45" y="102" on="0"/>
        <pt x="19" y="196" on="0"/>
        <pt x="19" y="249" on="1"/>
        <pt x="19" y="301" on="0"/>
        <pt x="46" y="396" on="0"/>
        <pt x="101" y="466" on="0"/>
        <pt x="183" y="508" on="0"/>
        <pt x="238" y="508" on="1"/>
        <pt x="272" y="508" on="0"/>
        <pt x="308" y="491" on="0"/>
        <pt x="326" y="475" on="1"/>
        <pt x="326" y="750" on="1"/>
        <pt x="446" y="750" on="1"/>
        <pt x="446" y="0" on="1"/>
      </contour>
      <contour>
        <pt x="245" y="406" on="1"/>
        <pt x="195" y="406" on="0"/>
        <pt x="141" y="319" on="0"/>
        <pt x="141" y="249" on="1"/>
        <pt x="141" y="179" on="0"/>
        <pt x="195" y="92" on="0"/>
        <pt x="245" y="92" on="1"/>
        <pt x="272" y="92" on="0"/>
        <pt x="305" y="115" on="0"/>
        <pt x="324" y="156" on="0"/>
        <pt x="330" y="214" on="0"/>
        <pt x="330" y="249" on="1"/>
        <pt x="330" y="284" on="0"/>
        <pt x="324" y="342" on="0"/>
        <pt x="305" y="383" on="0"/>
        <pt x="272" y="406" on="0"/>
      </contour>
    </TTGlyph>
    <TTGlyph name="dagger" xMin="31" yMin="0" xMax="335" yMax="607">
      <contour>
        <pt x="233" y="375" on="1"/>
        <pt x="253" y="257" on="1"/>
        <pt x="228" y="0" on="1"/>
        <pt x="139" y="0" on="1"/>
        <pt x="113" y="257" on="1"/>
        <pt x="134" y="375" on="1"/>
        <pt x="31" y="349" on="1"/>
        <pt x="31" y="481" on="1"/>
        <pt x="134" y="454" on="1"/>
        <pt x="111" y="607" on="1"/>
        <pt x="255" y="607" on="1"/>
        <pt x="232" y="454" on="1"/>
        <pt x="335" y="481" on="1"/>
        <pt x="335" y="349" on="1"/>
      </contour>
    </TTGlyph>
    <TTGlyph name="daggerdbl" xMin="41" yMin="-59" xMax="345" yMax="607">
      <contour>
        <pt x="242" y="94" on="1"/>
        <pt x="265" y="-59" on="1"/>
        <pt x="121" y="-59" on="1"/>
        <pt x="144" y="94" on="1"/>
        <pt x="41" y="67" on="1"/>
        <pt x="41" y="199" on="1"/>
        <pt x="143" y="173" on="1"/>
        <pt x="123" y="274" on="1"/>
        <pt x="143" y="375" on="1"/>
        <pt x="41" y="349" on="1"/>
        <pt x="41" y="481" on="1"/>
        <pt x="144" y="454" on="1"/>
        <pt x="121" y="607" on="1"/>
        <pt x="265" y="607" on="1"/>
        <pt x="242" y="454" on="1"/>
        <pt x="345" y="481" on="1"/>
        <pt x="345" y="349" on="1"/>
        <pt x="244" y="375" on="1"/>
        <pt x="263" y="274" on="1"/>
        <pt x="244" y="173" on="1"/>
        <pt x="345" y="199" on="1"/>
        <pt x="345" y="67" on="1"/>
      </contour>
    </TTGlyph>
    <TTGlyph name="degree" xMin="26" yMin="482" xMax="254" yMax="755">
      <contour>
        <pt x="140" y="482" on="1"/>
        <pt x="113" y="482" on="0"/>
        <pt x="71" y="504" on="0"/>
        <pt x="41" y="541" on="0"/>
        <pt x="26" y="590" on="0"/>
        <pt x="26" y="618" on="1"/>
        <pt x="26" y="646" on="0"/>
        <pt x="41" y="695" on="0"/>
        <pt x="71" y="733" on="0"/>
        <pt x="113" y="755" on="0"/>
        <pt x="140" y="755" on="1"/>
        <pt x="167" y="755" on="0"/>
        <pt x="209" y="733" on="0"/>
        <pt x="239" y="695" on="0"/>
        <pt x="254" y="646" on="0"/>
        <pt x="254" y="618" on="1"/>
        <pt x="254" y="590" on="0"/>
        <pt x="239" y="541" on="0"/>
        <pt x="209" y="504" on="0"/>
        <pt x="167" y="482" on="0"/>
      </contour>
      <contour>
        <pt x="140" y="704" on="1"/>
        <pt x="119" y="704" on="0"/>
        <pt x="93" y="656" on="0"/>
        <pt x="93" y="618" on="1"/>
        <pt x="93" y="580" on="0"/>
        <pt x="118" y="533" on="0"/>
        <pt x="140" y="533" on="1"/>
        <pt x="162" y="533" on="0"/>
        <pt x="186" y="580" on="0"/>
        <pt x="186" y="618" on="1"/>
        <pt x="186" y="656" on="0"/>
        <pt x="162" y="704" on="0"/>
      </contour>
    </TTGlyph>
    <TTGlyph name="dieresis" xMin="75" yMin="594" xMax="288" yMax="700">
      <contour>
        <pt x="195" y="594" on="1"/>
        <pt x="195" y="700" on="1"/>
        <pt x="288" y="700" on="1"/>
        <pt x="288" y="594" on="1"/>
      </contour>
      <contour>
        <pt x="75" y="594" on="1"/>
        <pt x="75" y="700" on="1"/>
        <pt x="168" y="700" on="1"/>
        <pt x="168" y="594" on="1"/>
      </contour>
    </TTGlyph>
    <TTGlyph name="divide" xMin="38" yMin="20" xMax="434" yMax="534">
      <contour>
        <pt x="173" y="404" on="1"/>
        <pt x="173" y="534" on="1"/>
        <pt x="292" y="534" on="1"/>
        <pt x="292" y="404" on="1"/>
      </contour>
      <contour>
        <pt x="38" y="230" on="1"/>
        <pt x="38" y="324" on="1"/>
        <pt x="434" y="324" on="1"/>
        <pt x="434" y="230" on="1"/>
      </contour>
      <contour>
        <pt x="173" y="20" on="1"/>
        <pt x="173" y="150" on="1"/>
        <pt x="292" y="150" on="1"/>
        <pt x="292" y="20" on="1"/>
      </contour>
    </TTGlyph>
    <TTGlyph name="dollar" xMin="32" yMin="-32" xMax="423" yMax="748">
      <contour>
        <pt x="273" y="-32" on="1"/>
        <pt x="175" y="-32" on="1"/>
        <pt x="188" y="79" on="1"/>
        <pt x="139" y="82" on="0"/>
        <pt x="59" y="105" on="0"/>
        <pt x="38" y="119" on="1"/>
        <pt x="55" y="246" on="1"/>
        <pt x="75" y="222" on="0"/>
        <pt x="159" y="183" on="0"/>
        <pt x="217" y="183" on="1"/>
        <pt x="259" y="183" on="0"/>
        <pt x="302" y="207" on="0"/>
        <pt x="302" y="236" on="1"/>
        <pt x="302" y="262" on="0"/>
        <pt x="262" y="294" on="0"/>
        <pt x="202" y="318" on="0"/>
        <pt x="132" y="342" on="0"/>
        <pt x="72" y="377" on="0"/>
        <pt x="32" y="431" on="0"/>
        <pt x="32" y="473" on="1"/>
        <pt x="32" y="498" on="0"/>
        <pt x="48" y="551" on="0"/>
        <pt x="84" y="596" on="0"/>
        <pt x="144" y="628" on="0"/>
        <pt x="188" y="633" on="1"/>
        <pt x="175" y="748" on="1"/>
        <pt x="273" y="748" on="1"/>
        <pt x="259" y="633" on="1"/>
        <pt x="301" y="630" on="0"/>
        <pt x="377" y="606" on="0"/>
        <pt x="395" y="594" on="1"/>
        <pt x="385" y="481" on="1"/>
        <pt x="349" y="503" on="0"/>
        <pt x="267" y="533" on="0"/>
        <pt x="235" y="533" on="1"/>
        <pt x="219" y="533" on="0"/>
        <pt x="186" y="530" on="0"/>
        <pt x="159" y="519" on="0"/>
        <pt x="142" y="500" on="0"/>
        <pt x="142" y="485" on="1"/>
        <pt x="142" y="461" on="0"/>
        <pt x="184" y="433" on="0"/>
        <pt x="246" y="411" on="0"/>
        <pt x="319" y="389" on="0"/>
        <pt x="381" y="350" on="0"/>
        <pt x="423" y="287" on="0"/>
        <pt x="423" y="237" on="1"/>
        <pt x="423" y="216" on="0"/>
        <pt x="411" y="165" on="0"/>
        <pt x="375" y="120" on="0"/>
        <pt x="311" y="85" on="0"/>
        <pt x="259" y="80" on="1"/>
      </contour>
    </TTGlyph>
    <TTGlyph name="dotlessi" xMin="44" yMin="0" xMax="163" yMax="500">
      <contour>
        <pt x="44" y="0" on="1"/>
        <pt x="44" y="500" on="1"/>
        <pt x="163" y="500" on="1"/>
        <pt x="163" y="0" on="1"/>
      </contour>
    </TTGlyph>
    <TTGlyph name="e" xMin="22" yMin="-10" xMax="421" yMax="508">
      <contour>
        <pt x="147" y="223" on="1"/>
        <pt x="151" y="188" on="0"/>
        <pt x="175" y="138" on="0"/>
        <pt x="208" y="107" on="0"/>
        <pt x="246" y="92" on="0"/>
        <pt x="266" y="92" on="1"/>
        <pt x="279" y="92" on="0"/>
        <pt x="316" y="99" on="0"/>
        <pt x="354" y="110" on="0"/>
        <pt x="389" y="125" on="0"/>
        <pt x="402" y="133" on="1"/>
        <pt x="402" y="28" on="1"/>
        <pt x="377" y="13" on="0"/>
        <pt x="303" y="-10" on="0"/>
        <pt x="257" y="-10" on="1"/>
        <pt x="198" y="-10" on="0"/>
        <pt x="109" y="32" on="0"/>
        <pt x="51" y="103" on="0"/>
        <pt x="22" y="197" on="0"/>
        <pt x="22" y="250" on="1"/>
        <pt x="22" y="302" on="0"/>
        <pt x="49" y="395" on="0"/>
        <pt x="102" y="466" on="0"/>
        <pt x="178" y="508" on="0"/>
        <pt x="227" y="508" on="1"/>
        <pt x="269" y="508" on="0"/>
        <pt x="340" y="477" on="0"/>
        <pt x="392" y="421" on="0"/>
        <pt x="421" y="342" on="0"/>
        <pt x="421" y="293" on="1"/>
        <pt x="421" y="274" on="0"/>
        <pt x="417" y="241" on="0"/>
        <pt x="413" y="223" on="1"/>
      </contour>
      <contour>
        <pt x="233" y="406" on="1"/>
        <pt x="198" y="406" on="0"/>
        <pt x="153" y="350" on="0"/>
        <pt x="147" y="307" on="1"/>
        <pt x="300" y="307" on="1"/>
        <pt x="300" y="323" on="0"/>
        <pt x="294" y="359" on="0"/>
        <pt x="279" y="387" on="0"/>
        <pt x="253" y="406" on="0"/>
      </contour>
    </TTGlyph>
    <TTGlyph name="eacute" xMin="22" yMin="-10" xMax="421" yMax="750">
      <component glyphName="e" x="0" y="0" flags="0x4"/>
      <component glyphName="acute" x="91" y="0" flags="0x4"/>
    </TTGlyph>
    <TTGlyph name="ecircumflex" xMin="22" yMin="-10" xMax="421" yMax="750">
      <component glyphName="e" x="0" y="0" flags="0x4"/>
      <component glyphName="circumflex" x="30" y="0" flags="0x4"/>
    </TTGlyph>
    <TTGlyph name="edieresis" xMin="22" yMin="-10" xMax="421" yMax="700">
      <component glyphName="e" x="0" y="0" flags="0x4"/>
      <component glyphName="dieresis" x="39" y="0" flags="0x4"/>
    </TTGlyph>
    <TTGlyph name="egrave" xMin="22" yMin="-10" xMax="421" yMax="750">
      <component glyphName="e" x="0" y="0" flags="0x4"/>
      <component glyphName="grave" x="91" y="0" flags="0x4"/>
    </TTGlyph>
    <TTGlyph name="eight" xMin="46" yMin="-14" xMax="467" yMax="714">
      <contour>
        <pt x="247" y="-14" on="1"/>
        <pt x="196" y="-14" on="0"/>
        <pt x="120" y="19" on="0"/>
        <pt x="70" y="75" on="0"/>
        <pt x="46" y="147" on="0"/>
        <pt x="46" y="185" on="1"/>
        <pt x="46" y="233" on="0"/>
        <pt x="84" y="332" on="0"/>
        <pt x="129" y="377" on="1"/>
        <pt x="103" y="407" on="0"/>
        <pt x="79" y="495" on="0"/>
        <pt x="79" y="537" on="1"/>
        <pt x="79" y="571" on="0"/>
        <pt x="97" y="635" on="0"/>
        <pt x="139" y="684" on="0"/>
        <pt x="209" y="714" on="0"/>
        <pt x="260" y="714" on="1"/>
        <pt x="309" y="714" on="0"/>
        <pt x="376" y="687" on="0"/>
        <pt x="417" y="642" on="0"/>
        <pt x="435" y="584" on="0"/>
        <pt x="435" y="552" on="1"/>
        <pt x="435" y="501" on="0"/>
        <pt x="399" y="420" on="0"/>
        <pt x="373" y="386" on="1"/>
        <pt x="410" y="361" on="0"/>
        <pt x="467" y="267" on="0"/>
        <pt x="467" y="204" on="1"/>
        <pt x="467" y="166" on="0"/>
        <pt x="442" y="89" on="0"/>
        <pt x="388" y="26" on="0"/>
        <pt x="305" y="-14" on="0"/>
      </contour>
      <contour>
        <pt x="256" y="614" on="1"/>
        <pt x="234" y="614" on="0"/>
        <pt x="206" y="600" on="0"/>
        <pt x="190" y="575" on="0"/>
        <pt x="184" y="543" on="0"/>
        <pt x="184" y="525" on="1"/>
        <pt x="184" y="510" on="0"/>
        <pt x="187" y="481" on="0"/>
        <pt x="200" y="455" on="0"/>
        <pt x="228" y="432" on="0"/>
        <pt x="252" y="425" on="1"/>
        <pt x="296" y="440" on="0"/>
        <pt x="325" y="497" on="0"/>
        <pt x="325" y="530" on="1"/>
        <pt x="325" y="546" on="0"/>
        <pt x="319" y="577" on="0"/>
        <pt x="304" y="600" on="0"/>
        <pt x="277" y="614" on="0"/>
      </contour>
      <contour>
        <pt x="260" y="332" on="1"/>
        <pt x="243" y="328" on="0"/>
        <pt x="207" y="307" on="0"/>
        <pt x="177" y="273" on="0"/>
        <pt x="158" y="225" on="0"/>
        <pt x="158" y="195" on="1"/>
        <pt x="158" y="144" on="0"/>
        <pt x="208" y="88" on="0"/>
        <pt x="252" y="88" on="1"/>
        <pt x="302" y="88" on="0"/>
        <pt x="350" y="149" on="0"/>
        <pt x="350" y="200" on="1"/>
        <pt x="350" y="228" on="0"/>
        <pt x="335" y="272" on="0"/>
        <pt x="310" y="305" on="0"/>
        <pt x="277" y="327" on="0"/>
      </contour>
    </TTGlyph>
    <TTGlyph name="ellipsis" xMin="41" yMin="0" xMax="566" yMax="130">
      <contour>
        <pt x="41" y="0" on="1"/>
        <pt x="41" y="130" on="1"/>
        <pt x="160" y="130" on="1"/>
        <pt x="160" y="0" on="1"/>
      </contour>
      <contour>
        <pt x="244" y="0" on="1"/>
        <pt x="244" y="130" on="1"/>
        <pt x="363" y="130" on="1"/>
        <pt x="363" y="0" on="1"/>
      </contour>
      <contour>
        <pt x="447" y="0" on="1"/>
        <pt x="447" y="130" on="1"/>
        <pt x="566" y="130" on="1"/>
        <pt x="566" y="0" on="1"/>
      </contour>
    </TTGlyph>
    <TTGlyph name="emdash" xMin="42" yMin="230" xMax="455" yMax="324">
      <contour>
        <pt x="42" y="230" on="1"/>
        <pt x="42" y="324" on="1"/>
        <pt x="455" y="324" on="1"/>
        <pt x="455" y="230" on="1"/>
      </contour>
    </TTGlyph>
    <TTGlyph name="endash" xMin="42" yMin="230" xMax="376" yMax="324">
      <contour>
        <pt x="42" y="230" on="1"/>
        <pt x="42" y="324" on="1"/>
        <pt x="376" y="324" on="1"/>
        <pt x="376" y="230" on="1"/>
      </contour>
    </TTGlyph>
    <TTGlyph name="equal" xMin="52" yMin="150" xMax="370" yMax="404">
      <contour>
        <pt x="52" y="310" on="1"/>
        <pt x="52" y="404" on="1"/>
        <pt x="370" y="404" on="1"/>
        <pt x="370" y="310" on="1"/>
      </contour>
      <contour>
        <pt x="52" y="150" on="1"/>
        <pt x="52" y="244" on="1"/>
        <pt x="370" y="244" on="1"/>
        <pt x="370" y="150" on="1"/>
      </contour>
    </TTGlyph>
    <TTGlyph name="eth" xMin="18" yMin="-13" xMax="410" yMax="711">
      <contour>
        <pt x="214" y="-13" on="1"/>
        <pt x="172" y="-13" on="0"/>
        <pt x="101" y="19" on="0"/>
        <pt x="48" y="77" on="0"/>
        <pt x="18" y="157" on="0"/>
        <pt x="18" y="205" on="1"/>
        <pt x="18" y="245" on="0"/>
        <pt x="42" y="325" on="0"/>
        <pt x="88" y="387" on="0"/>
        <pt x="156" y="426" on="0"/>
        <pt x="201" y="426" on="1"/>
        <pt x="233" y="426" on="0"/>
        <pt x="276" y="403" on="0"/>
        <pt x="295" y="387" on="1"/>
        <pt x="294" y="401" on="0"/>
        <pt x="285" y="445" on="0"/>
        <pt x="270" y="491" on="0"/>
        <pt x="252" y="530" on="0"/>
        <pt x="243" y="538" on="1"/>
        <pt x="219" y="515" on="0"/>
        <pt x="160" y="485" on="0"/>
        <pt x="126" y="481" on="1"/>
        <pt x="90" y="554" on="1"/>
        <pt x="111" y="554" on="0"/>
        <pt x="166" y="578" on="0"/>
        <pt x="190" y="598" on="1"/>
        <pt x="168" y="621" on="0"/>
        <pt x="116" y="643" on="0"/>
        <pt x="89" y="648" on="1"/>
        <pt x="128" y="701" on="1"/>
        <pt x="196" y="700" on="0"/>
        <pt x="251" y="649" on="1"/>
        <pt x="264" y="664" on="0"/>
        <pt x="290" y="695" on="0"/>
        <pt x="298" y="711" on="1"/>
        <pt x="364" y="695" on="1"/>
        <pt x="349" y="669" on="0"/>
        <pt x="319" y="622" on="0"/>
        <pt x="304" y="601" on="1"/>
        <pt x="350" y="540" on="0"/>
        <pt x="410" y="363" on="0"/>
        <pt x="410" y="258" on="1"/>
        <pt x="410" y="178" on="0"/>
        <pt x="374" y="73" on="0"/>
        <pt x="318" y="12" on="0"/>
        <pt x="248" y="-13" on="0"/>
      </contour>
      <contour>
        <pt x="211" y="329" on="1"/>
        <pt x="188" y="329" on="0"/>
        <pt x="156" y="309" on="0"/>
        <pt x="136" y="277" on="0"/>
        <pt x="126" y="239" on="0"/>
        <pt x="126" y="220" on="1"/>
        <pt x="126" y="194" on="0"/>
        <pt x="136" y="147" on="0"/>
        <pt x="157" y="110" on="0"/>
        <pt x="191" y="88" on="0"/>
        <pt x="215" y="88" on="1"/>
        <pt x="230" y="88" on="0"/>
        <pt x="262" y="101" on="0"/>
        <pt x="287" y="130" on="0"/>
        <pt x="304" y="175" on="0"/>
        <pt x="304" y="207" on="1"/>
        <pt x="304" y="264" on="0"/>
        <pt x="259" y="329" on="0"/>
      </contour>
    </TTGlyph>
    <TTGlyph name="exclam" xMin="48" yMin="0" xMax="169" yMax="750">
      <contour>
        <pt x="149" y="200" on="1"/>
        <pt x="69" y="200" on="1"/>
        <pt x="50" y="750" on="1"/>
        <pt x="162" y="750" on="1"/>
      </contour>
      <contour>
        <pt x="48" y="0" on="1"/>
        <pt x="48" y="124" on="1"/>
        <pt x="169" y="124" on="1"/>
        <pt x="169" y="0" on="1"/>
      </contour>
    </TTGlyph>
    <TTGlyph name="exclamdown" xMin="48" yMin="-250" xMax="169" yMax="500">
      <contour>
        <pt x="69" y="300" on="1"/>
        <pt x="149" y="300" on="1"/>
        <pt x="167" y="-250" on="1"/>
        <pt x="55" y="-250" on="1"/>
      </contour>
      <contour>
        <pt x="169" y="500" on="1"/>
        <pt x="169" y="376" on="1"/>
        <pt x="48" y="376" on="1"/>
        <pt x="48" y="500" on="1"/>
      </contour>
    </TTGlyph>
    <TTGlyph name="f" xMin="16" yMin="0" xMax="279" yMax="750">
      <contour>
        <pt x="191" y="398" on="1"/>
        <pt x="191" y="0" on="1"/>
        <pt x="72" y="0" on="1"/>
        <pt x="72" y="398" on="1"/>
        <pt x="16" y="398" on="1"/>
        <pt x="25" y="500" on="1"/>
        <pt x="72" y="500" on="1"/>
        <pt x="72" y="619" on="1"/>
        <pt x="72" y="643" on="0"/>
        <pt x="85" y="690" on="0"/>
        <pt x="110" y="727" on="0"/>
        <pt x="150" y="750" on="0"/>
        <pt x="177" y="750" on="1"/>
        <pt x="199" y="750" on="0"/>
        <pt x="228" y="749" on="0"/>
        <pt x="249" y="747" on="0"/>
        <pt x="267" y="745" on="0"/>
        <pt x="279" y="744" on="1"/>
        <pt x="270" y="641" on="1"/>
        <pt x="256" y="645" on="0"/>
        <pt x="229" y="646" on="0"/>
        <pt x="227" y="646" on="1"/>
        <pt x="206" y="646" on="0"/>
        <pt x="191" y="614" on="0"/>
        <pt x="191" y="568" on="1"/>
        <pt x="191" y="500" on="1"/>
        <pt x="278" y="500" on="1"/>
        <pt x="278" y="398" on="1"/>
      </contour>
    </TTGlyph>
    <TTGlyph name="five" xMin="42" yMin="-13" xMax="418" yMax="700">
      <contour>
        <pt x="204" y="-13" on="1"/>
        <pt x="172" y="-13" on="0"/>
        <pt x="114" y="0" on="0"/>
        <pt x="69" y="18" on="0"/>
        <pt x="42" y="37" on="0"/>
        <pt x="42" y="43" on="1"/>
        <pt x="70" y="159" on="1"/>
        <pt x="87" y="138" on="0"/>
        <pt x="155" y="107" on="0"/>
        <pt x="200" y="107" on="1"/>
        <pt x="219" y="107" on="0"/>
        <pt x="256" y="119" on="0"/>
        <pt x="286" y="147" on="0"/>
        <pt x="304" y="193" on="0"/>
        <pt x="304" y="226" on="1"/>
        <pt x="304" y="247" on="0"/>
        <pt x="297" y="286" on="0"/>
        <pt x="270" y="315" on="0"/>
        <pt x="217" y="332" on="0"/>
        <pt x="172" y="332" on="1"/>
        <pt x="72" y="332" on="1"/>
        <pt x="110" y="700" on="1"/>
        <pt x="388" y="700" on="1"/>
        <pt x="375" y="576" on="1"/>
        <pt x="200" y="576" on="1"/>
        <pt x="187" y="439" on="1"/>
        <pt x="305" y="437" on="0"/>
        <pt x="418" y="339" on="0"/>
        <pt x="418" y="231" on="1"/>
        <pt x="418" y="170" on="0"/>
        <pt x="381" y="78" on="0"/>
        <pt x="321" y="17" on="0"/>
        <pt x="244" y="-13" on="0"/>
      </contour>
    </TTGlyph>
    <TTGlyph name="florin" xMin="-27" yMin="-242" xMax="331" yMax="714">
      <contour>
        <pt x="320" y="608" on="1"/>
        <pt x="306" y="611" on="0"/>
        <pt x="284" y="615" on="0"/>
        <pt x="273" y="615" on="1"/>
        <pt x="243" y="615" on="0"/>
        <pt x="217" y="564" on="0"/>
        <pt x="210" y="500" on="1"/>
        <pt x="311" y="500" on="1"/>
        <pt x="303" y="418" on="1"/>
        <pt x="197" y="418" on="1"/>
        <pt x="133" y="-81" on="1"/>
        <pt x="127" y="-126" on="0"/>
        <pt x="102" y="-188" on="0"/>
        <pt x="72" y="-226" on="0"/>
        <pt x="39" y="-242" on="0"/>
        <pt x="26" y="-242" on="1"/>
        <pt x="-7" y="-242" on="1"/>
        <pt x="-27" y="-140" on="1"/>
        <pt x="-15" y="-140" on="0"/>
        <pt x="4" y="-134" on="0"/>
        <pt x="18" y="-117" on="0"/>
        <pt x="28" y="-86" on="0"/>
        <pt x="31" y="-60" on="1"/>
        <pt x="88" y="418" on="1"/>
        <pt x="27" y="418" on="1"/>
        <pt x="35" y="500" on="1"/>
        <pt x="99" y="500" on="1"/>
        <pt x="104" y="539" on="1"/>
        <pt x="115" y="621" on="0"/>
        <pt x="202" y="714" on="0"/>
        <pt x="264" y="714" on="1"/>
        <pt x="296" y="714" on="0"/>
        <pt x="331" y="702" on="1"/>
      </contour>
    </TTGlyph>
    <TTGlyph name="four" xMin="3" yMin="0" xMax="455" yMax="700">
      <contour>
        <pt x="382" y="190" on="1"/>
        <pt x="382" y="0" on="1"/>
        <pt x="262" y="0" on="1"/>
        <pt x="262" y="190" on="1"/>
        <pt x="3" y="190" on="1"/>
        <pt x="280" y="700" on="1"/>
        <pt x="382" y="700" on="1"/>
        <pt x="382" y="294" on="1"/>
        <pt x="455" y="294" on="1"/>
        <pt x="455" y="190" on="1"/>
      </contour>
      <contour>
        <pt x="262" y="504" on="1"/>
        <pt x="162" y="294" on="1"/>
        <pt x="262" y="294" on="1"/>
      </contour>
    </TTGlyph>
    <TTGlyph name="g" xMin="21" yMin="-250" xMax="430" yMax="508">
      <contour>
        <pt x="227" y="-250" on="1"/>
        <pt x="174" y="-250" on="0"/>
        <pt x="96" y="-225" on="0"/>
        <pt x="45" y="-183" on="0"/>
        <pt x="21" y="-130" on="0"/>
        <pt x="21" y="-102" on="1"/>
        <pt x="21" y="-66" on="0"/>
        <pt x="62" y="-11" on="0"/>
        <pt x="90" y="10" on="1"/>
        <pt x="76" y="23" on="0"/>
        <pt x="53" y="57" on="0"/>
        <pt x="53" y="82" on="1"/>
        <pt x="53" y="105" on="0"/>
        <pt x="76" y="138" on="0"/>
        <pt x="93" y="150" on="1"/>
        <pt x="66" y="177" on="0"/>
        <pt x="30" y="261" on="0"/>
        <pt x="30" y="311" on="1"/>
        <pt x="30" y="351" on="0"/>
        <pt x="53" y="423" on="0"/>
        <pt x="97" y="477" on="0"/>
        <pt x="163" y="508" on="0"/>
        <pt x="205" y="508" on="1"/>
        <pt x="264" y="508" on="0"/>
        <pt x="299" y="478" on="1"/>
        <pt x="310" y="486" on="0"/>
        <pt x="357" y="500" on="0"/>
        <pt x="387" y="500" on="1"/>
        <pt x="423" y="500" on="1"/>
        <pt x="417" y="422" on="1"/>
        <pt x="371" y="422" on="1"/>
        <pt x="363" y="422" on="0"/>
        <pt x="358" y="421" on="1"/>
        <pt x="366" y="398" on="0"/>
        <pt x="378" y="341" on="0"/>
        <pt x="378" y="311" on="1"/>
        <pt x="378" y="271" on="0"/>
        <pt x="355" y="199" on="0"/>
        <pt x="311" y="145" on="0"/>
        <pt x="245" y="114" on="0"/>
        <pt x="203" y="114" on="1"/>
        <pt x="192" y="114" on="0"/>
        <pt x="174" y="117" on="0"/>
        <pt x="163" y="119" on="1"/>
        <pt x="159" y="115" on="0"/>
        <pt x="159" y="103" on="1"/>
        <pt x="159" y="85" on="0"/>
        <pt x="212" y="69" on="0"/>
        <pt x="256" y="62" on="1"/>
        <pt x="278" y="58" on="0"/>
        <pt x="338" y="44" on="0"/>
        <pt x="392" y="12" on="0"/>
        <pt x="430" y="-44" on="0"/>
        <pt x="430" y="-89" on="1"/>
        <pt x="430" y="-162" on="0"/>
        <pt x="324" y="-250" on="0"/>
      </contour>
      <contour>
        <pt x="205" y="417" on="1"/>
        <pt x="170" y="417" on="0"/>
        <pt x="134" y="359" on="0"/>
        <pt x="134" y="311" on="1"/>
        <pt x="134" y="263" on="0"/>
        <pt x="167" y="205" on="0"/>
        <pt x="204" y="205" on="1"/>
        <pt x="239" y="205" on="0"/>
        <pt x="273" y="263" on="0"/>
        <pt x="273" y="311" on="1"/>
        <pt x="273" y="359" on="0"/>
        <pt x="241" y="417" on="0"/>
      </contour>
      <contour>
        <pt x="213" y="-30" on="1"/>
        <pt x="205" y="-29" on="0"/>
        <pt x="197" y="-27" on="0"/>
        <pt x="190" y="-25" on="0"/>
        <pt x="181" y="-23" on="0"/>
        <pt x="172" y="-21" on="1"/>
        <pt x="151" y="-30" on="0"/>
        <pt x="116" y="-61" on="0"/>
        <pt x="116" y="-90" on="1"/>
        <pt x="116" y="-123" on="0"/>
        <pt x="169" y="-162" on="0"/>
        <pt x="218" y="-162" on="1"/>
        <pt x="239" y="-162" on="0"/>
        <pt x="279" y="-153" on="0"/>
        <pt x="310" y="-135" on="0"/>
        <pt x="328" y="-110" on="0"/>
        <pt x="328" y="-94" on="1"/>
        <pt x="328" y="-76" on="0"/>
        <pt x="305" y="-53" on="0"/>
        <pt x="270" y="-39" on="0"/>
        <pt x="230" y="-32" on="0"/>
      </contour>
    </TTGlyph>
    <TTGlyph name="germandbls" xMin="18" yMin="-136" xMax="468" yMax="750">
      <contour>
        <pt x="279" y="-10" on="1"/>
        <pt x="269" y="-10" on="0"/>
        <pt x="240" y="-8" on="0"/>
        <pt x="224" y="-5" on="1"/>
        <pt x="224" y="92" on="1"/>
        <pt x="255" y="92" on="0"/>
        <pt x="301" y="94" on="0"/>
        <pt x="331" y="106" on="0"/>
        <pt x="346" y="132" on="0"/>
        <pt x="346" y="156" on="1"/>
        <pt x="346" y="196" on="0"/>
        <pt x="312" y="250" on="0"/>
        <pt x="272" y="294" on="0"/>
        <pt x="238" y="334" on="0"/>
        <pt x="238" y="360" on="1"/>
        <pt x="238" y="381" on="0"/>
        <pt x="260" y="419" on="0"/>
        <pt x="285" y="464" on="0"/>
        <pt x="307" y="519" on="0"/>
        <pt x="307" y="556" on="1"/>
        <pt x="307" y="605" on="0"/>
        <pt x="267" y="646" on="0"/>
        <pt x="246" y="646" on="1"/>
        <pt x="221" y="646" on="0"/>
        <pt x="193" y="597" on="0"/>
        <pt x="193" y="560" on="1"/>
        <pt x="193" y="-136" on="1"/>
        <pt x="74" y="-136" on="1"/>
        <pt x="74" y="398" on="1"/>
        <pt x="18" y="398" on="1"/>
        <pt x="27" y="500" on="1"/>
        <pt x="74" y="500" on="1"/>
        <pt x="74" y="555" on="1"/>
        <pt x="74" y="600" on="0"/>
        <pt x="103" y="672" on="0"/>
        <pt x="152" y="723" on="0"/>
        <pt x="214" y="750" on="0"/>
        <pt x="247" y="750" on="1"/>
        <pt x="278" y="750" on="0"/>
        <pt x="340" y="729" on="0"/>
        <pt x="389" y="684" on="0"/>
        <pt x="419" y="613" on="0"/>
        <pt x="419" y="562" on="1"/>
        <pt x="419" y="521" on="0"/>
        <pt x="401" y="458" on="0"/>
        <pt x="380" y="411" on="0"/>
        <pt x="362" y="378" on="0"/>
        <pt x="362" y="367" on="1"/>
        <pt x="362" y="352" on="0"/>
        <pt x="395" y="321" on="0"/>
        <pt x="435" y="275" on="0"/>
        <pt x="468" y="207" on="0"/>
        <pt x="468" y="155" on="1"/>
        <pt x="468" y="109" on="0"/>
        <pt x="438" y="46" on="0"/>
        <pt x="386" y="7" on="0"/>
        <pt x="318" y="-10" on="0"/>
      </contour>
    </TTGlyph>
    <TTGlyph name="grave" xMin="50" yMin="585" xMax="211" yMax="750">
      <contour>
        <pt x="50" y="646" on="1"/>
        <pt x="50" y="750" on="1"/>
        <pt x="211" y="659" on="1"/>
        <pt x="211" y="585" on="1"/>
      </contour>
    </TTGlyph>
    <TTGlyph name="greater" xMin="29" yMin="78" xMax="356" yMax="490">
      <contour>
        <pt x="175" y="78" on="1"/>
        <pt x="29" y="78" on="1"/>
        <pt x="210" y="284" on="1"/>
        <pt x="29" y="490" on="1"/>
        <pt x="175" y="490" on="1"/>
        <pt x="356" y="284" on="1"/>
      </contour>
    </TTGlyph>
    <TTGlyph name="guillemotleft" xMin="10" yMin="78" xMax="510" yMax="490">
      <contour>
        <pt x="366" y="78" on="1"/>
        <pt x="234" y="284" on="1"/>
        <pt x="366" y="490" on="1"/>
        <pt x="510" y="490" on="1"/>
        <pt x="377" y="284" on="1"/>
        <pt x="510" y="78" on="1"/>
      </contour>
      <contour>
        <pt x="143" y="78" on="1"/>
        <pt x="10" y="284" on="1"/>
        <pt x="143" y="490" on="1"/>
        <pt x="286" y="490" on="1"/>
        <pt x="154" y="284" on="1"/>
        <pt x="286" y="78" on="1"/>
      </contour>
    </TTGlyph>
    <TTGlyph name="guillemotright" xMin="13" yMin="78" xMax="513" yMax="490">
      <contour>
        <pt x="380" y="78" on="1"/>
        <pt x="237" y="78" on="1"/>
        <pt x="369" y="284" on="1"/>
        <pt x="237" y="490" on="1"/>
        <pt x="380" y="490" on="1"/>
        <pt x="513" y="284" on="1"/>
      </contour>
      <contour>
        <pt x="157" y="78" on="1"/>
        <pt x="13" y="78" on="1"/>
        <pt x="145" y="284" on="1"/>
        <pt x="13" y="490" on="1"/>
        <pt x="157" y="490" on="1"/>
        <pt x="289" y="284" on="1"/>
      </contour>
    </TTGlyph>
    <TTGlyph name="guilsinglleft" xMin="10" yMin="78" xMax="279" yMax="490">
      <contour>
        <pt x="138" y="78" on="1"/>
        <pt x="10" y="284" on="1"/>
        <pt x="138" y="490" on="1"/>
        <pt x="279" y="490" on="1"/>
        <pt x="151" y="284" on="1"/>
        <pt x="279" y="78" on="1"/>
      </contour>
    </TTGlyph>
    <TTGlyph name="guilsinglright" xMin="20" yMin="78" xMax="289" yMax="490">
      <contour>
        <pt x="161" y="78" on="1"/>
        <pt x="20" y="78" on="1"/>
        <pt x="148" y="284" on="1"/>
        <pt x="20" y="490" on="1"/>
        <pt x="161" y="490" on="1"/>
        <pt x="289" y="284" on="1"/>
      </contour>
    </TTGlyph>
    <TTGlyph name="h" xMin="44" yMin="0" xMax="429" yMax="750">
      <contour>
        <pt x="310" y="0" on="1"/>
        <pt x="310" y="269" on="1"/>
        <pt x="310" y="406" on="0"/>
        <pt x="231" y="406" on="1"/>
        <pt x="209" y="406" on="0"/>
        <pt x="177" y="383" on="0"/>
        <pt x="163" y="363" on="1"/>
        <pt x="163" y="0" on="1"/>
        <pt x="44" y="0" on="1"/>
        <pt x="44" y="750" on="1"/>
        <pt x="163" y="750" on="1"/>
        <pt x="163" y="474" on="1"/>
        <pt x="180" y="488" on="0"/>
        <pt x="221" y="508" on="0"/>
        <pt x="238" y="508" on="1"/>
        <pt x="290" y="508" on="0"/>
        <pt x="363" y="473" on="0"/>
        <pt x="409" y="410" on="0"/>
        <pt x="429" y="322" on="0"/>
        <pt x="429" y="269" on="1"/>
        <pt x="429" y="0" on="1"/>
      </contour>
    </TTGlyph>
    <TTGlyph name="hyphen" xMin="42" yMin="230" xMax="309" yMax="324">
      <contour>
        <pt x="42" y="230" on="1"/>
        <pt x="42" y="324" on="1"/>
        <pt x="309" y="324" on="1"/>
        <pt x="309" y="230" on="1"/>
      </contour>
    </TTGlyph>
    <TTGlyph name="i" xMin="44" yMin="0" xMax="163" yMax="700">
      <contour>
        <pt x="44" y="576" on="1"/>
        <pt x="44" y="700" on="1"/>
        <pt x="163" y="700" on="1"/>
        <pt x="163" y="576" on="1"/>
      </contour>
      <contour>
        <pt x="44" y="0" on="1"/>
        <pt x="44" y="500" on="1"/>
        <pt x="163" y="500" on="1"/>
        <pt x="163" y="0" on="1"/>
      </contour>
    </TTGlyph>
    <TTGlyph name="iacute" xMin="24" yMin="0" xMax="185" yMax="750">
      <component glyphName="dotlessi" x="0" y="0" flags="0x204"/>
      <component glyphName="acute" x="-26" y="0" flags="0x4"/>
    </TTGlyph>
    <TTGlyph name="icircumflex" xMin="-22" yMin="0" xMax="231" yMax="750">
      <component glyphName="dotlessi" x="0" y="0" flags="0x204"/>
      <component glyphName="circumflex" x="-87" y="0" flags="0x4"/>
    </TTGlyph>
    <TTGlyph name="idieresis" xMin="-2" yMin="0" xMax="211" yMax="700">
      <component glyphName="dotlessi" x="0" y="0" flags="0x204"/>
      <component glyphName="dieresis" x="-77" y="0" flags="0x4"/>
    </TTGlyph>
    <TTGlyph name="igrave" xMin="24" yMin="0" xMax="185" yMax="750">
      <component glyphName="dotlessi" x="0" y="0" flags="0x204"/>
      <component glyphName="grave" x="-26" y="0" flags="0x4"/>
    </TTGlyph>
    <TTGlyph name="j" xMin="-3" yMin="-242" xMax="163" yMax="700">
      <contour>
        <pt x="7" y="-242" on="1"/>
        <pt x="-3" y="-140" on="1"/>
        <pt x="13" y="-140" on="0"/>
        <pt x="32" y="-137" on="0"/>
        <pt x="41" y="-122" on="0"/>
        <pt x="44" y="-90" on="0"/>
        <pt x="44" y="-60" on="1"/>
        <pt x="44" y="500" on="1"/>
        <pt x="163" y="500" on="1"/>
        <pt x="163" y="-111" on="1"/>
        <pt x="163" y="-138" on="0"/>
        <pt x="154" y="-186" on="0"/>
        <pt x="129" y="-221" on="0"/>
        <pt x="85" y="-242" on="0"/>
        <pt x="51" y="-242" on="1"/>
      </contour>
      <contour>
        <pt x="44" y="576" on="1"/>
        <pt x="44" y="700" on="1"/>
        <pt x="163" y="700" on="1"/>
        <pt x="163" y="576" on="1"/>
      </contour>
    </TTGlyph>
    <TTGlyph name="k" xMin="42" yMin="0" xMax="422" yMax="750">
      <contour>
        <pt x="42" y="0" on="1"/>
        <pt x="42" y="750" on="1"/>
        <pt x="161" y="750" on="1"/>
        <pt x="161" y="295" on="1"/>
        <pt x="290" y="500" on="1"/>
        <pt x="422" y="500" on="1"/>
        <pt x="271" y="260" on="1"/>
        <pt x="420" y="0" on="1"/>
        <pt x="288" y="0" on="1"/>
        <pt x="161" y="222" on="1"/>
        <pt x="161" y="0" on="1"/>
      </contour>
    </TTGlyph>
    <TTGlyph name="l" xMin="46" yMin="-10" xMax="210" yMax="750">
      <contour>
        <pt x="201" y="-10" on="1"/>
        <pt x="156" y="-10" on="1"/>
        <pt x="128" y="-10" on="0"/>
        <pt x="87" y="11" on="0"/>
        <pt x="60" y="46" on="0"/>
        <pt x="46" y="94" on="0"/>
        <pt x="46" y="121" on="1"/>
        <pt x="46" y="750" on="1"/>
        <pt x="165" y="750" on="1"/>
        <pt x="165" y="172" on="1"/>
        <pt x="165" y="142" on="0"/>
        <pt x="169" y="109" on="0"/>
        <pt x="180" y="94" on="0"/>
        <pt x="197" y="92" on="0"/>
        <pt x="210" y="92" on="1"/>
      </contour>
    </TTGlyph>
    <TTGlyph name="less" xMin="28" yMin="78" xMax="355" yMax="490">
      <contour>
        <pt x="209" y="78" on="1"/>
        <pt x="28" y="284" on="1"/>
        <pt x="209" y="490" on="1"/>
        <pt x="355" y="490" on="1"/>
        <pt x="174" y="284" on="1"/>
        <pt x="355" y="78" on="1"/>
      </contour>
    </TTGlyph>
    <TTGlyph name="logicalnot" xMin="42" yMin="151" xMax="438" yMax="406">
      <contour>
        <pt x="342" y="151" on="1"/>
        <pt x="342" y="312" on="1"/>
        <pt x="42" y="312" on="1"/>
        <pt x="42" y="406" on="1"/>
        <pt x="438" y="406" on="1"/>
        <pt x="438" y="151" on="1"/>
      </contour>
    </TTGlyph>
    <TTGlyph name="m" xMin="50" yMin="0" xMax="697" yMax="508">
      <contour>
        <pt x="578" y="0" on="1"/>
        <pt x="578" y="269" on="1"/>
        <pt x="578" y="338" on="0"/>
        <pt x="548" y="406" on="0"/>
        <pt x="506" y="406" on="1"/>
        <pt x="484" y="406" on="0"/>
        <pt x="456" y="390" on="0"/>
        <pt x="439" y="363" on="0"/>
        <pt x="433" y="328" on="0"/>
        <pt x="433" y="309" on="1"/>
        <pt x="433" y="0" on="1"/>
        <pt x="315" y="0" on="1"/>
        <pt x="315" y="269" on="1"/>
        <pt x="315" y="309" on="0"/>
        <pt x="307" y="362" on="0"/>
        <pt x="288" y="394" on="0"/>
        <pt x="257" y="406" on="0"/>
        <pt x="234" y="406" on="1"/>
        <pt x="213" y="406" on="0"/>
        <pt x="183" y="385" on="0"/>
        <pt x="169" y="365" on="1"/>
        <pt x="169" y="0" on="1"/>
        <pt x="50" y="0" on="1"/>
        <pt x="50" y="500" on="1"/>
        <pt x="150" y="500" on="1"/>
        <pt x="155" y="461" on="1"/>
        <pt x="166" y="479" on="0"/>
        <pt x="223" y="508" on="0"/>
        <pt x="258" y="508" on="1"/>
        <pt x="296" y="508" on="0"/>
        <pt x="364" y="471" on="0"/>
        <pt x="384" y="432" on="1"/>
        <pt x="387" y="444" on="0"/>
        <pt x="410" y="471" on="0"/>
        <pt x="445" y="493" on="0"/>
        <pt x="493" y="508" on="0"/>
        <pt x="522" y="508" on="1"/>
        <pt x="567" y="508" on="0"/>
        <pt x="633" y="473" on="0"/>
        <pt x="676" y="409" on="0"/>
        <pt x="697" y="321" on="0"/>
        <pt x="697" y="269" on="1"/>
        <pt x="697" y="0" on="1"/>
      </contour>
    </TTGlyph>
    <TTGlyph name="mu" xMin="53" yMin="-242" xMax="491" yMax="500">
      <contour>
        <pt x="483" y="-10" on="1"/>
        <pt x="437" y="-10" on="1"/>
        <pt x="402" y="-10" on="0"/>
        <pt x="358" y="18" on="0"/>
        <pt x="344" y="42" on="1"/>
        <pt x="336" y="32" on="0"/>
        <pt x="312" y="14" on="0"/>
        <pt x="283" y="0" on="0"/>
        <pt x="253" y="-8" on="0"/>
        <pt x="241" y="-8" on="1"/>
        <pt x="219" y="-8" on="0"/>
        <pt x="183" y="-1" on="0"/>
        <pt x="173" y="6" on="1"/>
        <pt x="173" y="-242" on="1"/>
        <pt x="53" y="-242" on="1"/>
        <pt x="53" y="500" on="1"/>
        <pt x="173" y="500" on="1"/>
        <pt x="173" y="231" on="1"/>
        <pt x="173" y="94" on="0"/>
        <pt x="249" y="94" on="1"/>
        <pt x="272" y="94" on="0"/>
        <pt x="311" y="116" on="0"/>
        <pt x="322" y="136" on="1"/>
        <pt x="322" y="500" on="1"/>
        <pt x="442" y="500" on="1"/>
        <pt x="442" y="172" on="1"/>
        <pt x="442" y="144" on="0"/>
        <pt x="445" y="112" on="0"/>
        <pt x="453" y="96" on="0"/>
        <pt x="468" y="92" on="0"/>
        <pt x="479" y="92" on="1"/>
        <pt x="491" y="92" on="1"/>
      </contour>
    </TTGlyph>
    <TTGlyph name="multiply" xMin="37" yMin="109" xMax="333" yMax="445">
      <contour>
        <pt x="271" y="109" on="1"/>
        <pt x="185" y="216" on="1"/>
        <pt x="99" y="109" on="1"/>
        <pt x="37" y="170" on="1"/>
        <pt x="123" y="277" on="1"/>
        <pt x="37" y="384" on="1"/>
        <pt x="99" y="445" on="1"/>
        <pt x="185" y="338" on="1"/>
        <pt x="271" y="445" on="1"/>
        <pt x="333" y="384" on="1"/>
        <pt x="247" y="277" on="1"/>
        <pt x="333" y="170" on="1"/>
      </contour>
    </TTGlyph>
    <TTGlyph name="n" xMin="50" yMin="0" xMax="429" yMax="508">
      <contour>
        <pt x="310" y="0" on="1"/>
        <pt x="310" y="269" on="1"/>
        <pt x="310" y="339" on="0"/>
        <pt x="274" y="406" on="0"/>
        <pt x="235" y="406" on="1"/>
        <pt x="212" y="406" on="0"/>
        <pt x="183" y="383" on="0"/>
        <pt x="169" y="363" on="1"/>
        <pt x="169" y="0" on="1"/>
        <pt x="50" y="0" on="1"/>
        <pt x="50" y="500" on="1"/>
        <pt x="167" y="500" on="1"/>
        <pt x="166" y="470" on="1"/>
        <pt x="177" y="486" on="0"/>
        <pt x="219" y="508" on="0"/>
        <pt x="241" y="508" on="1"/>
        <pt x="293" y="508" on="0"/>
        <pt x="365" y="473" on="0"/>
        <pt x="409" y="410" on="0"/>
        <pt x="429" y="322" on="0"/>
        <pt x="429" y="269" on="1"/>
        <pt x="429" y="0" on="1"/>
      </contour>
    </TTGlyph>
    <TTGlyph name="nine" xMin="50" yMin="0" xMax="449" yMax="714">
      <contour>
        <pt x="260" y="714" on="1"/>
        <pt x="300" y="714" on="0"/>
        <pt x="370" y="685" on="0"/>
        <pt x="420" y="621" on="0"/>
        <pt x="449" y="520" on="0"/>
        <pt x="449" y="448" on="1"/>
        <pt x="449" y="351" on="0"/>
        <pt x="400" y="187" on="0"/>
        <pt x="323" y="67" on="0"/>
        <pt x="230" y="0" on="0"/>
        <pt x="186" y="0" on="1"/>
        <pt x="113" y="50" on="1"/>
        <pt x="123" y="50" on="0"/>
        <pt x="164" y="69" on="0"/>
        <pt x="212" y="105" on="0"/>
        <pt x="262" y="154" on="0"/>
        <pt x="303" y="213" on="0"/>
        <pt x="330" y="281" on="0"/>
        <pt x="330" y="317" on="1"/>
        <pt x="321" y="306" on="0"/>
        <pt x="295" y="292" on="0"/>
        <pt x="266" y="283" on="0"/>
        <pt x="236" y="279" on="0"/>
        <pt x="223" y="279" on="1"/>
        <pt x="188" y="279" on="0"/>
        <pt x="126" y="304" on="0"/>
        <pt x="78" y="354" on="0"/>
        <pt x="50" y="428" on="0"/>
        <pt x="50" y="477" on="1"/>
        <pt x="50" y="526" on="0"/>
        <pt x="79" y="612" on="0"/>
        <pt x="134" y="676" on="0"/>
        <pt x="212" y="714" on="0"/>
      </contour>
      <contour>
        <pt x="246" y="383" on="1"/>
        <pt x="282" y="383" on="0"/>
        <pt x="337" y="439" on="0"/>
        <pt x="337" y="496" on="1"/>
        <pt x="337" y="526" on="0"/>
        <pt x="321" y="566" on="0"/>
        <pt x="297" y="590" on="0"/>
        <pt x="268" y="600" on="0"/>
        <pt x="255" y="600" on="1"/>
        <pt x="234" y="600" on="0"/>
        <pt x="202" y="579" on="0"/>
        <pt x="180" y="546" on="0"/>
        <pt x="168" y="503" on="0"/>
        <pt x="168" y="482" on="1"/>
        <pt x="168" y="464" on="0"/>
        <pt x="177" y="429" on="0"/>
        <pt x="195" y="401" on="0"/>
        <pt x="225" y="383" on="0"/>
      </contour>
    </TTGlyph>
    <TTGlyph name="ntilde" xMin="50" yMin="0" xMax="429" yMax="721">
      <component glyphName="n" x="0" y="0" flags="0x204"/>
      <component glyphName="tilde" x="11" y="0" flags="0x4"/>
    </TTGlyph>
    <TTGlyph name="numbersign" xMin="26" yMin="-11" xMax="585" yMax="700">
      <contour>
        <pt x="554" y="414" on="1"/>
        <pt x="457" y="414" on="1"/>
        <pt x="426" y="309" on="1"/>
        <pt x="532" y="309" on="1"/>
        <pt x="491" y="211" on="1"/>
        <pt x="392" y="211" on="1"/>
        <pt x="320" y="-11" on="1"/>
        <pt x="232" y="-11" on="1"/>
        <pt x="301" y="211" on="1"/>
        <pt x="215" y="211" on="1"/>
        <pt x="143" y="-11" on="1"/>
        <pt x="55" y="-11" on="1"/>
        <pt x="127" y="211" on="1"/>
        <pt x="26" y="211" on="1"/>
        <pt x="65" y="309" on="1"/>
        <pt x="160" y="309" on="1"/>
        <pt x="192" y="414" on="1"/>
        <pt x="90" y="414" on="1"/>
        <pt x="118" y="512" on="1"/>
        <pt x="226" y="512" on="1"/>
        <pt x="289" y="700" on="1"/>
        <pt x="375" y="700" on="1"/>
        <pt x="314" y="512" on="1"/>
        <pt x="403" y="512" on="1"/>
        <pt x="463" y="700" on="1"/>
        <pt x="552" y="700" on="1"/>
        <pt x="491" y="512" on="1"/>
        <pt x="585" y="512" on="1"/>
      </contour>
      <contour>
        <pt x="280" y="414" on="1"/>
        <pt x="246" y="309" on="1"/>
        <pt x="335" y="309" on="1"/>
        <pt x="369" y="414" on="1"/>
      </contour>
    </TTGlyph>
    <TTGlyph name="o" xMin="24" yMin="-10" xMax="467" yMax="508">
      <contour>
        <pt x="245" y="-10" on="1"/>
        <pt x="192" y="-10" on="0"/>
        <pt x="110" y="32" on="0"/>
        <pt x="54" y="102" on="0"/>
        <pt x="24" y="196" on="0"/>
        <pt x="24" y="249" on="1"/>
        <pt x="24" y="301" on="0"/>
        <pt x="54" y="396" on="0"/>
        <pt x="110" y="466" on="0"/>
        <pt x="192" y="508" on="0"/>
        <pt x="245" y="508" on="1"/>
        <pt x="297" y="508" on="0"/>
        <pt x="380" y="466" on="0"/>
        <pt x="437" y="396" on="0"/>
        <pt x="467" y="301" on="0"/>
        <pt x="467" y="249" on="1"/>
        <pt x="467" y="196" on="0"/>
        <pt x="437" y="102" on="0"/>
        <pt x="380" y="32" on="0"/>
        <pt x="297" y="-10" on="0"/>
      </contour>
      <contour>
        <pt x="245" y="406" on="1"/>
        <pt x="198" y="406" on="0"/>
        <pt x="146" y="319" on="0"/>
        <pt x="146" y="249" on="1"/>
        <pt x="146" y="179" on="0"/>
        <pt x="198" y="92" on="0"/>
        <pt x="245" y="92" on="1"/>
        <pt x="293" y="92" on="0"/>
        <pt x="344" y="179" on="0"/>
        <pt x="344" y="249" on="1"/>
        <pt x="344" y="319" on="0"/>
        <pt x="293" y="406" on="0"/>
      </contour>
    </TTGlyph>
    <TTGlyph name="oacute" xMin="24" yMin="-10" xMax="467" yMax="750">
      <component glyphName="o" x="0" y="0" flags="0x204"/>
      <component glyphName="acute" x="115" y="0" flags="0x4"/>
    </TTGlyph>
    <TTGlyph name="ocircumflex" xMin="24" yMin="-10" xMax="467" yMax="750">
      <component glyphName="o" x="0" y="0" flags="0x204"/>
      <component glyphName="circumflex" x="54" y="0" flags="0x4"/>
    </TTGlyph>
    <TTGlyph name="odieresis" xMin="24" yMin="-10" xMax="467" yMax="700">
      <component glyphName="o" x="0" y="0" flags="0x204"/>
      <component glyphName="dieresis" x="64" y="0" flags="0x4"/>
    </TTGlyph>
    <TTGlyph name="oe" xMin="24" yMin="-10" xMax="746" yMax="508">
      <contour>
        <pt x="468" y="223" on="1"/>
        <pt x="481" y="153" on="0"/>
        <pt x="547" y="92" on="0"/>
        <pt x="592" y="92" on="1"/>
        <pt x="606" y="92" on="0"/>
        <pt x="642" y="99" on="0"/>
        <pt x="679" y="110" on="0"/>
        <pt x="714" y="125" on="0"/>
        <pt x="728" y="133" on="1"/>
        <pt x="728" y="28" on="1"/>
        <pt x="703" y="13" on="0"/>
        <pt x="627" y="-10" on="0"/>
        <pt x="579" y="-10" on="1"/>
        <pt x="528" y="-10" on="0"/>
        <pt x="438" y="33" on="0"/>
        <pt x="404" y="71" on="1"/>
        <pt x="372" y="33" on="0"/>
        <pt x="297" y="-10" on="0"/>
        <pt x="244" y="-10" on="1"/>
        <pt x="191" y="-10" on="0"/>
        <pt x="110" y="32" on="0"/>
        <pt x="53" y="102" on="0"/>
        <pt x="24" y="196" on="0"/>
        <pt x="24" y="249" on="1"/>
        <pt x="24" y="301" on="0"/>
        <pt x="54" y="396" on="0"/>
        <pt x="110" y="466" on="0"/>
        <pt x="191" y="508" on="0"/>
        <pt x="243" y="508" on="1"/>
        <pt x="297" y="508" on="0"/>
        <pt x="371" y="465" on="0"/>
        <pt x="403" y="429" on="1"/>
        <pt x="431" y="465" on="0"/>
        <pt x="501" y="508" on="0"/>
        <pt x="555" y="508" on="1"/>
        <pt x="595" y="508" on="0"/>
        <pt x="665" y="477" on="0"/>
        <pt x="717" y="421" on="0"/>
        <pt x="746" y="340" on="0"/>
        <pt x="746" y="291" on="1"/>
        <pt x="746" y="274" on="0"/>
        <pt x="742" y="241" on="0"/>
        <pt x="738" y="223" on="1"/>
      </contour>
      <contour>
        <pt x="560" y="406" on="1"/>
        <pt x="520" y="406" on="0"/>
        <pt x="477" y="350" on="0"/>
        <pt x="471" y="307" on="1"/>
        <pt x="625" y="307" on="1"/>
        <pt x="625" y="324" on="0"/>
        <pt x="620" y="359" on="0"/>
        <pt x="607" y="388" on="0"/>
        <pt x="581" y="406" on="0"/>
      </contour>
      <contour>
        <pt x="243" y="406" on="1"/>
        <pt x="198" y="406" on="0"/>
        <pt x="146" y="319" on="0"/>
        <pt x="146" y="249" on="1"/>
        <pt x="146" y="179" on="0"/>
        <pt x="198" y="92" on="0"/>
        <pt x="243" y="92" on="1"/>
        <pt x="288" y="92" on="0"/>
        <pt x="342" y="179" on="0"/>
        <pt x="342" y="249" on="1"/>
        <pt x="342" y="319" on="0"/>
        <pt x="290" y="406" on="0"/>
      </contour>
    </TTGlyph>
    <TTGlyph name="ograve" xMin="24" yMin="-10" xMax="467" yMax="750">
      <component glyphName="o" x="0" y="0" flags="0x204"/>
      <component glyphName="grave" x="115" y="0" flags="0x4"/>
    </TTGlyph>
    <TTGlyph name="one" xMin="36" yMin="0" xMax="234" yMax="700">
      <contour>
        <pt x="113" y="0" on="1"/>
        <pt x="113" y="519" on="1"/>
        <pt x="91" y="492" on="0"/>
        <pt x="44" y="483" on="1"/>
        <pt x="36" y="591" on="1"/>
        <pt x="48" y="594" on="0"/>
        <pt x="81" y="616" on="0"/>
        <pt x="111" y="646" on="0"/>
        <pt x="135" y="682" on="0"/>
        <pt x="140" y="700" on="1"/>
        <pt x="234" y="700" on="1"/>
        <pt x="234" y="0" on="1"/>
      </contour>
    </TTGlyph>
    <TTGlyph name="onehalf" xMin="86" yMin="-85" xMax="655" yMax="700">
      <component glyphName="onesuperior" x="41" y="0" flags="0x4"/>
      <component glyphName="slash" x="86" y="0" flags="0x4"/>
      <component glyphName="twosuperior" x="393" y="-319" flags="0x4"/>
    </TTGlyph>
    <TTGlyph name="onequarter" xMin="86" yMin="-85" xMax="662" yMax="700">
      <component glyphName="onesuperior" x="41" y="0" flags="0x4"/>
      <component glyphName="slash" x="86" y="0" flags="0x4"/>
      <component glyphName="uni2074" x="362" y="-319" flags="0x4"/>
    </TTGlyph>
    <TTGlyph name="onesuperior" xMin="45" yMin="320" xMax="165" yMax="698">
      <contour>
        <pt x="74" y="320" on="1"/>
        <pt x="74" y="569" on="1"/>
        <pt x="67" y="567" on="0"/>
        <pt x="56" y="565" on="0"/>
        <pt x="45" y="565" on="1"/>
        <pt x="45" y="639" on="1"/>
        <pt x="49" y="639" on="0"/>
        <pt x="64" y="650" on="0"/>
        <pt x="80" y="667" on="0"/>
        <pt x="92" y="688" on="0"/>
        <pt x="92" y="698" on="1"/>
        <pt x="165" y="698" on="1"/>
        <pt x="165" y="320" on="1"/>
      </contour>
    </TTGlyph>
    <TTGlyph name="ordfeminine" xMin="26" yMin="434" xMax="285" yMax="732">
      <contour>
        <pt x="283" y="434" on="1"/>
        <pt x="220" y="434" on="1"/>
        <pt x="209" y="434" on="0"/>
        <pt x="184" y="447" on="0"/>
        <pt x="176" y="454" on="1"/>
        <pt x="159" y="445" on="0"/>
        <pt x="122" y="434" on="0"/>
        <pt x="103" y="434" on="1"/>
        <pt x="72" y="434" on="0"/>
        <pt x="26" y="474" on="0"/>
        <pt x="26" y="526" on="1"/>
        <pt x="26" y="556" on="0"/>
        <pt x="63" y="596" on="0"/>
        <pt x="109" y="619" on="0"/>
        <pt x="153" y="628" on="0"/>
        <pt x="159" y="629" on="1"/>
        <pt x="159" y="634" on="0"/>
        <pt x="151" y="647" on="0"/>
        <pt x="130" y="647" on="1"/>
        <pt x="106" y="647" on="0"/>
        <pt x="73" y="636" on="0"/>
        <pt x="51" y="632" on="1"/>
        <pt x="47" y="713" on="1"/>
        <pt x="86" y="725" on="0"/>
        <pt x="136" y="732" on="0"/>
        <pt x="158" y="732" on="1"/>
        <pt x="175" y="732" on="0"/>
        <pt x="211" y="721" on="0"/>
        <pt x="240" y="700" on="0"/>
        <pt x="259" y="669" on="0"/>
        <pt x="259" y="650" on="1"/>
        <pt x="259" y="543" on="1"/>
        <pt x="259" y="528" on="0"/>
        <pt x="266" y="519" on="0"/>
        <pt x="269" y="519" on="1"/>
        <pt x="285" y="519" on="1"/>
      </contour>
      <contour>
        <pt x="160" y="563" on="1"/>
        <pt x="149" y="563" on="0"/>
        <pt x="132" y="544" on="0"/>
        <pt x="132" y="528" on="1"/>
        <pt x="132" y="515" on="0"/>
        <pt x="138" y="499" on="0"/>
        <pt x="146" y="499" on="1"/>
        <pt x="148" y="499" on="0"/>
        <pt x="155" y="499" on="0"/>
        <pt x="160" y="501" on="1"/>
      </contour>
    </TTGlyph>
    <TTGlyph name="ordmasculine" xMin="26" yMin="434" xMax="307" yMax="732">
      <contour>
        <pt x="167" y="434" on="1"/>
        <pt x="134" y="434" on="0"/>
        <pt x="81" y="459" on="0"/>
        <pt x="45" y="500" on="0"/>
        <pt x="26" y="554" on="0"/>
        <pt x="26" y="583" on="1"/>
        <pt x="26" y="612" on="0"/>
        <pt x="45" y="666" on="0"/>
        <pt x="81" y="707" on="0"/>
        <pt x="134" y="732" on="0"/>
        <pt x="167" y="732" on="1"/>
        <pt x="201" y="732" on="0"/>
        <pt x="253" y="707" on="0"/>
        <pt x="289" y="666" on="0"/>
        <pt x="307" y="612" on="0"/>
        <pt x="307" y="583" on="1"/>
        <pt x="307" y="554" on="0"/>
        <pt x="289" y="500" on="0"/>
        <pt x="253" y="459" on="0"/>
        <pt x="201" y="434" on="0"/>
      </contour>
      <contour>
        <pt x="167" y="655" on="1"/>
        <pt x="149" y="655" on="0"/>
        <pt x="127" y="611" on="0"/>
        <pt x="127" y="583" on="1"/>
        <pt x="127" y="555" on="0"/>
        <pt x="149" y="511" on="0"/>
        <pt x="167" y="511" on="1"/>
        <pt x="185" y="511" on="0"/>
        <pt x="206" y="555" on="0"/>
        <pt x="206" y="583" on="1"/>
        <pt x="206" y="611" on="0"/>
        <pt x="185" y="655" on="0"/>
      </contour>
    </TTGlyph>
    <TTGlyph name="oslash" xMin="24" yMin="-36" xMax="459" yMax="534">
      <contour>
        <pt x="242" y="-10" on="1"/>
        <pt x="209" y="-10" on="0"/>
        <pt x="187" y="-2" on="1"/>
        <pt x="175" y="-36" on="1"/>
        <pt x="71" y="-36" on="1"/>
        <pt x="103" y="39" on="1"/>
        <pt x="65" y="74" on="0"/>
        <pt x="24" y="185" on="0"/>
        <pt x="24" y="249" on="1"/>
        <pt x="24" y="301" on="0"/>
        <pt x="53" y="396" on="0"/>
        <pt x="109" y="466" on="0"/>
        <pt x="190" y="508" on="0"/>
        <pt x="242" y="508" on="1"/>
        <pt x="274" y="508" on="0"/>
        <pt x="293" y="500" on="1"/>
        <pt x="306" y="534" on="1"/>
        <pt x="413" y="534" on="1"/>
        <pt x="380" y="459" on="1"/>
        <pt x="417" y="423" on="0"/>
        <pt x="459" y="313" on="0"/>
        <pt x="459" y="249" on="1"/>
        <pt x="459" y="196" on="0"/>
        <pt x="430" y="102" on="0"/>
        <pt x="374" y="32" on="0"/>
        <pt x="293" y="-10" on="0"/>
      </contour>
      <contour>
        <pt x="233" y="94" on="1"/>
        <pt x="234" y="92" on="0"/>
        <pt x="241" y="92" on="1"/>
        <pt x="288" y="92" on="0"/>
        <pt x="339" y="179" on="0"/>
        <pt x="339" y="249" on="1"/>
        <pt x="339" y="278" on="0"/>
        <pt x="332" y="329" on="0"/>
        <pt x="327" y="349" on="1"/>
      </contour>
      <contour>
        <pt x="242" y="406" on="1"/>
        <pt x="196" y="406" on="0"/>
        <pt x="143" y="318" on="0"/>
        <pt x="143" y="248" on="1"/>
        <pt x="143" y="219" on="0"/>
        <pt x="151" y="169" on="0"/>
        <pt x="156" y="149" on="1"/>
        <pt x="247" y="404" on="1"/>
        <pt x="247" y="406" on="0"/>
      </contour>
    </TTGlyph>
    <TTGlyph name="otilde" xMin="24" yMin="-10" xMax="467" yMax="721">
      <component glyphName="o" x="0" y="0" flags="0x204"/>
      <component glyphName="tilde" x="19" y="0" flags="0x4"/>
    </TTGlyph>
    <TTGlyph name="p" xMin="45" yMin="-242" xMax="472" yMax="508">
      <contour>
        <pt x="250" y="-10" on="1"/>
        <pt x="233" y="-10" on="0"/>
        <pt x="208" y="-6" on="0"/>
        <pt x="189" y="3" on="0"/>
        <pt x="173" y="16" on="0"/>
        <pt x="164" y="24" on="1"/>
        <pt x="164" y="-242" on="1"/>
        <pt x="45" y="-242" on="1"/>
        <pt x="45" y="500" on="1"/>
        <pt x="152" y="500" on="1"/>
        <pt x="161" y="471" on="1"/>
        <pt x="184" y="491" on="0"/>
        <pt x="225" y="508" on="0"/>
        <pt x="255" y="508" on="1"/>
        <pt x="307" y="508" on="0"/>
        <pt x="388" y="467" on="0"/>
        <pt x="443" y="396" on="0"/>
        <pt x="472" y="302" on="0"/>
        <pt x="472" y="249" on="1"/>
        <pt x="472" y="197" on="0"/>
        <pt x="443" y="103" on="0"/>
        <pt x="387" y="32" on="0"/>
        <pt x="304" y="-10" on="0"/>
      </contour>
      <contour>
        <pt x="244" y="406" on="1"/>
        <pt x="217" y="406" on="0"/>
        <pt x="184" y="383" on="0"/>
        <pt x="166" y="341" on="0"/>
        <pt x="159" y="283" on="0"/>
        <pt x="159" y="249" on="1"/>
        <pt x="159" y="215" on="0"/>
        <pt x="166" y="157" on="0"/>
        <pt x="184" y="115" on="0"/>
        <pt x="217" y="92" on="0"/>
        <pt x="244" y="92" on="1"/>
        <pt x="296" y="92" on="0"/>
        <pt x="349" y="179" on="0"/>
        <pt x="349" y="249" on="1"/>
        <pt x="349" y="319" on="0"/>
        <pt x="296" y="406" on="0"/>
      </contour>
    </TTGlyph>
    <TTGlyph name="paragraph" xMin="28" yMin="0" xMax="498" yMax="700">
      <contour>
        <pt x="441" y="593" on="1"/>
        <pt x="441" y="0" on="1"/>
        <pt x="351" y="0" on="1"/>
        <pt x="351" y="593" on="1"/>
        <pt x="312" y="593" on="1"/>
        <pt x="312" y="0" on="1"/>
        <pt x="242" y="0" on="1"/>
        <pt x="242" y="229" on="1"/>
        <pt x="190" y="233" on="0"/>
        <pt x="110" y="276" on="0"/>
        <pt x="56" y="342" on="0"/>
        <pt x="28" y="424" on="0"/>
        <pt x="28" y="466" on="1"/>
        <pt x="28" y="510" on="0"/>
        <pt x="59" y="594" on="0"/>
        <pt x="120" y="660" on="0"/>
        <pt x="212" y="700" on="0"/>
        <pt x="274" y="700" on="1"/>
        <pt x="498" y="700" on="1"/>
        <pt x="498" y="593" on="1"/>
      </contour>
    </TTGlyph>
    <TTGlyph name="parenleft" xMin="39" yMin="-136" xMax="230" yMax="750">
      <contour>
        <pt x="120" y="-136" on="1"/>
        <pt x="101" y="-95" on="0"/>
        <pt x="71" y="-6" on="0"/>
        <pt x="50" y="100" on="0"/>
        <pt x="39" y="228" on="0"/>
        <pt x="39" y="307" on="1"/>
        <pt x="39" y="386" on="0"/>
        <pt x="50" y="514" on="0"/>
        <pt x="71" y="620" on="0"/>
        <pt x="101" y="709" on="0"/>
        <pt x="120" y="750" on="1"/>
        <pt x="230" y="750" on="1"/>
        <pt x="211" y="709" on="0"/>
        <pt x="177" y="616" on="0"/>
        <pt x="152" y="507" on="0"/>
        <pt x="137" y="380" on="0"/>
        <pt x="137" y="307" on="1"/>
        <pt x="137" y="233" on="0"/>
        <pt x="152" y="107" on="0"/>
        <pt x="177" y="-2" on="0"/>
        <pt x="211" y="-95" on="0"/>
        <pt x="230" y="-136" on="1"/>
      </contour>
    </TTGlyph>
    <TTGlyph name="parenright" xMin="14" yMin="-136" xMax="205" yMax="750">
      <contour>
        <pt x="14" y="-136" on="1"/>
        <pt x="33" y="-95" on="0"/>
        <pt x="67" y="-2" on="0"/>
        <pt x="92" y="107" on="0"/>
        <pt x="107" y="233" on="0"/>
        <pt x="107" y="307" on="1"/>
        <pt x="107" y="380" on="0"/>
        <pt x="92" y="507" on="0"/>
        <pt x="67" y="616" on="0"/>
        <pt x="33" y="709" on="0"/>
        <pt x="14" y="750" on="1"/>
        <pt x="124" y="750" on="1"/>
        <pt x="143" y="709" on="0"/>
        <pt x="173" y="620" on="0"/>
        <pt x="194" y="514" on="0"/>
        <pt x="205" y="386" on="0"/>
        <pt x="205" y="307" on="1"/>
        <pt x="205" y="228" on="0"/>
        <pt x="194" y="100" on="0"/>
        <pt x="173" y="-6" on="0"/>
        <pt x="143" y="-95" on="0"/>
        <pt x="124" y="-136" on="1"/>
      </contour>
    </TTGlyph>
    <TTGlyph name="percent" xMin="28" yMin="-12" xMax="696" yMax="704">
      <contour>
        <pt x="220" y="-12" on="1"/>
        <pt x="120" y="-12" on="1"/>
        <pt x="483" y="700" on="1"/>
        <pt x="584" y="700" on="1"/>
      </contour>
      <contour>
        <pt x="158" y="335" on="1"/>
        <pt x="98" y="335" on="0"/>
        <pt x="28" y="433" on="0"/>
        <pt x="28" y="516" on="1"/>
        <pt x="28" y="559" on="0"/>
        <pt x="49" y="629" on="0"/>
        <pt x="85" y="678" on="0"/>
        <pt x="134" y="704" on="0"/>
        <pt x="163" y="704" on="1"/>
        <pt x="191" y="704" on="0"/>
        <pt x="239" y="679" on="0"/>
        <pt x="274" y="632" on="0"/>
        <pt x="293" y="565" on="0"/>
        <pt x="293" y="524" on="1"/>
        <pt x="293" y="437" on="0"/>
        <pt x="221" y="335" on="0"/>
      </contour>
      <contour>
        <pt x="162" y="632" on="1"/>
        <pt x="142" y="632" on="0"/>
        <pt x="106" y="578" on="0"/>
        <pt x="106" y="516" on="1"/>
        <pt x="106" y="458" on="0"/>
        <pt x="136" y="409" on="0"/>
        <pt x="159" y="409" on="1"/>
        <pt x="185" y="409" on="0"/>
        <pt x="216" y="461" on="0"/>
        <pt x="216" y="524" on="1"/>
        <pt x="216" y="581" on="0"/>
        <pt x="183" y="632" on="0"/>
      </contour>
      <contour>
        <pt x="562" y="-9" on="1"/>
        <pt x="502" y="-9" on="0"/>
        <pt x="431" y="89" on="0"/>
        <pt x="431" y="172" on="1"/>
        <pt x="431" y="215" on="0"/>
        <pt x="452" y="285" on="0"/>
        <pt x="488" y="334" on="0"/>
        <pt x="537" y="360" on="0"/>
        <pt x="566" y="360" on="1"/>
        <pt x="624" y="360" on="0"/>
        <pt x="696" y="263" on="0"/>
        <pt x="696" y="180" on="1"/>
        <pt x="696" y="93" on="0"/>
        <pt x="624" y="-9" on="0"/>
      </contour>
      <contour>
        <pt x="565" y="288" on="1"/>
        <pt x="545" y="288" on="0"/>
        <pt x="509" y="234" on="0"/>
        <pt x="509" y="172" on="1"/>
        <pt x="509" y="114" on="0"/>
        <pt x="539" y="65" on="0"/>
        <pt x="562" y="65" on="1"/>
        <pt x="588" y="65" on="0"/>
        <pt x="620" y="117" on="0"/>
        <pt x="620" y="180" on="1"/>
        <pt x="620" y="237" on="0"/>
        <pt x="586" y="288" on="0"/>
      </contour>
    </TTGlyph>
    <TTGlyph name="period" xMin="41" yMin="0" xMax="160" yMax="130">
      <contour>
        <pt x="41" y="0" on="1"/>
        <pt x="41" y="130" on="1"/>
        <pt x="160" y="130" on="1"/>
        <pt x="160" y="0" on="1"/>
      </contour>
    </TTGlyph>
    <TTGlyph name="periodcentered" xMin="55" yMin="213" xMax="162" yMax="343">
      <contour>
        <pt x="55" y="213" on="1"/>
        <pt x="55" y="343" on="1"/>
        <pt x="162" y="343" on="1"/>
        <pt x="162" y="213" on="1"/>
      </contour>
    </TTGlyph>
    <TTGlyph name="perthousand" xMin="28" yMin="-12" xMax="1006" yMax="704">
      <contour>
        <pt x="220" y="-12" on="1"/>
        <pt x="120" y="-12" on="1"/>
        <pt x="483" y="700" on="1"/>
        <pt x="584" y="700" on="1"/>
      </contour>
      <contour>
        <pt x="158" y="335" on="1"/>
        <pt x="98" y="335" on="0"/>
        <pt x="28" y="433" on="0"/>
        <pt x="28" y="516" on="1"/>
        <pt x="28" y="559" on="0"/>
        <pt x="49" y="629" on="0"/>
        <pt x="85" y="678" on="0"/>
        <pt x="134" y="704" on="0"/>
        <pt x="163" y="704" on="1"/>
        <pt x="191" y="704" on="0"/>
        <pt x="239" y="679" on="0"/>
        <pt x="274" y="632" on="0"/>
        <pt x="293" y="565" on="0"/>
        <pt x="293" y="524" on="1"/>
        <pt x="293" y="437" on="0"/>
        <pt x="221" y="335" on="0"/>
      </contour>
      <contour>
        <pt x="162" y="632" on="1"/>
        <pt x="142" y="632" on="0"/>
        <pt x="106" y="578" on="0"/>
        <pt x="106" y="516" on="1"/>
        <pt x="106" y="458" on="0"/>
        <pt x="136" y="409" on="0"/>
        <pt x="159" y="409" on="1"/>
        <pt x="185" y="409" on="0"/>
        <pt x="216" y="461" on="0"/>
        <pt x="216" y="524" on="1"/>
        <pt x="216" y="581" on="0"/>
        <pt x="183" y="632" on="0"/>
      </contour>
      <contour>
        <pt x="562" y="-9" on="1"/>
        <pt x="502" y="-9" on="0"/>
        <pt x="431" y="89" on="0"/>
        <pt x="431" y="172" on="1"/>
        <pt x="431" y="215" on="0"/>
        <pt x="452" y="285" on="0"/>
        <pt x="488" y="334" on="0"/>
        <pt x="537" y="360" on="0"/>
        <pt x="566" y="360" on="1"/>
        <pt x="624" y="360" on="0"/>
        <pt x="696" y="263" on="0"/>
        <pt x="696" y="180" on="1"/>
        <pt x="696" y="93" on="0"/>
        <pt x="624" y="-9" on="0"/>
      </contour>
      <contour>
        <pt x="565" y="288" on="1"/>
        <pt x="545" y="288" on="0"/>
        <pt x="509" y="234" on="0"/>
        <pt x="509" y="172" on="1"/>
        <pt x="509" y="114" on="0"/>
        <pt x="539" y="65" on="0"/>
        <pt x="562" y="65" on="1"/>
        <pt x="588" y="65" on="0"/>
        <pt x="620" y="117" on="0"/>
        <pt x="620" y="180" on="1"/>
        <pt x="620" y="237" on="0"/>
        <pt x="586" y="288" on="0"/>
      </contour>
      <contour>
        <pt x="872" y="-9" on="1"/>
        <pt x="812" y="-9" on="0"/>
        <pt x="741" y="89" on="0"/>
        <pt x="741" y="172" on="1"/>
        <pt x="741" y="215" on="0"/>
        <pt x="762" y="285" on="0"/>
        <pt x="798" y="334" on="0"/>
        <pt x="847" y="360" on="0"/>
        <pt x="876" y="360" on="1"/>
        <pt x="934" y="360" on="0"/>
        <pt x="1006" y="263" on="0"/>
        <pt x="1006" y="180" on="1"/>
        <pt x="1006" y="93" on="0"/>
        <pt x="934" y="-9" on="0"/>
      </contour>
      <contour>
        <pt x="875" y="288" on="1"/>
        <pt x="855" y="288" on="0"/>
        <pt x="819" y="234" on="0"/>
        <pt x="819" y="172" on="1"/>
        <pt x="819" y="114" on="0"/>
        <pt x="849" y="65" on="0"/>
        <pt x="872" y="65" on="1"/>
        <pt x="898" y="65" on="0"/>
        <pt x="929" y="117" on="0"/>
        <pt x="929" y="180" on="1"/>
        <pt x="929" y="237" on="0"/>
        <pt x="896" y="288" on="0"/>
      </contour>
    </TTGlyph>
    <TTGlyph name="plus" xMin="35" yMin="102" xMax="353" yMax="452">
      <contour>
        <pt x="237" y="230" on="1"/>
        <pt x="237" y="102" on="1"/>
        <pt x="151" y="102" on="1"/>
        <pt x="151" y="230" on="1"/>
        <pt x="35" y="230" on="1"/>
        <pt x="35" y="324" on="1"/>
        <pt x="151" y="324" on="1"/>
        <pt x="151" y="452" on="1"/>
        <pt x="237" y="452" on="1"/>
        <pt x="237" y="324" on="1"/>
        <pt x="353" y="324" on="1"/>
        <pt x="353" y="230" on="1"/>
      </contour>
    </TTGlyph>
    <TTGlyph name="plusminus" xMin="41" yMin="30" xMax="359" yMax="532">
      <contour>
        <pt x="246" y="310" on="1"/>
        <pt x="246" y="182" on="1"/>
        <pt x="154" y="182" on="1"/>
        <pt x="154" y="310" on="1"/>
        <pt x="41" y="310" on="1"/>
        <pt x="41" y="404" on="1"/>
        <pt x="154" y="404" on="1"/>
        <pt x="154" y="532" on="1"/>
        <pt x="246" y="532" on="1"/>
        <pt x="246" y="404" on="1"/>
        <pt x="359" y="404" on="1"/>
        <pt x="359" y="310" on="1"/>
      </contour>
      <contour>
        <pt x="41" y="30" on="1"/>
        <pt x="41" y="124" on="1"/>
        <pt x="359" y="124" on="1"/>
        <pt x="359" y="30" on="1"/>
      </contour>
    </TTGlyph>
    <TTGlyph name="q" xMin="45" yMin="-242" xMax="472" yMax="508">
      <contour>
        <pt x="265" y="-10" on="1"/>
        <pt x="211" y="-10" on="0"/>
        <pt x="129" y="32" on="0"/>
        <pt x="74" y="102" on="0"/>
        <pt x="45" y="196" on="0"/>
        <pt x="45" y="249" on="1"/>
        <pt x="45" y="302" on="0"/>
        <pt x="74" y="396" on="0"/>
        <pt x="129" y="467" on="0"/>
        <pt x="210" y="508" on="0"/>
        <pt x="262" y="508" on="1"/>
        <pt x="292" y="508" on="0"/>
        <pt x="333" y="491" on="0"/>
        <pt x="356" y="471" on="1"/>
        <pt x="365" y="500" on="1"/>
        <pt x="472" y="500" on="1"/>
        <pt x="472" y="-242" on="1"/>
        <pt x="352" y="-242" on="1"/>
        <pt x="352" y="24" on="1"/>
        <pt x="334" y="7" on="0"/>
        <pt x="301" y="-10" on="0"/>
      </contour>
      <contour>
        <pt x="271" y="406" on="1"/>
        <pt x="221" y="406" on="0"/>
        <pt x="167" y="319" on="0"/>
        <pt x="167" y="249" on="1"/>
        <pt x="167" y="179" on="0"/>
        <pt x="221" y="92" on="0"/>
        <pt x="273" y="92" on="1"/>
        <pt x="299" y="92" on="0"/>
        <pt x="332" y="115" on="0"/>
        <pt x="351" y="157" on="0"/>
        <pt x="358" y="215" on="0"/>
        <pt x="358" y="250" on="1"/>
        <pt x="358" y="284" on="0"/>
        <pt x="351" y="342" on="0"/>
        <pt x="332" y="383" on="0"/>
        <pt x="298" y="406" on="0"/>
      </contour>
    </TTGlyph>
    <TTGlyph name="question" xMin="24" yMin="0" xMax="343" yMax="750">
      <contour>
        <pt x="134" y="200" on="1"/>
        <pt x="132" y="232" on="0"/>
        <pt x="132" y="250" on="0"/>
        <pt x="132" y="253" on="1"/>
        <pt x="132" y="300" on="0"/>
        <pt x="163" y="377" on="0"/>
        <pt x="199" y="447" on="0"/>
        <pt x="230" y="518" on="0"/>
        <pt x="230" y="560" on="1"/>
        <pt x="230" y="607" on="0"/>
        <pt x="189" y="652" on="0"/>
        <pt x="154" y="652" on="1"/>
        <pt x="119" y="652" on="0"/>
        <pt x="69" y="613" on="0"/>
        <pt x="49" y="587" on="1"/>
        <pt x="24" y="679" on="1"/>
        <pt x="48" y="716" on="0"/>
        <pt x="122" y="750" on="0"/>
        <pt x="164" y="750" on="1"/>
        <pt x="210" y="750" on="0"/>
        <pt x="278" y="713" on="0"/>
        <pt x="322" y="657" on="0"/>
        <pt x="343" y="590" on="0"/>
        <pt x="343" y="560" on="1"/>
        <pt x="343" y="515" on="0"/>
        <pt x="303" y="435" on="0"/>
        <pt x="256" y="355" on="0"/>
        <pt x="216" y="267" on="0"/>
        <pt x="216" y="213" on="1"/>
        <pt x="216" y="200" on="1"/>
      </contour>
      <contour>
        <pt x="115" y="0" on="1"/>
        <pt x="115" y="124" on="1"/>
        <pt x="234" y="124" on="1"/>
        <pt x="234" y="0" on="1"/>
      </contour>
    </TTGlyph>
    <TTGlyph name="questiondown" xMin="24" yMin="-250" xMax="343" yMax="500">
      <contour>
        <pt x="233" y="300" on="1"/>
        <pt x="234" y="268" on="0"/>
        <pt x="235" y="250" on="0"/>
        <pt x="235" y="247" on="1"/>
        <pt x="235" y="200" on="0"/>
        <pt x="204" y="123" on="0"/>
        <pt x="168" y="53" on="0"/>
        <pt x="137" y="-18" on="0"/>
        <pt x="137" y="-60" on="1"/>
        <pt x="137" y="-107" on="0"/>
        <pt x="179" y="-152" on="0"/>
        <pt x="214" y="-152" on="1"/>
        <pt x="249" y="-152" on="0"/>
        <pt x="298" y="-113" on="0"/>
        <pt x="318" y="-87" on="1"/>
        <pt x="343" y="-179" on="1"/>
        <pt x="320" y="-216" on="0"/>
        <pt x="245" y="-250" on="0"/>
        <pt x="203" y="-250" on="1"/>
        <pt x="157" y="-250" on="0"/>
        <pt x="90" y="-213" on="0"/>
        <pt x="46" y="-157" on="0"/>
        <pt x="24" y="-90" on="0"/>
        <pt x="24" y="-60" on="1"/>
        <pt x="24" y="-15" on="0"/>
        <pt x="64" y="65" on="0"/>
        <pt x="111" y="145" on="0"/>
        <pt x="151" y="233" on="0"/>
        <pt x="151" y="287" on="1"/>
        <pt x="151" y="300" on="1"/>
      </contour>
      <contour>
        <pt x="252" y="500" on="1"/>
        <pt x="252" y="376" on="1"/>
        <pt x="133" y="376" on="1"/>
        <pt x="133" y="500" on="1"/>
      </contour>
    </TTGlyph>
    <TTGlyph name="quotedbl" xMin="31" yMin="450" xMax="310" yMax="750">
      <contour>
        <pt x="293" y="450" on="1"/>
        <pt x="209" y="450" on="1"/>
        <pt x="192" y="750" on="1"/>
        <pt x="310" y="750" on="1"/>
      </contour>
      <contour>
        <pt x="132" y="450" on="1"/>
        <pt x="48" y="450" on="1"/>
        <pt x="31" y="750" on="1"/>
        <pt x="149" y="750" on="1"/>
      </contour>
    </TTGlyph>
    <TTGlyph name="quotedblbase" xMin="43" yMin="-110" xMax="356" yMax="130">
      <contour>
        <pt x="67" y="-110" on="1"/>
        <pt x="43" y="-96" on="1"/>
        <pt x="71" y="-10" on="1"/>
        <pt x="43" y="0" on="1"/>
        <pt x="43" y="130" on="1"/>
        <pt x="159" y="130" on="1"/>
        <pt x="159" y="0" on="1"/>
      </contour>
      <contour>
        <pt x="265" y="-110" on="1"/>
        <pt x="241" y="-96" on="1"/>
        <pt x="269" y="-10" on="1"/>
        <pt x="241" y="0" on="1"/>
        <pt x="241" y="130" on="1"/>
        <pt x="356" y="130" on="1"/>
        <pt x="356" y="0" on="1"/>
      </contour>
    </TTGlyph>
    <TTGlyph name="quotedblleft" xMin="44" yMin="510" xMax="340" yMax="750">
      <contour>
        <pt x="136" y="750" on="1"/>
        <pt x="159" y="736" on="1"/>
        <pt x="132" y="650" on="1"/>
        <pt x="160" y="640" on="1"/>
        <pt x="160" y="510" on="1"/>
        <pt x="44" y="510" on="1"/>
        <pt x="44" y="640" on="1"/>
      </contour>
      <contour>
        <pt x="316" y="750" on="1"/>
        <pt x="340" y="736" on="1"/>
        <pt x="312" y="650" on="1"/>
        <pt x="340" y="640" on="1"/>
        <pt x="340" y="510" on="1"/>
        <pt x="225" y="510" on="1"/>
        <pt x="225" y="640" on="1"/>
      </contour>
    </TTGlyph>
    <TTGlyph name="quotedblright" xMin="43" yMin="510" xMax="339" yMax="750">
      <contour>
        <pt x="247" y="510" on="1"/>
        <pt x="224" y="524" on="1"/>
        <pt x="252" y="610" on="1"/>
        <pt x="224" y="620" on="1"/>
        <pt x="224" y="750" on="1"/>
        <pt x="339" y="750" on="1"/>
        <pt x="339" y="620" on="1"/>
      </contour>
      <contour>
        <pt x="67" y="510" on="1"/>
        <pt x="43" y="524" on="1"/>
        <pt x="71" y="610" on="1"/>
        <pt x="43" y="620" on="1"/>
        <pt x="43" y="750" on="1"/>
        <pt x="159" y="750" on="1"/>
        <pt x="159" y="620" on="1"/>
      </contour>
    </TTGlyph>
    <TTGlyph name="quoteleft" xMin="44" yMin="510" xMax="160" yMax="750">
      <contour>
        <pt x="136" y="750" on="1"/>
        <pt x="159" y="736" on="1"/>
        <pt x="132" y="650" on="1"/>
        <pt x="160" y="640" on="1"/>
        <pt x="160" y="510" on="1"/>
        <pt x="44" y="510" on="1"/>
        <pt x="44" y="640" on="1"/>
      </contour>
    </TTGlyph>
    <TTGlyph name="quoteright" xMin="43" yMin="510" xMax="159" yMax="750">
      <contour>
        <pt x="67" y="510" on="1"/>
        <pt x="43" y="524" on="1"/>
        <pt x="71" y="610" on="1"/>
        <pt x="43" y="620" on="1"/>
        <pt x="43" y="750" on="1"/>
        <pt x="159" y="750" on="1"/>
        <pt x="159" y="620" on="1"/>
      </contour>
    </TTGlyph>
    <TTGlyph name="quotesinglbase" xMin="43" yMin="-110" xMax="159" yMax="130">
      <contour>
        <pt x="67" y="-110" on="1"/>
        <pt x="43" y="-96" on="1"/>
        <pt x="71" y="-10" on="1"/>
        <pt x="43" y="0" on="1"/>
        <pt x="43" y="130" on="1"/>
        <pt x="159" y="130" on="1"/>
        <pt x="159" y="0" on="1"/>
      </contour>
    </TTGlyph>
    <TTGlyph name="quotesingle" xMin="27" yMin="450" xMax="143" yMax="750">
      <contour>
        <pt x="125" y="450" on="1"/>
        <pt x="45" y="450" on="1"/>
        <pt x="27" y="750" on="1"/>
        <pt x="143" y="750" on="1"/>
      </contour>
    </TTGlyph>
    <TTGlyph name="r" xMin="45" yMin="0" xMax="300" yMax="508">
      <contour>
        <pt x="278" y="391" on="1"/>
        <pt x="233" y="391" on="1"/>
        <pt x="206" y="391" on="0"/>
        <pt x="170" y="362" on="0"/>
        <pt x="162" y="341" on="1"/>
        <pt x="162" y="0" on="1"/>
        <pt x="45" y="0" on="1"/>
        <pt x="45" y="500" on="1"/>
        <pt x="160" y="500" on="1"/>
        <pt x="160" y="447" on="1"/>
        <pt x="164" y="457" on="0"/>
        <pt x="183" y="479" on="0"/>
        <pt x="210" y="497" on="0"/>
        <pt x="244" y="508" on="0"/>
        <pt x="262" y="508" on="1"/>
        <pt x="300" y="508" on="1"/>
      </contour>
    </TTGlyph>
    <TTGlyph name="registered" xMin="34" yMin="37" xMax="568" yMax="693">
      <contour>
        <pt x="301" y="37" on="1"/>
        <pt x="243" y="37" on="0"/>
        <pt x="145" y="84" on="0"/>
        <pt x="74" y="170" on="0"/>
        <pt x="34" y="291" on="0"/>
        <pt x="34" y="365" on="1"/>
        <pt x="34" y="439" on="0"/>
        <pt x="74" y="560" on="0"/>
        <pt x="145" y="646" on="0"/>
        <pt x="243" y="693" on="0"/>
        <pt x="301" y="693" on="1"/>
        <pt x="359" y="693" on="0"/>
        <pt x="457" y="646" on="0"/>
        <pt x="528" y="560" on="0"/>
        <pt x="568" y="439" on="0"/>
        <pt x="568" y="365" on="1"/>
        <pt x="568" y="291" on="0"/>
        <pt x="528" y="170" on="0"/>
        <pt x="457" y="84" on="0"/>
        <pt x="359" y="37" on="0"/>
      </contour>
      <contour>
        <pt x="301" y="622" on="1"/>
        <pt x="253" y="622" on="0"/>
        <pt x="182" y="583" on="0"/>
        <pt x="135" y="515" on="0"/>
        <pt x="111" y="420" on="0"/>
        <pt x="111" y="365" on="1"/>
        <pt x="111" y="310" on="0"/>
        <pt x="135" y="215" on="0"/>
        <pt x="182" y="146" on="0"/>
        <pt x="253" y="107" on="0"/>
        <pt x="301" y="107" on="1"/>
        <pt x="349" y="107" on="0"/>
        <pt x="420" y="146" on="0"/>
        <pt x="468" y="215" on="0"/>
        <pt x="491" y="310" on="0"/>
        <pt x="491" y="365" on="1"/>
        <pt x="491" y="420" on="0"/>
        <pt x="468" y="515" on="0"/>
        <pt x="420" y="583" on="0"/>
        <pt x="349" y="622" on="0"/>
      </contour>
      <contour>
        <pt x="343" y="203" on="1"/>
        <pt x="291" y="315" on="1"/>
        <pt x="275" y="315" on="1"/>
        <pt x="275" y="203" on="1"/>
        <pt x="189" y="203" on="1"/>
        <pt x="189" y="538" on="1"/>
        <pt x="302" y="538" on="1"/>
        <pt x="324" y="538" on="0"/>
        <pt x="363" y="528" on="0"/>
        <pt x="392" y="502" on="0"/>
        <pt x="408" y="460" on="0"/>
        <pt x="408" y="428" on="1"/>
        <pt x="408" y="399" on="0"/>
        <pt x="383" y="352" on="0"/>
        <pt x="370" y="341" on="1"/>
        <pt x="435" y="203" on="1"/>
      </contour>
      <contour>
        <pt x="275" y="463" on="1"/>
        <pt x="275" y="396" on="1"/>
        <pt x="289" y="396" on="1"/>
        <pt x="311" y="396" on="0"/>
        <pt x="321" y="416" on="0"/>
        <pt x="321" y="430" on="1"/>
        <pt x="321" y="445" on="0"/>
        <pt x="313" y="463" on="0"/>
        <pt x="291" y="463" on="1"/>
      </contour>
    </TTGlyph>
    <TTGlyph name="ring" xMin="36" yMin="576" xMax="215" yMax="755">
      <contour>
        <pt x="125" y="576" on="1"/>
        <pt x="85" y="576" on="0"/>
        <pt x="36" y="628" on="0"/>
        <pt x="36" y="665" on="1"/>
        <pt x="36" y="702" on="0"/>
        <pt x="85" y="755" on="0"/>
        <pt x="125" y="755" on="1"/>
        <pt x="167" y="755" on="0"/>
        <pt x="215" y="702" on="0"/>
        <pt x="215" y="665" on="1"/>
        <pt x="215" y="628" on="0"/>
        <pt x="166" y="576" on="0"/>
      </contour>
      <contour>
        <pt x="125" y="706" on="1"/>
        <pt x="111" y="706" on="0"/>
        <pt x="94" y="683" on="0"/>
        <pt x="94" y="665" on="1"/>
        <pt x="94" y="646" on="0"/>
        <pt x="111" y="624" on="0"/>
        <pt x="125" y="624" on="1"/>
        <pt x="140" y="624" on="0"/>
        <pt x="157" y="646" on="0"/>
        <pt x="157" y="665" on="1"/>
        <pt x="157" y="683" on="0"/>
        <pt x="139" y="706" on="0"/>
      </contour>
    </TTGlyph>
    <TTGlyph name="s" xMin="29" yMin="-10" xMax="347" yMax="508">
      <contour>
        <pt x="175" y="-10" on="1"/>
        <pt x="127" y="-10" on="0"/>
        <pt x="49" y="13" on="0"/>
        <pt x="29" y="27" on="1"/>
        <pt x="38" y="133" on="1"/>
        <pt x="50" y="124" on="0"/>
        <pt x="83" y="106" on="0"/>
        <pt x="119" y="92" on="0"/>
        <pt x="156" y="83" on="0"/>
        <pt x="171" y="83" on="1"/>
        <pt x="190" y="83" on="0"/>
        <pt x="213" y="93" on="0"/>
        <pt x="225" y="109" on="0"/>
        <pt x="228" y="129" on="0"/>
        <pt x="228" y="138" on="1"/>
        <pt x="228" y="169" on="0"/>
        <pt x="186" y="198" on="0"/>
        <pt x="152" y="209" on="1"/>
        <pt x="129" y="217" on="0"/>
        <pt x="86" y="236" on="0"/>
        <pt x="52" y="266" on="0"/>
        <pt x="31" y="313" on="0"/>
        <pt x="31" y="349" on="1"/>
        <pt x="31" y="375" on="0"/>
        <pt x="45" y="431" on="0"/>
        <pt x="81" y="478" on="0"/>
        <pt x="142" y="508" on="0"/>
        <pt x="188" y="508" on="1"/>
        <pt x="209" y="508" on="0"/>
        <pt x="253" y="501" on="0"/>
        <pt x="292" y="491" on="0"/>
        <pt x="324" y="478" on="0"/>
        <pt x="332" y="471" on="1"/>
        <pt x="323" y="365" on="1"/>
        <pt x="315" y="374" on="0"/>
        <pt x="288" y="394" on="0"/>
        <pt x="254" y="409" on="0"/>
        <pt x="216" y="419" on="0"/>
        <pt x="199" y="419" on="1"/>
        <pt x="175" y="419" on="0"/>
        <pt x="132" y="394" on="0"/>
        <pt x="132" y="364" on="1"/>
        <pt x="132" y="346" on="0"/>
        <pt x="149" y="323" on="0"/>
        <pt x="176" y="308" on="0"/>
        <pt x="211" y="297" on="0"/>
        <pt x="230" y="291" on="1"/>
        <pt x="254" y="283" on="0"/>
        <pt x="297" y="262" on="0"/>
        <pt x="328" y="227" on="0"/>
        <pt x="347" y="176" on="0"/>
        <pt x="347" y="137" on="1"/>
        <pt x="347" y="114" on="0"/>
        <pt x="337" y="62" on="0"/>
        <pt x="301" y="19" on="0"/>
        <pt x="233" y="-10" on="0"/>
      </contour>
    </TTGlyph>
    <TTGlyph name="scaron" xMin="29" yMin="-10" xMax="347" yMax="750">
      <component glyphName="s" x="0" y="0" flags="0x204"/>
      <component glyphName="caron" x="-5" y="0" flags="0x4"/>
    </TTGlyph>
    <TTGlyph name="section" xMin="32" yMin="-85" xMax="361" yMax="750">
      <contour>
        <pt x="293" y="186" on="1"/>
        <pt x="304" y="168" on="0"/>
        <pt x="324" y="118" on="0"/>
        <pt x="324" y="82" on="1"/>
        <pt x="324" y="54" on="0"/>
        <pt x="311" y="-5" on="0"/>
        <pt x="278" y="-54" on="0"/>
        <pt x="220" y="-85" on="0"/>
        <pt x="176" y="-85" on="1"/>
        <pt x="159" y="-85" on="0"/>
        <pt x="121" y="-78" on="0"/>
        <pt x="87" y="-66" on="0"/>
        <pt x="60" y="-52" on="0"/>
        <pt x="53" y="-44" on="1"/>
        <pt x="59" y="61" on="1"/>
        <pt x="83" y="41" on="0"/>
        <pt x="147" y="11" on="0"/>
        <pt x="170" y="11" on="1"/>
        <pt x="182" y="11" on="0"/>
        <pt x="208" y="16" on="0"/>
        <pt x="229" y="29" on="0"/>
        <pt x="242" y="51" on="0"/>
        <pt x="242" y="69" on="1"/>
        <pt x="242" y="97" on="0"/>
        <pt x="211" y="129" on="0"/>
        <pt x="164" y="154" on="0"/>
        <pt x="110" y="179" on="0"/>
        <pt x="63" y="219" on="0"/>
        <pt x="32" y="282" on="0"/>
        <pt x="32" y="332" on="1"/>
        <pt x="32" y="350" on="0"/>
        <pt x="37" y="392" on="0"/>
        <pt x="50" y="432" on="0"/>
        <pt x="75" y="467" on="0"/>
        <pt x="96" y="479" on="1"/>
        <pt x="85" y="496" on="0"/>
        <pt x="67" y="546" on="0"/>
        <pt x="67" y="583" on="1"/>
        <pt x="67" y="611" on="0"/>
        <pt x="80" y="670" on="0"/>
        <pt x="115" y="719" on="0"/>
        <pt x="173" y="750" on="0"/>
        <pt x="218" y="750" on="1"/>
        <pt x="234" y="750" on="0"/>
        <pt x="272" y="743" on="0"/>
        <pt x="306" y="731" on="0"/>
        <pt x="333" y="716" on="0"/>
        <pt x="339" y="709" on="1"/>
        <pt x="333" y="604" on="1"/>
        <pt x="309" y="624" on="0"/>
        <pt x="246" y="654" on="0"/>
        <pt x="222" y="654" on="1"/>
        <pt x="210" y="654" on="0"/>
        <pt x="183" y="649" on="0"/>
        <pt x="161" y="636" on="0"/>
        <pt x="147" y="614" on="0"/>
        <pt x="147" y="596" on="1"/>
        <pt x="147" y="568" on="0"/>
        <pt x="179" y="536" on="0"/>
        <pt x="226" y="511" on="0"/>
        <pt x="282" y="486" on="0"/>
        <pt x="329" y="446" on="0"/>
        <pt x="361" y="383" on="0"/>
        <pt x="361" y="333" on="1"/>
        <pt x="361" y="315" on="0"/>
        <pt x="356" y="273" on="0"/>
        <pt x="342" y="232" on="0"/>
        <pt x="315" y="197" on="0"/>
      </contour>
      <contour>
        <pt x="165" y="408" on="1"/>
        <pt x="150" y="408" on="0"/>
        <pt x="124" y="377" on="0"/>
        <pt x="124" y="354" on="1"/>
        <pt x="124" y="330" on="0"/>
        <pt x="147" y="294" on="0"/>
        <pt x="179" y="268" on="0"/>
        <pt x="213" y="252" on="0"/>
        <pt x="225" y="247" on="1"/>
        <pt x="229" y="247" on="0"/>
        <pt x="245" y="259" on="0"/>
        <pt x="261" y="277" on="0"/>
        <pt x="273" y="300" on="0"/>
        <pt x="273" y="311" on="1"/>
        <pt x="273" y="335" on="0"/>
        <pt x="253" y="368" on="0"/>
        <pt x="221" y="390" on="0"/>
        <pt x="183" y="403" on="0"/>
      </contour>
    </TTGlyph>
    <TTGlyph name="semicolon" xMin="43" yMin="-110" xMax="175" yMax="440">
      <contour>
        <pt x="43" y="310" on="1"/>
        <pt x="43" y="440" on="1"/>
        <pt x="175" y="440" on="1"/>
        <pt x="175" y="310" on="1"/>
      </contour>
      <contour>
        <pt x="67" y="-110" on="1"/>
        <pt x="43" y="-96" on="1"/>
        <pt x="71" y="-10" on="1"/>
        <pt x="43" y="0" on="1"/>
        <pt x="43" y="130" on="1"/>
        <pt x="159" y="130" on="1"/>
        <pt x="159" y="0" on="1"/>
      </contour>
    </TTGlyph>
    <TTGlyph name="seven" xMin="37" yMin="0" xMax="435" yMax="700">
      <contour>
        <pt x="188" y="0" on="1"/>
        <pt x="60" y="0" on="1"/>
        <pt x="257" y="576" on="1"/>
        <pt x="37" y="576" on="1"/>
        <pt x="37" y="700" on="1"/>
        <pt x="435" y="700" on="1"/>
      </contour>
    </TTGlyph>
    <TTGlyph name="six" xMin="50" yMin="-14" xMax="447" yMax="700">
      <contour>
        <pt x="237" y="-14" on="1"/>
        <pt x="200" y="-14" on="0"/>
        <pt x="133" y="15" on="0"/>
        <pt x="81" y="79" on="0"/>
        <pt x="50" y="180" on="0"/>
        <pt x="50" y="253" on="1"/>
        <pt x="50" y="318" on="0"/>
        <pt x="79" y="435" on="0"/>
        <pt x="126" y="535" on="0"/>
        <pt x="184" y="614" on="0"/>
        <pt x="242" y="670" on="0"/>
        <pt x="292" y="700" on="0"/>
        <pt x="308" y="700" on="1"/>
        <pt x="387" y="650" on="1"/>
        <pt x="382" y="650" on="0"/>
        <pt x="348" y="627" on="0"/>
        <pt x="302" y="588" on="0"/>
        <pt x="251" y="535" on="0"/>
        <pt x="207" y="476" on="0"/>
        <pt x="177" y="412" on="0"/>
        <pt x="176" y="382" on="1"/>
        <pt x="184" y="395" on="0"/>
        <pt x="210" y="410" on="0"/>
        <pt x="237" y="418" on="0"/>
        <pt x="260" y="421" on="0"/>
        <pt x="266" y="421" on="1"/>
        <pt x="303" y="421" on="0"/>
        <pt x="368" y="396" on="0"/>
        <pt x="418" y="345" on="0"/>
        <pt x="447" y="270" on="0"/>
        <pt x="447" y="219" on="1"/>
        <pt x="447" y="172" on="0"/>
        <pt x="418" y="88" on="0"/>
        <pt x="364" y="24" on="0"/>
        <pt x="286" y="-14" on="0"/>
      </contour>
      <contour>
        <pt x="259" y="317" on="1"/>
        <pt x="220" y="317" on="0"/>
        <pt x="166" y="261" on="0"/>
        <pt x="166" y="203" on="1"/>
        <pt x="166" y="177" on="0"/>
        <pt x="183" y="138" on="0"/>
        <pt x="209" y="113" on="0"/>
        <pt x="237" y="100" on="0"/>
        <pt x="249" y="100" on="1"/>
        <pt x="270" y="100" on="0"/>
        <pt x="303" y="120" on="0"/>
        <pt x="326" y="153" on="0"/>
        <pt x="338" y="197" on="0"/>
        <pt x="338" y="221" on="1"/>
        <pt x="338" y="237" on="0"/>
        <pt x="330" y="271" on="0"/>
        <pt x="312" y="299" on="0"/>
        <pt x="281" y="317" on="0"/>
      </contour>
    </TTGlyph>
    <TTGlyph name="slash" xMin="14" yMin="-85" xMax="451" yMax="700">
      <contour>
        <pt x="142" y="-85" on="1"/>
        <pt x="14" y="-85" on="1"/>
        <pt x="323" y="700" on="1"/>
        <pt x="451" y="700" on="1"/>
      </contour>
    </TTGlyph>
    <TTGlyph name="sterling" xMin="17" yMin="0" xMax="429" yMax="706">
      <contour>
        <pt x="358" y="551" on="1"/>
        <pt x="348" y="582" on="0"/>
        <pt x="326" y="607" on="0"/>
        <pt x="297" y="607" on="1"/>
        <pt x="276" y="607" on="0"/>
        <pt x="253" y="591" on="0"/>
        <pt x="242" y="559" on="0"/>
        <pt x="240" y="511" on="0"/>
        <pt x="240" y="480" on="1"/>
        <pt x="240" y="407" on="1"/>
        <pt x="397" y="407" on="1"/>
        <pt x="373" y="303" on="1"/>
        <pt x="236" y="303" on="1"/>
        <pt x="235" y="275" on="0"/>
        <pt x="231" y="232" on="0"/>
        <pt x="225" y="192" on="0"/>
        <pt x="214" y="151" on="0"/>
        <pt x="206" y="124" on="1"/>
        <pt x="397" y="124" on="1"/>
        <pt x="397" y="0" on="1"/>
        <pt x="17" y="0" on="1"/>
        <pt x="70" y="70" on="0"/>
        <pt x="115" y="218" on="0"/>
        <pt x="122" y="303" on="1"/>
        <pt x="47" y="303" on="1"/>
        <pt x="72" y="407" on="1"/>
        <pt x="127" y="407" on="1"/>
        <pt x="127" y="500" on="1"/>
        <pt x="127" y="537" on="0"/>
        <pt x="138" y="611" on="0"/>
        <pt x="172" y="669" on="0"/>
        <pt x="234" y="706" on="0"/>
        <pt x="285" y="706" on="1"/>
        <pt x="308" y="706" on="0"/>
        <pt x="355" y="695" on="0"/>
        <pt x="395" y="673" on="0"/>
        <pt x="424" y="637" on="0"/>
        <pt x="429" y="612" on="1"/>
      </contour>
    </TTGlyph>
    <TTGlyph name="t" xMin="16" yMin="-10" xMax="280" yMax="623">
      <contour>
        <pt x="269" y="-10" on="1"/>
        <pt x="190" y="-10" on="1"/>
        <pt x="159" y="-10" on="0"/>
        <pt x="115" y="13" on="0"/>
        <pt x="86" y="50" on="0"/>
        <pt x="72" y="97" on="0"/>
        <pt x="72" y="121" on="1"/>
        <pt x="72" y="398" on="1"/>
        <pt x="16" y="398" on="1"/>
        <pt x="27" y="500" on="1"/>
        <pt x="72" y="500" on="1"/>
        <pt x="72" y="610" on="1"/>
        <pt x="192" y="623" on="1"/>
        <pt x="192" y="500" on="1"/>
        <pt x="279" y="500" on="1"/>
        <pt x="279" y="398" on="1"/>
        <pt x="192" y="398" on="1"/>
        <pt x="192" y="172" on="1"/>
        <pt x="192" y="143" on="0"/>
        <pt x="195" y="111" on="0"/>
        <pt x="206" y="96" on="0"/>
        <pt x="228" y="92" on="0"/>
        <pt x="247" y="92" on="1"/>
        <pt x="280" y="92" on="1"/>
      </contour>
    </TTGlyph>
    <TTGlyph name="thorn" xMin="50" yMin="-242" xMax="467" yMax="750">
      <contour>
        <pt x="257" y="-10" on="1"/>
        <pt x="228" y="-10" on="0"/>
        <pt x="191" y="7" on="0"/>
        <pt x="169" y="24" on="1"/>
        <pt x="169" y="-242" on="1"/>
        <pt x="50" y="-242" on="1"/>
        <pt x="50" y="750" on="1"/>
        <pt x="169" y="750" on="1"/>
        <pt x="169" y="475" on="1"/>
        <pt x="187" y="491" on="0"/>
        <pt x="224" y="508" on="0"/>
        <pt x="255" y="508" on="1"/>
        <pt x="308" y="508" on="0"/>
        <pt x="387" y="466" on="0"/>
        <pt x="440" y="396" on="0"/>
        <pt x="467" y="301" on="0"/>
        <pt x="467" y="249" on="1"/>
        <pt x="467" y="196" on="0"/>
        <pt x="440" y="102" on="0"/>
        <pt x="387" y="32" on="0"/>
        <pt x="309" y="-10" on="0"/>
      </contour>
      <contour>
        <pt x="250" y="406" on="1"/>
        <pt x="206" y="406" on="0"/>
        <pt x="164" y="319" on="0"/>
        <pt x="164" y="249" on="1"/>
        <pt x="164" y="179" on="0"/>
        <pt x="206" y="92" on="0"/>
        <pt x="250" y="92" on="1"/>
        <pt x="295" y="92" on="0"/>
        <pt x="345" y="179" on="0"/>
        <pt x="345" y="249" on="1"/>
        <pt x="345" y="319" on="0"/>
        <pt x="295" y="406" on="0"/>
      </contour>
    </TTGlyph>
    <TTGlyph name="three" xMin="32" yMin="-14" xMax="414" yMax="714">
      <contour>
        <pt x="193" y="-14" on="1"/>
        <pt x="165" y="-14" on="0"/>
        <pt x="111" y="-2" on="0"/>
        <pt x="67" y="15" on="0"/>
        <pt x="36" y="34" on="0"/>
        <pt x="32" y="40" on="1"/>
        <pt x="62" y="158" on="1"/>
        <pt x="67" y="148" on="0"/>
        <pt x="94" y="130" on="0"/>
        <pt x="129" y="117" on="0"/>
        <pt x="168" y="109" on="0"/>
        <pt x="186" y="109" on="1"/>
        <pt x="210" y="109" on="0"/>
        <pt x="250" y="119" on="0"/>
        <pt x="280" y="143" on="0"/>
        <pt x="297" y="182" on="0"/>
        <pt x="297" y="211" on="1"/>
        <pt x="297" y="235" on="0"/>
        <pt x="289" y="278" on="0"/>
        <pt x="268" y="311" on="0"/>
        <pt x="231" y="331" on="0"/>
        <pt x="201" y="331" on="1"/>
        <pt x="118" y="331" on="1"/>
        <pt x="127" y="430" on="1"/>
        <pt x="170" y="430" on="1"/>
        <pt x="200" y="430" on="0"/>
        <pt x="239" y="445" on="0"/>
        <pt x="263" y="470" on="0"/>
        <pt x="272" y="504" on="0"/>
        <pt x="272" y="522" on="1"/>
        <pt x="272" y="560" on="0"/>
        <pt x="236" y="606" on="0"/>
        <pt x="189" y="606" on="1"/>
        <pt x="166" y="606" on="0"/>
        <pt x="106" y="590" on="0"/>
        <pt x="88" y="572" on="1"/>
        <pt x="70" y="668" on="1"/>
        <pt x="85" y="684" on="0"/>
        <pt x="160" y="714" on="0"/>
        <pt x="204" y="714" on="1"/>
        <pt x="263" y="714" on="0"/>
        <pt x="336" y="677" on="0"/>
        <pt x="377" y="621" on="0"/>
        <pt x="392" y="556" on="0"/>
        <pt x="392" y="528" on="1"/>
        <pt x="392" y="482" on="0"/>
        <pt x="364" y="412" on="0"/>
        <pt x="344" y="388" on="1"/>
        <pt x="373" y="361" on="0"/>
        <pt x="414" y="276" on="0"/>
        <pt x="414" y="217" on="1"/>
        <pt x="414" y="159" on="0"/>
        <pt x="376" y="72" on="0"/>
        <pt x="315" y="15" on="0"/>
        <pt x="235" y="-14" on="0"/>
      </contour>
    </TTGlyph>
    <TTGlyph name="threequarters" xMin="86" yMin="-85" xMax="815" yMax="706">
      <component glyphName="threesuperior" x="42" y="0" flags="0x4"/>
      <component glyphName="slash" x="235" y="0" flags="0x4"/>
      <component glyphName="uni2074" x="515" y="-319" flags="0x4"/>
    </TTGlyph>
    <TTGlyph name="threesuperior" xMin="44" yMin="312" xMax="265" yMax="706">
      <contour>
        <pt x="136" y="312" on="1"/>
        <pt x="121" y="312" on="0"/>
        <pt x="91" y="319" on="0"/>
        <pt x="65" y="328" on="0"/>
        <pt x="46" y="338" on="0"/>
        <pt x="44" y="342" on="1"/>
        <pt x="67" y="432" on="1"/>
        <pt x="72" y="422" on="0"/>
        <pt x="110" y="408" on="0"/>
        <pt x="130" y="408" on="1"/>
        <pt x="150" y="408" on="0"/>
        <pt x="181" y="427" on="0"/>
        <pt x="181" y="453" on="1"/>
        <pt x="181" y="473" on="0"/>
        <pt x="163" y="489" on="0"/>
        <pt x="148" y="489" on="1"/>
        <pt x="93" y="489" on="1"/>
        <pt x="99" y="561" on="1"/>
        <pt x="131" y="561" on="1"/>
        <pt x="152" y="561" on="0"/>
        <pt x="165" y="585" on="0"/>
        <pt x="165" y="594" on="1"/>
        <pt x="165" y="609" on="0"/>
        <pt x="142" y="630" on="0"/>
        <pt x="122" y="630" on="1"/>
        <pt x="97" y="630" on="0"/>
        <pt x="78" y="616" on="1"/>
        <pt x="66" y="681" on="1"/>
        <pt x="77" y="691" on="0"/>
        <pt x="121" y="706" on="0"/>
        <pt x="146" y="706" on="1"/>
        <pt x="194" y="706" on="0"/>
        <pt x="253" y="644" on="0"/>
        <pt x="253" y="598" on="1"/>
        <pt x="253" y="565" on="0"/>
        <pt x="237" y="532" on="1"/>
        <pt x="251" y="516" on="0"/>
        <pt x="265" y="476" on="0"/>
        <pt x="265" y="455" on="1"/>
        <pt x="265" y="429" on="0"/>
        <pt x="246" y="378" on="0"/>
        <pt x="211" y="337" on="0"/>
        <pt x="164" y="312" on="0"/>
      </contour>
    </TTGlyph>
    <TTGlyph name="tilde" xMin="59" yMin="594" xMax="394" yMax="721">
      <contour>
        <pt x="288" y="599" on="1"/>
        <pt x="268" y="599" on="0"/>
        <pt x="239" y="612" on="0"/>
        <pt x="215" y="628" on="0"/>
        <pt x="194" y="641" on="0"/>
        <pt x="181" y="641" on="1"/>
        <pt x="164" y="641" on="0"/>
        <pt x="149" y="609" on="0"/>
        <pt x="148" y="594" on="1"/>
        <pt x="59" y="614" on="1"/>
        <pt x="60" y="639" on="0"/>
        <pt x="81" y="677" on="0"/>
        <pt x="114" y="703" on="0"/>
        <pt x="154" y="716" on="0"/>
        <pt x="175" y="716" on="1"/>
        <pt x="197" y="716" on="0"/>
        <pt x="222" y="703" on="0"/>
        <pt x="239" y="687" on="0"/>
        <pt x="255" y="674" on="0"/>
        <pt x="268" y="674" on="1"/>
        <pt x="288" y="674" on="0"/>
        <pt x="313" y="706" on="0"/>
        <pt x="313" y="721" on="1"/>
        <pt x="394" y="701" on="1"/>
        <pt x="392" y="682" on="0"/>
        <pt x="377" y="646" on="0"/>
        <pt x="350" y="617" on="0"/>
        <pt x="312" y="599" on="0"/>
      </contour>
    </TTGlyph>
    <TTGlyph name="trademark" xMin="27" yMin="337" xMax="596" yMax="700">
      <contour>
        <pt x="423" y="425" on="1"/>
        <pt x="365" y="549" on="1"/>
        <pt x="344" y="337" on="1"/>
        <pt x="262" y="337" on="1"/>
        <pt x="305" y="700" on="1"/>
        <pt x="356" y="700" on="1"/>
        <pt x="429" y="552" on="1"/>
        <pt x="501" y="700" on="1"/>
        <pt x="553" y="700" on="1"/>
        <pt x="596" y="337" on="1"/>
        <pt x="514" y="337" on="1"/>
        <pt x="493" y="549" on="1"/>
        <pt x="434" y="425" on="1"/>
      </contour>
      <contour>
        <pt x="267" y="622" on="1"/>
        <pt x="188" y="622" on="1"/>
        <pt x="188" y="337" on="1"/>
        <pt x="109" y="337" on="1"/>
        <pt x="109" y="622" on="1"/>
        <pt x="27" y="622" on="1"/>
        <pt x="27" y="700" on="1"/>
        <pt x="277" y="700" on="1"/>
      </contour>
    </TTGlyph>
    <TTGlyph name="two" xMin="33" yMin="0" xMax="406" yMax="714">
      <contour>
        <pt x="33" y="0" on="1"/>
        <pt x="88" y="94" on="0"/>
        <pt x="167" y="235" on="0"/>
        <pt x="220" y="339" on="0"/>
        <pt x="251" y="411" on="0"/>
        <pt x="267" y="461" on="0"/>
        <pt x="272" y="494" on="0"/>
        <pt x="272" y="507" on="1"/>
        <pt x="272" y="555" on="0"/>
        <pt x="234" y="607" on="0"/>
        <pt x="198" y="607" on="1"/>
        <pt x="169" y="607" on="0"/>
        <pt x="123" y="583" on="0"/>
        <pt x="89" y="548" on="0"/>
        <pt x="66" y="512" on="0"/>
        <pt x="60" y="500" on="1"/>
        <pt x="45" y="615" on="1"/>
        <pt x="52" y="628" on="0"/>
        <pt x="82" y="662" on="0"/>
        <pt x="126" y="693" on="0"/>
        <pt x="185" y="714" on="0"/>
        <pt x="221" y="714" on="1"/>
        <pt x="269" y="714" on="0"/>
        <pt x="332" y="679" on="0"/>
        <pt x="370" y="624" on="0"/>
        <pt x="386" y="557" on="0"/>
        <pt x="386" y="526" on="1"/>
        <pt x="386" y="492" on="0"/>
        <pt x="369" y="413" on="0"/>
        <pt x="333" y="316" on="0"/>
        <pt x="278" y="197" on="0"/>
        <pt x="240" y="124" on="1"/>
        <pt x="406" y="124" on="1"/>
        <pt x="406" y="0" on="1"/>
      </contour>
    </TTGlyph>
    <TTGlyph name="twosuperior" xMin="35" yMin="320" xMax="262" yMax="706">
      <contour>
        <pt x="35" y="320" on="1"/>
        <pt x="82" y="396" on="0"/>
        <pt x="135" y="492" on="0"/>
        <pt x="160" y="551" on="0"/>
        <pt x="166" y="581" on="0"/>
        <pt x="166" y="590" on="1"/>
        <pt x="166" y="609" on="0"/>
        <pt x="157" y="633" on="0"/>
        <pt x="143" y="633" on="1"/>
        <pt x="126" y="633" on="0"/>
        <pt x="98" y="614" on="0"/>
        <pt x="77" y="590" on="0"/>
        <pt x="65" y="567" on="0"/>
        <pt x="64" y="563" on="1"/>
        <pt x="53" y="650" on="1"/>
        <pt x="66" y="673" on="0"/>
        <pt x="120" y="706" on="0"/>
        <pt x="158" y="706" on="1"/>
        <pt x="185" y="706" on="0"/>
        <pt x="221" y="687" on="0"/>
        <pt x="242" y="658" on="0"/>
        <pt x="251" y="623" on="0"/>
        <pt x="251" y="607" on="1"/>
        <pt x="251" y="572" on="0"/>
        <pt x="221" y="482" on="0"/>
        <pt x="191" y="419" on="1"/>
        <pt x="262" y="419" on="1"/>
        <pt x="262" y="320" on="1"/>
      </contour>
    </TTGlyph>
    <TTGlyph name="u" xMin="46" yMin="-10" xMax="438" yMax="500">
      <contour>
        <pt x="325" y="0" on="1"/>
        <pt x="326" y="30" on="1"/>
        <pt x="308" y="13" on="0"/>
        <pt x="258" y="-10" on="0"/>
        <pt x="240" y="-10" on="1"/>
        <pt x="184" y="-10" on="0"/>
        <pt x="109" y="26" on="0"/>
        <pt x="64" y="90" on="0"/>
        <pt x="46" y="178" on="0"/>
        <pt x="46" y="231" on="1"/>
        <pt x="46" y="500" on="1"/>
        <pt x="165" y="500" on="1"/>
        <pt x="165" y="231" on="1"/>
        <pt x="165" y="161" on="0"/>
        <pt x="203" y="94" on="0"/>
        <pt x="245" y="94" on="1"/>
        <pt x="271" y="94" on="0"/>
        <pt x="304" y="116" on="0"/>
        <pt x="319" y="136" on="1"/>
        <pt x="319" y="500" on="1"/>
        <pt x="438" y="500" on="1"/>
        <pt x="438" y="0" on="1"/>
      </contour>
    </TTGlyph>
    <TTGlyph name="uacute" xMin="46" yMin="-10" xMax="438" yMax="750">
      <component glyphName="u" x="0" y="0" flags="0x204"/>
      <component glyphName="acute" x="107" y="0" flags="0x4"/>
    </TTGlyph>
    <TTGlyph name="ucircumflex" xMin="46" yMin="-10" xMax="438" yMax="750">
      <component glyphName="u" x="0" y="0" flags="0x204"/>
      <component glyphName="circumflex" x="46" y="0" flags="0x4"/>
    </TTGlyph>
    <TTGlyph name="udieresis" xMin="46" yMin="-10" xMax="438" yMax="700">
      <component glyphName="u" x="0" y="0" flags="0x204"/>
      <component glyphName="dieresis" x="56" y="0" flags="0x4"/>
    </TTGlyph>
    <TTGlyph name="ugrave" xMin="46" yMin="-10" xMax="438" yMax="750">
      <component glyphName="u" x="0" y="0" flags="0x204"/>
      <component glyphName="grave" x="107" y="0" flags="0x4"/>
    </TTGlyph>
    <TTGlyph name="underscore" xMin="-1" yMin="-130" xMax="481" yMax="-36">
      <contour>
        <pt x="-1" y="-130" on="1"/>
        <pt x="-1" y="-36" on="1"/>
        <pt x="481" y="-36" on="1"/>
        <pt x="481" y="-130" on="1"/>
      </contour>
    </TTGlyph>
    <TTGlyph name="uni00AD" xMin="58" yMin="230" xMax="325" yMax="324">
      <contour>
        <pt x="58" y="230" on="1"/>
        <pt x="58" y="324" on="1"/>
        <pt x="325" y="324" on="1"/>
        <pt x="325" y="230" on="1"/>
      </contour>
    </TTGlyph>
    <TTGlyph name="uni0237" xMin="-3" yMin="-242" xMax="163" yMax="500">
      <contour>
        <pt x="7" y="-242" on="1"/>
        <pt x="-3" y="-140" on="1"/>
        <pt x="13" y="-140" on="0"/>
        <pt x="32" y="-137" on="0"/>
        <pt x="41" y="-122" on="0"/>
        <pt x="44" y="-90" on="0"/>
        <pt x="44" y="-60" on="1"/>
        <pt x="44" y="500" on="1"/>
        <pt x="163" y="500" on="1"/>
        <pt x="163" y="-111" on="1"/>
        <pt x="163" y="-138" on="0"/>
        <pt x="154" y="-186" on="0"/>
        <pt x="129" y="-221" on="0"/>
        <pt x="85" y="-242" on="0"/>
        <pt x="51" y="-242" on="1"/>
      </contour>
    </TTGlyph>
    <TTGlyph name="uni2070" xMin="55" yMin="312" xMax="348" yMax="706">
      <contour>
        <pt x="199" y="312" on="1"/>
        <pt x="166" y="312" on="0"/>
        <pt x="112" y="340" on="0"/>
        <pt x="75" y="391" on="0"/>
        <pt x="55" y="462" on="0"/>
        <pt x="55" y="504" on="1"/>
        <pt x="55" y="547" on="0"/>
        <pt x="77" y="621" on="0"/>
        <pt x="117" y="675" on="0"/>
        <pt x="172" y="706" on="0"/>
        <pt x="205" y="706" on="1"/>
        <pt x="237" y="706" on="0"/>
        <pt x="290" y="677" on="0"/>
        <pt x="327" y="624" on="0"/>
        <pt x="348" y="553" on="0"/>
        <pt x="348" y="511" on="1"/>
        <pt x="348" y="468" on="0"/>
        <pt x="327" y="395" on="0"/>
        <pt x="289" y="342" on="0"/>
        <pt x="233" y="312" on="0"/>
      </contour>
      <contour>
        <pt x="204" y="622" on="1"/>
        <pt x="195" y="622" on="0"/>
        <pt x="174" y="609" on="0"/>
        <pt x="156" y="580" on="0"/>
        <pt x="145" y="535" on="0"/>
        <pt x="145" y="504" on="1"/>
        <pt x="145" y="445" on="0"/>
        <pt x="179" y="399" on="0"/>
        <pt x="199" y="399" on="1"/>
        <pt x="211" y="399" on="0"/>
        <pt x="233" y="410" on="0"/>
        <pt x="250" y="436" on="0"/>
        <pt x="260" y="479" on="0"/>
        <pt x="260" y="511" on="1"/>
        <pt x="260" y="541" on="0"/>
        <pt x="249" y="583" on="0"/>
        <pt x="232" y="610" on="0"/>
        <pt x="213" y="622" on="0"/>
      </contour>
    </TTGlyph>
</ttFont>
